<svg width="409" height="261" viewBox="0 0 409 261" fill="none" xmlns="http://www.w3.org/2000/svg">
<path d="M192.01 238.116V258.904C192.01 259.711 192.601 260.364 193.329 260.364H196.247C196.856 260.364 197.387 259.902 197.527 259.244L202.063 238.354C202.264 237.428 201.626 236.539 200.765 236.552L193.313 236.654C192.591 236.665 192.01 237.315 192.01 238.116Z" fill="#F3A769"/>
<path d="M402.36 238.116V258.904C402.36 259.711 401.771 260.364 401.042 260.364H398.126C397.515 260.364 396.987 259.902 396.844 259.244L392.309 238.354C392.107 237.428 392.747 236.539 393.607 236.552L401.06 236.654C401.78 236.665 402.36 237.315 402.36 238.116Z" fill="#F3A769"/>
<path d="M406.584 194.265H185.268C183.638 194.265 199.982 182.563 201.612 182.563H387.071C388.7 182.563 408.212 194.265 406.584 194.265Z" fill="#C9E4FF"/>
<path d="M398.917 217.302H195.028C193.36 217.302 192.01 215.804 192.01 213.956V194.324C192.01 192.476 193.36 190.979 195.028 190.979H398.917C400.581 190.979 401.932 192.476 401.932 194.324V213.956C401.932 215.804 400.581 217.302 398.917 217.302Z" fill="#A3D1FF"/>
<path d="M403.662 238.429H192.917C191.251 238.429 189.9 236.932 189.9 235.084V219.252C189.9 217.404 191.251 215.908 192.917 215.908H403.662C405.328 215.908 406.679 217.404 406.679 219.252V235.084C406.679 236.932 405.328 238.429 403.662 238.429Z" fill="#A3D1FF"/>
<path d="M401.932 214.957V219.345C401.932 220.998 400.73 222.341 399.246 222.341H194.697C193.214 222.341 192.01 220.998 192.01 219.345V214.957C192.01 216.61 193.214 217.955 194.697 217.955H399.246C400.73 217.955 401.932 216.61 401.932 214.957Z" fill="#4FA5FF"/>
<path d="M382.419 134.303V186.072H211.262V134.303H382.419Z" fill="#4FA5FF"/>
<path d="M217.688 186.073L192.01 191.632C192.01 191.632 190.429 152.437 195.44 148.052C195.44 148.052 196.279 145.494 198.237 142.581C200.668 138.961 204.833 134.79 211.263 134.304C211.454 134.289 211.64 134.289 211.82 134.304C215.449 134.582 217.311 140.432 218.178 148.108C219.914 163.445 217.688 186.073 217.688 186.073Z" fill="#4FA5FF"/>
<path d="M402.416 191.631L376.738 186.072C376.738 186.072 374.933 167.711 375.845 152.855C376.44 143.114 378.206 134.881 382.418 134.325C382.588 134.301 382.763 134.288 382.943 134.293C383.015 134.295 383.089 134.297 383.164 134.304C394.767 135.18 398.987 148.051 398.987 148.051C399.398 148.411 399.764 149.003 400.093 149.793C400.42 150.58 400.705 151.563 400.96 152.699C403.52 164.252 402.416 191.631 402.416 191.631Z" fill="#4FA5FF"/>
<path d="M403.249 151.396C403.2 151.374 402.497 151.003 400.961 150.593C400.785 150.548 400.481 150.632 400.288 150.409C391.912 140.739 386.109 139.861 364.652 159.113C358.07 165.017 349.053 171.778 338.904 175.234C330.303 178.16 303.83 180.932 274.292 180.153C249.424 179.5 240.8 169.792 223.394 151.14C221.677 149.301 219.931 147.778 218.178 146.526C215.87 144.878 213.547 143.696 211.262 142.882C206.62 141.227 202.129 141.095 198.236 141.633C200.667 138.427 204.833 134.733 211.262 134.302C211.454 134.291 211.64 134.291 211.82 134.302H382.419V134.321C382.589 134.299 382.764 134.291 382.944 134.293C391.21 139.744 396.888 144.834 400.094 148.021C402.143 150.06 403.186 151.32 403.249 151.396Z" fill="#A3D1FF"/>
<path d="M207.05 141.494C205.966 141.425 205.298 142.78 205.936 143.756C209.792 149.663 218.91 165.577 218.91 184.027C218.91 184.027 218.448 188.582 230.941 186.009C243.439 183.441 273.141 186.951 274.112 186.072C275.085 185.196 271.127 181.979 266.118 170.282C261.106 158.58 259.788 139.861 257.943 138.401C256.134 136.967 249.72 144.19 207.05 141.494Z" fill="#F3A769"/>
<path d="M402.803 143.975C396.679 135.061 382.682 132.987 382.682 132.987C382.682 132.987 343.001 132.703 301.192 132.555V132.529C299.807 132.531 298.423 132.536 297.039 132.54C295.653 132.536 294.269 132.531 292.885 132.529V132.555C251.077 132.703 211.396 132.987 211.396 132.987C211.396 132.987 197.401 135.061 191.273 143.975C189.656 146.329 188.871 149.255 188.934 152.211C189.078 159.096 189.135 177.468 186.097 188.844C185.557 190.859 185.287 192.95 185.287 195.054V236.882C185.287 237.656 185.853 238.283 186.55 238.283H190.881C191.578 238.283 192.144 237.656 192.144 236.882V199.186C192.144 194.375 192.517 189.573 193.257 184.831C194.352 177.806 195.88 166.488 196.041 157.226C196.18 149.196 200.971 142.166 207.91 139.874C213.267 138.104 220.954 136.789 231.966 136.789C244.42 136.789 268.037 136.789 292.885 136.789C295.643 136.789 298.419 136.789 301.192 136.789C326.041 136.789 349.66 136.789 362.11 136.789C373.122 136.789 380.809 138.104 386.166 139.874C393.109 142.166 397.898 149.196 398.037 157.226C398.198 166.488 399.726 177.806 400.821 184.831C401.558 189.573 401.932 194.375 401.932 199.186V236.882C401.932 237.656 402.5 238.283 403.195 238.283H407.528C408.225 238.283 408.791 237.656 408.791 236.882V195.054C408.791 192.95 408.519 190.859 407.982 188.844C404.943 177.468 405.001 159.096 405.144 152.211C405.207 149.255 404.42 146.329 402.803 143.975Z" fill="#C9E4FF"/>
<path d="M210.109 144.537C210.109 144.537 222.505 153.603 224.087 167.351C225.668 181.096 224.087 184.315 224.087 184.315C224.087 184.315 228.569 177.003 228.04 179.341C227.514 181.684 226.195 185.777 228.04 184.315C229.886 182.851 256.259 176.417 269.974 183.438C269.974 183.438 260.215 178.172 262.587 177.586C264.962 177.003 272.611 184.26 269.974 180.046C267.336 175.832 254.94 158.867 258.105 143.66C258.105 143.66 254.678 150.386 255.204 147.17C255.733 143.951 255.997 141.027 254.151 142.489C252.304 143.951 237.8 149.215 216.966 146.291C216.966 146.291 217.23 146.584 218.285 148.046C219.338 149.508 211.162 147.17 210.109 144.537Z" fill="#FFDFBF"/>
<path d="M86.459 27.6119H161.783V173.044H86.459V27.6119Z" fill="#FFDFBF"/>
<path d="M12.041 173.044H86.4576V231.421H12.041V173.044Z" fill="#FFDFBF"/>
<path d="M22.9316 185.334H75.5678V219.131H22.9316V185.334Z" fill="white"/>
<path d="M86.459 173.044H161.783V231.421H86.459V173.044Z" fill="#FFDFBF"/>
<path d="M98.2559 185.334H150.892V219.131H98.2559V185.334Z" fill="white"/>
<path d="M76.113 220.155H23.2965C22.602 220.155 22.0254 219.514 22.0254 218.746V185.718C22.0254 184.95 22.602 184.309 23.2965 184.309H76.113C76.8075 184.309 77.3841 184.95 77.3841 185.718V218.746C77.3841 219.514 76.8075 220.155 76.113 220.155ZM24.5675 217.338H74.8419V187.126H24.5675V217.338Z" fill="#F3A769"/>
<path d="M150.529 220.155H97.7083C97.0138 220.155 96.4414 219.514 96.4414 218.746V185.718C96.4414 184.95 97.0138 184.309 97.7083 184.309H150.529C151.223 184.309 151.8 184.95 151.8 185.718V218.746C151.8 219.514 151.223 220.155 150.529 220.155ZM98.9793 217.338H149.258V187.126H98.9793V217.338Z" fill="#F3A769"/>
<path d="M12.041 27.6119H86.4576V173.044H12.041V27.6119Z" fill="#FFDFBF"/>
<path d="M98.2559 39.9019H150.892V95.2068H98.2559V39.9019Z" fill="#FFEFDE"/>
<path d="M104.609 82.9171V46.0471H140.003V64.3927C140.003 74.6357 132.793 82.9171 123.915 82.9171H104.609Z" fill="white"/>
<path d="M22.9316 39.9019H75.5678V95.2068H22.9316V39.9019Z" fill="#FFEFDE"/>
<path d="M29.2852 82.9171V46.0471H64.6784V64.3927C64.6784 74.6357 57.465 82.9171 48.5906 82.9171H29.2852Z" fill="white"/>
<path d="M98.2559 104.424H150.892V160.754H98.2559V104.424Z" fill="#FFEFDE"/>
<path d="M104.609 147.439V111.594H140.003V129.423C140.003 139.375 132.793 147.421 123.915 147.421H104.609V147.439Z" fill="white"/>
<path d="M22.9316 104.424H75.5678V160.754H22.9316V104.424Z" fill="#FFEFDE"/>
<path d="M29.2852 147.439V111.594H64.6784V129.423C64.6784 139.375 57.465 147.421 48.5906 147.421H29.2852V147.439Z" fill="white"/>
<path d="M22.9316 95.2069H75.5678V104.424H22.9316V95.2069Z" fill="#FFDFBF"/>
<path d="M98.2559 95.2069H150.892V104.424H98.2559V95.2069Z" fill="#FFDFBF"/>
<path d="M76.113 106.473H23.2965C22.602 106.473 22.0254 105.831 22.0254 105.053V95.6029C22.0254 94.8245 22.602 94.1829 23.2965 94.1829H76.113C76.8075 94.1829 77.3841 94.8245 77.3841 95.6029V105.053C77.3841 105.831 76.8075 106.473 76.113 106.473ZM24.5675 103.633H74.8419V97.023H24.5675V103.633Z" fill="#F3A769"/>
<path d="M150.529 106.473H97.7083C97.0138 106.473 96.4414 105.831 96.4414 105.053V95.6029C96.4414 94.8245 97.0138 94.1829 97.7083 94.1829H150.529C151.223 94.1829 151.8 94.8245 151.8 95.6029V105.053C151.8 105.831 151.223 106.473 150.529 106.473ZM98.9793 103.633H149.258V97.023H98.9793V103.633Z" fill="#F3A769"/>
<path d="M76.113 161.778H23.2965C22.602 161.778 22.0254 161.13 22.0254 160.343V39.2878C22.0254 38.5063 22.602 37.8535 23.2965 37.8535H76.113C76.8075 37.8535 77.3841 38.5063 77.3841 39.2878V160.343C77.3841 161.13 76.8075 161.778 76.113 161.778ZM24.5675 158.909H74.8419V40.7268H24.5675V158.909Z" fill="#F3A769"/>
<path d="M150.529 161.778H97.7083C97.0138 161.778 96.4414 161.13 96.4414 160.343V39.2878C96.4414 38.5063 97.0138 37.8535 97.7083 37.8535H150.529C151.223 37.8535 151.8 38.5063 151.8 39.2878V160.343C151.8 161.13 151.223 161.778 150.529 161.778ZM98.9793 158.909H149.258V40.7268H98.9793V158.909Z" fill="#F3A769"/>
<path d="M86.9947 174.068H11.5051C10.8066 174.068 10.2266 173.417 10.2266 172.638V26.9929C10.2266 26.2094 10.8066 25.5636 11.5051 25.5636H86.9947C87.6932 25.5636 88.2732 26.2094 88.2732 26.9929V172.638C88.2732 173.417 87.6932 174.068 86.9947 174.068ZM12.7837 171.204H85.7161V28.4222H12.7837V171.204Z" fill="#F3A769"/>
<path d="M162.319 174.068H86.8293C86.1308 174.068 85.5508 173.417 85.5508 172.638V26.9929C85.5508 26.2094 86.1308 25.5636 86.8293 25.5636H162.319C163.017 25.5636 163.597 26.2094 163.597 26.9929V172.638C163.597 173.417 163.017 174.068 162.319 174.068ZM88.1077 171.204H161.04V28.4222H88.1077V171.204Z" fill="#F3A769"/>
<path d="M86.9947 233.469H11.5051C10.8066 233.469 10.2266 232.818 10.2266 232.034V173.455C10.2266 172.67 10.8066 172.019 11.5051 172.019H86.9947C87.6932 172.019 88.2732 172.67 88.2732 173.455V232.034C88.2732 232.818 87.6932 233.469 86.9947 233.469ZM12.7837 230.603H85.7161V174.885H12.7837V230.603Z" fill="#F3A769"/>
<path d="M162.319 233.469H86.8293C86.1308 233.469 85.5508 232.818 85.5508 232.034V173.455C85.5508 172.67 86.1308 172.019 86.8293 172.019H162.319C163.017 172.019 163.597 172.67 163.597 173.455V232.034C163.597 232.818 163.017 233.469 162.319 233.469ZM88.1077 230.603H161.04V174.885H88.1077V230.603Z" fill="#F3A769"/>
<path d="M2.05859 17.3705H171.765V27.6121H2.05859V17.3705Z" fill="#FFDFBF"/>
<path d="M171.418 28.4307H2.14642C1.44963 28.4307 0.871094 27.7906 0.871094 27.0244V16.839C0.871094 16.068 1.44963 15.4326 2.14642 15.4326H171.401C172.098 15.4326 172.677 16.068 172.677 16.839V27.0244C172.693 27.7906 172.115 28.4307 171.418 28.4307ZM3.42174 25.6181H170.126V18.2453H3.42174V25.6181Z" fill="#F3A769"/>
<path d="M2.05859 231.421H171.765V241.663H2.05859V231.421Z" fill="#FFDFBF"/>
<path d="M171.347 243.494H2.42503C1.72969 243.494 1.15234 242.848 1.15234 242.063V231.695C1.15234 230.915 1.72969 230.264 2.42503 230.264H171.33C172.025 230.264 172.603 230.915 172.603 231.695V242.063C172.619 242.867 172.042 243.494 171.347 243.494ZM3.69772 240.631H170.057V233.131H3.69772V240.631Z" fill="#F3A769"/>
<path d="M145.447 242.687L152.638 258.05H161.783V242.687H145.447Z" fill="#FFDFBF"/>
<path d="M161.353 259.821H152.377C151.884 259.821 151.446 259.517 151.239 259.018L144.185 242.962C143.978 242.524 144.012 241.987 144.252 241.568C144.488 241.15 144.897 240.898 145.335 240.898H161.37C162.066 240.898 162.643 241.549 162.643 242.334V258.39C162.626 259.17 162.049 259.821 161.353 259.821ZM153.174 256.958H160.081V243.765H147.371L153.174 256.958Z" fill="#F3A769"/>
<path d="M27.4688 242.687L20.6796 258.05H12.041V242.687H27.4688Z" fill="#FFDFBF"/>
<path d="M20.7177 259.821H11.7414C11.0461 259.821 10.4688 259.17 10.4688 258.39V242.334C10.4688 241.549 11.0461 240.898 11.7414 240.898H27.7722C28.2147 240.898 28.6235 241.15 28.8595 241.568C29.0955 241.987 29.1123 242.524 28.9269 242.962L21.8681 259.018C21.649 259.517 21.2065 259.821 20.7177 259.821ZM13.0141 256.958H19.917L25.7199 243.765H13.0141V256.958Z" fill="#F3A769"/>
<path d="M318.329 52.6251C328.003 42.951 328.003 27.2662 318.329 17.5922C308.655 7.91807 292.97 7.91805 283.296 17.5921C273.622 27.2662 273.622 42.951 283.296 52.6251C292.97 62.2992 308.655 62.2992 318.329 52.6251Z" fill="#C9E4FF"/>
<path d="M300.812 60.3024C286.92 60.3024 275.617 49.0001 275.617 35.1089C275.617 21.2178 286.92 9.91406 300.812 9.91406C314.705 9.91406 326.007 21.2164 326.007 35.1089C326.007 49.0015 314.703 60.3024 300.812 60.3024ZM300.812 10.7596C287.386 10.7596 276.463 21.6814 276.463 35.1089C276.463 48.5364 287.386 59.4568 300.812 59.4568C314.238 59.4568 325.161 48.535 325.161 35.1089C325.161 21.6829 314.238 10.7596 300.812 10.7596Z" fill="#4FA5FF"/>
<path d="M318.509 25.9908L296.492 36.2045L296.848 36.9715L318.865 26.7578L318.509 25.9908Z" fill="#4FA5FF"/>
<path d="M302.983 37.2586L303.48 36.5752L290.272 26.9505L289.774 27.6338L302.983 37.2586Z" fill="#4FA5FF"/>
<path d="M301.234 13.3018H300.389V15.6919H301.234V13.3018Z" fill="#4FA5FF"/>
<path d="M289.908 16.2229L291.103 18.2931L289.908 16.2229Z" fill="#C9E4FF"/>
<path d="M290.275 16.0159L289.543 16.4387L290.738 18.5086L291.47 18.0858L290.275 16.0159Z" fill="#4FA5FF"/>
<path d="M281.926 24.2065L283.996 25.4016L281.926 24.2065Z" fill="#C9E4FF"/>
<path d="M282.134 23.836L281.711 24.5682L283.781 25.7633L284.204 25.031L282.134 23.836Z" fill="#4FA5FF"/>
<path d="M281.396 34.6858H279.006V35.5314H281.396V34.6858Z" fill="#4FA5FF"/>
<path d="M281.926 46.0107L283.996 44.8157L281.926 46.0107Z" fill="#C9E4FF"/>
<path d="M283.793 44.4683L281.723 45.6633L282.145 46.3956L284.215 45.2006L283.793 44.4683Z" fill="#4FA5FF"/>
<path d="M289.908 53.9928L291.103 51.9226L289.908 53.9928Z" fill="#C9E4FF"/>
<path d="M290.695 51.6794L289.5 53.7495L290.232 54.1722L291.427 52.1021L290.695 51.6794Z" fill="#4FA5FF"/>
<path d="M301.234 54.5242H300.389V56.9143H301.234V54.5242Z" fill="#4FA5FF"/>
<path d="M311.713 53.9928L310.52 51.9226L311.713 53.9928Z" fill="#C9E4FF"/>
<path d="M310.881 51.7008L310.148 52.1235L311.344 54.1934L312.076 53.7707L310.881 51.7008Z" fill="#4FA5FF"/>
<path d="M319.696 46.0107L317.627 44.8157L319.696 46.0107Z" fill="#C9E4FF"/>
<path d="M318.163 41.6428L317.74 42.3784L319.82 43.5735L320.242 42.8378L318.163 41.6428Z" fill="#4FA5FF"/>
<path d="M322.619 34.6858H320.229V35.5314H322.619V34.6858Z" fill="#4FA5FF"/>
<path d="M319.696 24.2065L317.627 25.4016L319.696 24.2065Z" fill="#C9E4FF"/>
<path d="M322.3 24.1082L320.221 25.3032L320.643 26.0389L322.723 24.8438L322.3 24.1082Z" fill="#4FA5FF"/>
<path d="M311.713 16.2229L310.52 18.2875L311.713 16.2229Z" fill="#C9E4FF"/>
<path d="M311.296 15.9766L310.102 18.0466L310.834 18.4693L312.029 16.3992L311.296 15.9766Z" fill="#4FA5FF"/>
<path d="M272.439 104.6C274.171 110.865 274.846 114.03 276.471 116.962C277.779 119.323 290.978 133.456 292.173 135.055C293.367 136.655 291.506 139.454 292.173 141.587C292.839 143.72 294.372 145.269 295.439 145.802C296.505 146.335 294.172 141.987 294.972 141.987C295.772 141.987 298.187 150.3 299.083 150.504C300.301 150.782 303.611 145.066 303.211 142.567C302.999 141.244 300.428 136.07 298.563 133.271C296.697 130.471 294.159 122.389 292.173 118.862C290.186 115.335 284.477 112.397 284.068 111.698C282.701 109.365 280.501 100.515 280.501 100.515L272.439 104.6Z" fill="#FD9783"/>
<path d="M248.187 101.78C247.578 106.512 244.436 114.42 242.192 114.759C240.644 114.992 238.197 117.219 231.634 114.759C225.468 112.449 218.812 101.488 218.812 101.488L220.73 98.9946C220.73 98.9946 235.538 106.053 237.391 105.145C239.057 104.328 239.957 95.8518 239.957 95.8518L248.187 101.78Z" fill="#FD9783"/>
<path d="M220.727 98.9946C216.239 97.1019 208.858 99.4715 208.858 100.271C206.534 100.271 204.675 100.735 206.534 103.524C207.929 104.918 215.61 109.818 216.279 108.352C216.947 106.885 217.109 107.082 217.305 106.856C217.501 106.629 218.303 106.621 218.812 106.366C219.675 105.933 220.727 98.9946 220.727 98.9946Z" fill="#FD9783"/>
<path d="M242.46 216.748C245.158 227.545 247.567 245.541 246.971 248.54C246.374 251.539 234.666 256.332 233.166 258.132C231.667 259.933 249.776 259.307 251.78 259.307C254.314 259.307 258.002 256.934 256.731 254.582C256.032 253.288 255.802 252.02 255.802 250.864C255.802 248.198 259.989 223.992 257.857 212.529C256.318 204.273 242.46 216.748 242.46 216.748Z" fill="#FD9783"/>
<path d="M270.96 210.552C273.465 228.554 276.388 246.47 275.789 249.469C275.189 252.468 271.086 254.788 269.387 258.186C268.338 260.282 280.018 258.787 282.022 258.787C284.556 258.787 286.499 257.265 285.55 254.582C285.059 253.195 284.62 251.554 284.62 250.399C284.62 247.733 287.409 223.906 287.409 212.751C285.868 204.489 270.96 210.552 270.96 210.552Z" fill="#FD9783"/>
<path d="M249.83 113.364C244.182 135.13 243.702 144.734 242.56 155.116C242.56 163.512 239.952 201.715 242.559 220.464C243.111 224.431 288.654 221.086 289.97 219.286C290.763 218.209 288.451 203.696 284.619 176.961C282.873 158.146 279.679 151.054 278.576 144.891C275.342 126.757 269.249 113.364 269.249 113.364H249.83Z" fill="#005BBA"/>
<path d="M268.351 54.5245C263.616 51.6684 254.73 51.5036 253.942 57.3133C251.346 56.8486 246.041 59.6373 247.435 72.1868C246.844 74.058 241.951 70.0632 241.858 74.6319C241.765 79.2005 249.769 82.9077 251.346 82.0214C253.856 84.5817 257.846 82.4158 258.633 81.0376C259.421 79.6594 260.405 79.8555 261.194 81.1351C261.982 82.4147 264.443 83.1049 266.117 82.6085C267.791 82.1121 270.499 81.0331 268.012 74.6318C269.562 72.7606 269.356 71.1852 269.016 69.7084C268.676 68.2316 267.543 66.7549 268.012 66.0658C268.481 65.3767 270.675 67.074 275.323 61.4965C277.182 58.7078 273.077 53.7368 268.351 54.5245Z" fill="#172755"/>
<path d="M251.485 78.7737C248.992 78.887 245.238 79.397 243.438 81.4643C240.247 85.141 239.034 100.919 237.922 103.749C237.189 105.614 245.629 108.18 246.643 108.088C246.796 108.075 247.498 105.903 247.498 105.903C247.498 105.903 250.535 110.606 249.935 113.405C249.334 116.204 268.741 116.004 269.358 113.405C269.976 110.806 270.901 103.166 271.434 101.9C271.966 103.566 272.611 105.899 272.744 106.232C272.876 106.565 281.584 103.804 281.337 102.792C280.804 100.592 278.277 83.8296 274.423 81.1696C269.759 77.9463 258.833 79.7325 258.833 79.7325L251.485 78.7737Z" fill="#A3D1FF"/>
<path d="M255.833 67.3074C255.852 71.5655 256.421 74.8896 254.873 76.5659C252.474 79.1647 249.182 79.7417 249.182 79.7417C249.182 79.7417 250.681 88.3383 258.778 88.4381C266.875 88.5378 270.126 80.4398 270.126 80.4398C270.126 80.4398 262.644 79.2359 261.845 75.6363C261.513 74.1436 262.158 70.6498 262.286 67.6418C262.466 63.3928 255.823 64.9648 255.833 67.3074Z" fill="#FD9783"/>
<path d="M266.029 62.622C266.958 67.27 266.029 73.7771 263.705 73.7771C259.521 73.3123 259.521 70.0587 256.733 66.8052C255.289 68.1199 252.358 63.7433 253.014 63.0871C253.671 62.4309 254.873 63.0871 254.873 63.0871C254.873 63.0871 258.592 62.622 262.775 62.1572C265.099 62.1572 266.029 62.622 266.029 62.622Z" fill="#FD9783"/>
<path d="M292.282 258.747C292.47 259.475 291.92 260.184 291.169 260.184H264.381C263.613 260.184 263.049 259.485 263.263 258.747C263.297 258.643 263.329 258.532 263.359 258.414C264.349 255.184 267.066 248.666 272.946 248.666C276.574 248.666 278.872 250.291 280.294 252.035C282.043 254.18 284.387 256.236 287.154 256.236H289.284C290.629 256.236 291.813 257.123 292.192 258.414L292.282 258.747Z" fill="#4FA5FF"/>
<path d="M260.848 258.867C260.919 259.572 260.365 260.184 259.656 260.184H231.475C230.841 260.184 230.355 259.614 230.516 259.001C230.54 258.911 230.55 258.818 230.579 258.731C230.597 258.676 230.62 258.62 230.636 258.561C231.477 255.601 234.062 249.626 241.188 249.626C245.152 249.626 247.521 250.851 248.935 252.275C250.876 254.23 253.184 256.619 255.938 256.619H258.664C259.772 256.619 260.701 257.458 260.812 258.561L260.848 258.867Z" fill="#4FA5FF"/>
<path d="M237.093 252.5C237.062 252.493 237.035 252.477 237.015 252.453C236.995 252.43 236.984 252.4 236.984 252.37C236.984 252.339 236.995 252.31 237.015 252.286C237.035 252.262 237.062 252.246 237.093 252.24L240.465 252.09L237.45 251.01C237.418 250.998 237.392 250.976 237.376 250.948C237.36 250.919 237.354 250.886 237.36 250.854C237.369 250.824 237.388 250.798 237.414 250.78C237.44 250.762 237.471 250.754 237.503 250.756L240.888 251.022L239.103 249.867C239.078 249.849 239.06 249.823 239.051 249.794C239.043 249.765 239.044 249.734 239.056 249.705C239.068 249.677 239.09 249.653 239.118 249.639C239.147 249.626 239.179 249.622 239.21 249.63L243.57 250.589C243.59 250.589 243.61 250.594 243.628 250.603C243.646 250.612 243.662 250.624 243.674 250.64C243.687 250.655 243.695 250.673 243.7 250.693C243.704 250.712 243.704 250.732 243.7 250.751C243.695 250.77 243.686 250.788 243.674 250.803C243.661 250.819 243.646 250.831 243.627 250.84C243.609 250.849 243.59 250.854 243.569 250.854C243.549 250.855 243.529 250.851 243.511 250.843L239.841 250.034L241.435 251.085C241.46 251.102 241.478 251.126 241.488 251.155C241.498 251.183 241.498 251.213 241.488 251.241C241.477 251.267 241.458 251.289 241.433 251.304C241.409 251.32 241.381 251.328 241.352 251.328L238.437 251.097L241.161 252.078C241.189 252.09 241.212 252.11 241.227 252.136C241.241 252.162 241.247 252.192 241.242 252.221C241.237 252.25 241.222 252.277 241.2 252.297C241.178 252.317 241.15 252.329 241.12 252.332L237.081 252.505L237.093 252.5Z" fill="#08294A"/>
<path d="M267.839 252.505C267.804 252.506 267.769 252.493 267.743 252.472C267.717 252.45 267.701 252.42 267.697 252.388C267.696 252.354 267.708 252.321 267.732 252.295C267.756 252.269 267.79 252.252 267.827 252.248L272.096 251.889L268.919 251.099C268.883 251.095 268.85 251.078 268.828 251.051C268.806 251.025 268.797 250.992 268.802 250.959C268.807 250.927 268.826 250.897 268.855 250.877C268.883 250.857 268.92 250.848 268.956 250.853H272.448L270.017 249.867C269.99 249.853 269.968 249.831 269.956 249.804C269.944 249.777 269.942 249.748 269.95 249.72C269.959 249.692 269.977 249.668 270.003 249.651C270.028 249.634 270.059 249.625 270.091 249.626L274.286 250.046C274.323 250.05 274.357 250.067 274.381 250.093C274.405 250.119 274.418 250.152 274.416 250.186C274.413 250.203 274.407 250.22 274.398 250.234C274.389 250.249 274.376 250.262 274.361 250.273C274.346 250.283 274.329 250.291 274.311 250.295C274.293 250.3 274.274 250.301 274.255 250.298L270.955 249.968L273.163 250.864C273.193 250.875 273.217 250.895 273.231 250.921C273.246 250.946 273.25 250.976 273.244 251.004C273.238 251.033 273.221 251.059 273.196 251.077C273.171 251.096 273.14 251.105 273.108 251.105H270.023L272.935 251.828C272.967 251.835 272.995 251.853 273.014 251.878C273.033 251.902 273.043 251.932 273.04 251.962C273.037 251.992 273.023 252.021 272.999 252.042C272.975 252.064 272.944 252.077 272.91 252.08L267.876 252.505H267.839Z" fill="#08294A"/>
<path d="M262.078 65.0477C262.017 65.0296 261.964 64.9922 261.923 64.9397C261.882 64.8872 261.857 64.8218 261.849 64.751L261.731 63.6867C261.72 63.5884 261.746 63.4868 261.801 63.4043C261.856 63.3217 261.936 63.2649 262.025 63.2464C262.113 63.228 262.202 63.2493 262.271 63.3057C262.341 63.3621 262.386 63.449 262.396 63.5473L262.515 64.6116C262.52 64.6603 262.517 64.7104 262.505 64.7591C262.493 64.8077 262.473 64.8539 262.446 64.8949C262.418 64.9359 262.384 64.9709 262.346 64.9978C262.307 65.0248 262.264 65.0431 262.221 65.0518C262.173 65.0634 262.124 65.0619 262.078 65.0477Z" fill="#080C53"/>
<path d="M264.568 64.8159C264.512 64.8007 264.462 64.7676 264.424 64.7203C264.386 64.6731 264.362 64.6138 264.354 64.5492L264.251 63.5671C264.245 63.5229 264.248 63.4773 264.258 63.4328C264.268 63.3884 264.286 63.346 264.31 63.3083C264.334 63.2705 264.365 63.2381 264.4 63.2129C264.434 63.1876 264.473 63.1702 264.513 63.1615C264.594 63.1452 264.675 63.165 264.738 63.2164C264.802 63.2679 264.844 63.3469 264.854 63.4366L264.966 64.4125C264.975 64.5024 264.951 64.5951 264.901 64.6706C264.851 64.7461 264.777 64.7984 264.697 64.8162C264.654 64.8291 264.61 64.829 264.568 64.8159Z" fill="#080C53"/>
<path d="M261.992 69.8497C261.829 69.5609 262.065 69.2453 262.396 69.2487L264.286 69.2679C264.535 69.2705 264.744 69.4558 264.755 69.7047C264.784 70.3127 264.747 71.3564 264.171 71.4427C263.503 71.5427 262.501 70.7485 261.992 69.8497Z" fill="white"/>
<path d="M200.057 70.4558C202.354 72.736 206.511 77.4534 204.575 79.8906C201.928 83.1812 196.042 83.1812 193.738 81.1058C191.912 79.4605 192.848 73.3163 193.312 70.8654C195.543 71.5028 197.909 71.3591 200.057 70.4558Z" fill="#BC7551"/>
<path d="M199.082 100.822H191.473V72.5105H236.65V100.822H199.082Z" fill="#FBD5AF"/>
<path d="M233.99 72.5105V98.8898H191.504V100.822H236.682V72.5105H233.99Z" fill="#F2C294"/>
<path d="M193.273 70.8174C193.396 70.1347 193.486 69.7728 193.486 69.7728L198.649 69.1379C198.649 69.1379 199.224 69.6431 200.018 70.4419C197.87 71.3508 195.499 71.4828 193.273 70.8174Z" fill="#172755"/>
<path d="M201.425 63.7995C201.842 63.1599 202.13 62.437 202.274 61.6751C202.417 60.9132 202.411 60.1283 202.257 59.3688C201.321 59.509 200.432 59.8947 199.672 60.4909C198.913 61.0871 198.306 61.8748 197.907 62.7822C196.287 66.0319 201.425 63.7995 201.425 63.7995Z" fill="#8F563C"/>
<path d="M197.907 62.7823C198.305 61.8748 198.912 61.0871 199.672 60.4909C200.431 59.8948 201.32 59.509 202.257 59.3688C202.289 59.4917 202.315 59.6145 202.334 59.7306C201.526 59.9678 200.774 60.3838 200.129 60.951C199.483 61.5183 198.959 62.2239 198.591 63.0212C198.197 63.82 198.204 64.291 198.449 64.5368C197.694 64.4822 197.255 64.0794 197.907 62.7823Z" fill="#BC7551"/>
<path d="M194.234 62.14C194.234 62.14 193.725 60.5698 190.743 59.4092C190.743 59.4092 190.052 62.652 191.427 64.584C192.802 66.5161 194.234 62.14 194.234 62.14Z" fill="#8F563C"/>
<path d="M193.918 62.4335C193.918 62.4335 193.434 60.952 190.691 59.771C190.73 59.5252 190.762 59.3818 190.762 59.3818C193.744 60.5765 194.254 62.1126 194.254 62.1126C194.254 62.1126 193.55 64.2358 192.653 64.8434C193.197 64.119 193.625 63.3048 193.918 62.4335Z" fill="#BC7551"/>
<path d="M196.075 70.8997C199.721 70.8997 202.684 68.8994 202.684 66.4281C202.684 63.9567 199.721 61.9633 196.075 61.9633C192.428 61.9633 189.46 63.9636 189.46 66.4281C189.46 68.8926 192.422 70.8997 196.075 70.8997Z" fill="#BC7551"/>
<path d="M195.649 70.4079C199.302 70.4079 202.258 68.4145 202.258 65.9431C202.251 65.1918 201.995 64.4669 201.535 63.895C201.881 64.2062 202.162 64.5904 202.36 65.023C202.558 65.4556 202.668 65.9271 202.684 66.4073C202.684 68.8787 199.728 70.879 196.075 70.879C193.493 70.879 191.273 69.8823 190.182 68.4418C191.717 69.7807 193.661 70.48 195.649 70.4079Z" fill="#8F563C"/>
<path d="M193.595 66.742C193.595 67.0355 193.95 67.2745 194.383 67.2745C194.815 67.2745 195.17 67.0355 195.17 66.742C195.17 66.4484 194.821 66.2095 194.383 66.2095C193.944 66.2095 193.595 66.4484 193.595 66.742Z" fill="#172755"/>
<path d="M196.204 65.6285C196.205 65.695 196.219 65.7606 196.246 65.8205C196.274 65.8805 196.313 65.9334 196.361 65.9757C196.41 66.018 196.467 66.0485 196.527 66.0653C196.588 66.082 196.652 66.0845 196.714 66.0726C196.796 66.0525 196.871 66.0101 196.933 65.9496C196.992 65.8863 197.033 65.8057 197.049 65.7182C197.065 65.6306 197.056 65.54 197.023 65.4577C196.991 65.3776 196.937 65.3089 196.869 65.2596C196.799 65.2083 196.715 65.182 196.63 65.1845C196.519 65.1851 196.412 65.2317 196.333 65.3143C196.292 65.3545 196.26 65.4032 196.238 65.4572C196.215 65.5113 196.204 65.5696 196.204 65.6285Z" fill="#172755"/>
<path d="M192.403 65.4925C192.404 65.559 192.418 65.6245 192.446 65.6845C192.473 65.7444 192.512 65.7974 192.561 65.8397C192.609 65.8819 192.666 65.9125 192.727 65.9292C192.788 65.9459 192.851 65.9484 192.913 65.9365C192.995 65.9164 193.071 65.874 193.132 65.8136C193.192 65.7502 193.232 65.6697 193.248 65.5821C193.264 65.4946 193.255 65.404 193.223 65.3217C193.188 65.2408 193.135 65.1703 193.068 65.1168C192.996 65.0685 192.914 65.0425 192.829 65.0416C192.717 65.0451 192.611 65.0937 192.531 65.1775C192.452 65.2613 192.406 65.374 192.403 65.4925Z" fill="#172755"/>
<path d="M195.957 68.919C196.199 68.9168 196.441 68.894 196.68 68.8508V68.7142C195.77 68.8712 195.124 68.7142 194.744 68.3387C194.599 68.1393 194.498 67.9089 194.446 67.6635C194.395 67.4182 194.395 67.164 194.447 66.9187H194.318C194.265 67.2077 194.158 67.4825 194.003 67.7266C193.848 67.9706 193.647 68.1789 193.414 68.3387C193.186 68.435 192.94 68.4734 192.696 68.4509C192.452 68.4284 192.216 68.3455 192.007 68.209L191.949 68.3251C192.174 68.4731 192.429 68.5622 192.692 68.5848C192.956 68.6073 193.221 68.5628 193.466 68.4548C193.839 68.2351 194.129 67.8852 194.285 67.4649C194.292 67.8294 194.42 68.1798 194.647 68.4548C194.822 68.6247 195.03 68.7537 195.255 68.8337C195.481 68.9137 195.72 68.9427 195.957 68.919Z" fill="#172755"/>
<path d="M201.412 70.8995C199.185 70.8995 197.539 74.9206 200.469 75.6784C203.4 76.4362 204.09 70.8927 201.412 70.8995Z" fill="#BC7551"/>
<path d="M200.062 74.9817C202.114 75.5278 203.07 72.9678 202.54 71.3839C203.767 72.7083 202.882 76.3198 200.469 75.6917C200.13 75.6364 199.811 75.4846 199.547 75.2525C199.283 75.0204 199.084 74.7167 198.971 74.3741C199.272 74.6833 199.651 74.8943 200.062 74.9817Z" fill="#8F563C"/>
<path d="M190.569 70.4966C188.529 70.3464 188.633 74.8249 191.427 75.3711C194.222 75.9172 193.002 70.6809 190.569 70.4966Z" fill="#BC7551"/>
<path d="M190.898 74.8524C192.97 75.2552 192.835 72.4357 191.602 70.9065C193.28 72.1763 193.764 75.8287 191.421 75.3713C190.806 75.2564 190.251 74.9096 189.859 74.395C190.171 74.6247 190.525 74.7808 190.898 74.8524Z" fill="#8F563C"/>
<path d="M196.834 67.0082C197.519 66.9047 198.209 66.8455 198.9 66.8307C200.283 66.7966 201.665 66.9527 203.011 67.2949L203.514 67.4315L204.011 67.5885L204.502 67.7592L204.992 67.9366L204.515 67.7182L204.031 67.5202L203.534 67.3359L203.037 67.1857C202.363 66.9947 201.677 66.8578 200.984 66.7761C200.292 66.7012 199.595 66.6806 198.9 66.7146C198.205 66.7506 197.514 66.8488 196.834 67.0082Z" fill="#172755"/>
<path d="M197.055 67.7931C197.552 67.7931 198.049 67.8546 198.539 67.9228C199.03 67.9911 199.526 68.073 200.01 68.1891C200.495 68.3051 200.979 68.4417 201.45 68.5987L201.805 68.7216L202.147 68.8581L202.502 68.9946C202.611 69.0424 202.728 69.097 202.844 69.138L202.502 68.9605L202.153 68.7966L201.818 68.6396L201.469 68.5031C200.999 68.3211 200.518 68.1729 200.03 68.0594C199.538 67.9487 199.04 67.869 198.539 67.8204C198.045 67.7737 197.549 67.7645 197.055 67.7931Z" fill="#172755"/>
<path d="M196.88 68.5782C197.294 68.6493 197.704 68.7473 198.107 68.8718C198.907 69.1209 199.675 69.4765 200.391 69.93L200.656 70.1143L200.914 70.2918L201.172 70.4898C201.252 70.5611 201.336 70.6272 201.424 70.6878L201.191 70.4625L200.953 70.244L200.701 70.0392L200.443 69.8481C200.094 69.5846 199.722 69.356 199.333 69.1654C198.945 68.9855 198.544 68.8416 198.132 68.7353C197.721 68.6393 197.302 68.5867 196.88 68.5782Z" fill="#172755"/>
<path d="M192.672 66.8514C192.108 66.5448 191.521 66.289 190.916 66.0868C190.311 65.8825 189.692 65.7251 189.064 65.6158C188.434 65.5123 187.798 65.4598 187.16 65.4587H186.683H186.212L185.734 65.5134L185.269 65.5884L185.74 65.5475H186.212H187.16C188.421 65.5892 189.672 65.7979 190.884 66.1687C191.491 66.3614 192.088 66.5893 192.672 66.8514Z" fill="#172755"/>
<path d="M192.111 67.5056C191.548 67.3355 190.974 67.2055 190.395 67.1165C189.813 67.0334 189.226 66.9878 188.639 66.98C188.05 66.9755 187.462 67.012 186.877 67.0892L186.445 67.1507L186.012 67.2326L185.58 67.3281L185.154 67.4442L185.586 67.3623L186.019 67.294L186.458 67.2394L186.89 67.1916C188.051 67.0732 189.221 67.0732 190.382 67.1916C190.963 67.2872 191.537 67.3828 192.111 67.5056Z" fill="#172755"/>
<path d="M191.381 67.8952C190.95 67.8724 190.518 67.8906 190.09 67.9499C189.229 68.0684 188.392 68.3359 187.612 68.7418L187.328 68.8988L187.044 69.0695L186.773 69.2538L186.509 69.4518L186.818 69.2606L187.102 69.1036L187.393 68.9534L187.683 68.81C188.466 68.446 189.287 68.1825 190.129 68.025C190.557 67.9501 190.987 67.8999 191.42 67.8748L191.381 67.8952Z" fill="#172755"/>
<path d="M308.367 136.848C306.506 136.073 301.944 133.652 300.784 133.781C299.624 133.911 295.531 138.762 295.531 138.762L307.905 138.549L308.367 136.848Z" fill="#FD9783"/>
<path d="M364.561 189.37C364.92 193.265 365.254 204.93 365.488 217.28C365.543 220.235 368.777 225.034 368.82 227.97C369.027 242.059 365.891 253.021 365.66 253.776C365.829 254.716 366.478 259.969 365.085 259.969C362.693 259.969 355.558 259.407 351.242 259.407C349.944 259.407 350.131 258.459 351.541 257.825C354.697 256.404 360.675 253.095 361.106 251.421C361.34 250.528 353.938 223.598 353.058 219.56C352.419 216.627 349.13 196.305 348.545 192.459C346.903 192.497 363.654 189.728 364.561 189.37Z" fill="#FD9783"/>
<path d="M366.66 260.182H350.046C349.979 260.184 349.915 260.159 349.867 260.113C349.818 260.068 349.79 260.005 349.788 259.938V259.573C349.79 259.509 349.816 259.448 349.861 259.403C349.906 259.357 349.966 259.331 350.03 259.328L366.63 258.287C366.691 258.282 366.752 258.289 366.809 258.307C366.867 258.326 366.92 258.357 366.965 258.397C367.011 258.437 367.047 258.486 367.073 258.541C367.099 258.596 367.113 258.655 367.115 258.716V259.753C367.112 259.87 367.062 259.981 366.976 260.062C366.891 260.142 366.777 260.186 366.66 260.182Z" fill="#005BBA"/>
<path d="M351.933 257.644C351.504 256.792 356.232 254.764 356.67 254.657C360.565 253.717 365.756 259.343 363.559 259.343H357.437C356.699 257.635 352.396 257.51 351.933 257.644Z" fill="#005BBA"/>
<path d="M365.66 253.773C366.137 253.937 366.382 255.01 366.155 255.617C365.85 256.43 362.251 257.839 362.251 257.839L361.091 256.643C361.091 256.643 365.484 254.456 365.658 253.773H365.66Z" fill="#005BBA"/>
<path d="M332.696 252.61C334.027 251.052 332.891 224.671 332.891 218.816C332.891 213.689 334.605 196.077 335.911 191.046C337.157 191.116 349.101 196.345 350.148 196.087C349.138 199.198 347.059 208.427 344.897 218.632C344.475 220.62 346.24 225.945 345.819 227.967C342.777 242.556 337.732 253.794 337.752 254.056C337.907 255.993 339.608 259.592 338.236 259.592H321.9C320.939 259.592 321.713 258.317 323.109 257.98C326.42 256.093 331.07 254.514 332.696 252.61Z" fill="#FD9783"/>
<path d="M323.11 257.976C322.819 257.206 326.954 255.054 327.408 255C329.731 254.724 334.314 259.591 332.11 259.591H325.989C325.257 257.883 323.572 257.843 323.11 257.976Z" fill="#005BBA"/>
<path d="M339.029 260.183H320.999C320.93 260.186 320.862 260.163 320.81 260.117C320.757 260.071 320.725 260.007 320.719 259.938V259.573C320.725 259.506 320.756 259.444 320.805 259.398C320.855 259.353 320.92 259.328 320.987 259.328L339.003 258.288C339.066 258.28 339.13 258.285 339.191 258.302C339.252 258.32 339.309 258.349 339.359 258.389C339.408 258.429 339.449 258.479 339.478 258.535C339.508 258.591 339.526 258.653 339.531 258.716V259.753C339.526 259.814 339.51 259.874 339.482 259.929C339.454 259.983 339.416 260.032 339.369 260.072C339.322 260.112 339.268 260.142 339.21 260.161C339.152 260.18 339.09 260.188 339.029 260.183Z" fill="#005BBA"/>
<path d="M330.122 256.415C332.405 257.099 336.45 254.725 337.757 254.056C338.219 253.821 338.588 255.246 338.064 255.635C336.878 256.512 332.515 258.314 331.041 257.81C329.566 257.307 330.122 256.415 330.122 256.415Z" fill="#005BBA"/>
<path d="M333.47 203.579C336.09 188.895 339.754 170.715 339.955 166.527C339.955 166.527 350.9 162.925 356.265 175.097C357.608 178.138 350.464 195.968 348.123 206.418C346.687 206.655 337.343 204.988 333.47 203.579Z" fill="#005BBA"/>
<path d="M350.523 207.331C348.092 192.237 342.606 166 342.606 166C342.606 166 352.593 163.092 355.296 164.771C359.262 167.234 363.036 175.548 364.638 181.48C365.444 184.472 365.369 199.715 366.16 204.376C364.452 206.634 353.697 207.42 350.523 207.331Z" fill="#005BBA"/>
<path d="M340.791 133.196C340.629 133.168 327.716 140.52 324.588 141.354C321.592 142.16 309.356 137.166 306.985 136.217C305.387 135.576 303.849 137.309 304.349 137.767C305.183 138.53 316.303 149.787 324.671 149.504C329.857 149.329 345.532 141.444 346.122 139.892C346.517 138.845 342.993 133.585 340.791 133.196Z" fill="#FD9783"/>
<path d="M340.79 131.943C343.115 130.178 345.636 130.386 346.93 130.244C350.264 129.878 352.524 130.124 354.969 131.089C356.458 131.676 360.562 134.202 362.229 136.899C364.166 140.033 365.184 146.87 365.262 148.791C365.28 149.274 361.194 150.73 361.025 151.999C360.383 156.835 364.884 176.58 364.45 177.507C363.644 179.234 338.677 179.118 337.546 176.646C336.707 174.812 337.58 142.674 337.546 142.213C337.652 139.403 337.711 134.275 340.79 131.943Z" fill="#FBC331"/>
<path d="M343.637 116.226C342.116 115.42 338.686 111.257 339.06 109.209C340.112 103.453 353.528 109.741 356 111.413C357.828 112.649 359.904 118.08 359.359 120.052C358.526 123.047 354.612 126.433 353.807 126.291C349.263 125.478 344.858 116.872 343.637 116.226Z" fill="#172755"/>
<path d="M346.241 131.455C347.335 130.547 347.625 127.655 347.743 122.532C347.743 122.532 354.19 119.811 353.653 121.313C352.847 123.563 353.887 130.218 354.056 131.411C354.107 131.778 354.22 131.962 354.642 132.394C354.85 132.609 351.252 136.704 347.565 135.388C345.002 134.475 345.996 131.659 346.241 131.455Z" fill="#FD9783"/>
<path d="M353.983 122.15C354.508 121.886 354.671 121.218 354.981 121.061C355.539 120.78 356.286 121.593 355.888 122.712C355.537 123.695 354.495 124.984 353.447 124.579C351.183 128.655 348.353 129.002 345.514 128.526C342.893 128.086 342.564 124.361 342.563 122.24C342.563 117.588 343.825 115.811 344.002 115.733C344.047 115.712 350.115 114.462 352.851 116.932C353.379 117.408 353.085 121.48 353.313 121.892C353.597 122.409 353.894 122.195 353.983 122.15Z" fill="#FD9783"/>
<path d="M356.43 150.706C356.175 150.91 358.774 160.315 358.534 161.566C358.037 164.138 355.393 171.136 350.45 176.948C349.87 177.63 354.51 179.097 354.949 178.577C357.106 176.043 363.78 170.542 366.454 162.752C367.733 159.026 365.772 151.783 365.019 148.87C364.738 147.786 358.176 149.308 356.43 150.706Z" fill="#FD9783"/>
<path d="M341.451 131.494C341.451 131.494 331.058 137.909 330.84 138.256C330.622 138.602 332.183 146.166 333.536 147.307C334.248 147.905 340.782 143.322 340.782 143.322L341.451 131.494Z" fill="#FBC331"/>
<path d="M337.434 148.224H337.468C337.541 148.215 337.607 148.177 337.652 148.119C337.698 148.061 337.718 147.988 337.71 147.915C337.501 146.226 337.942 141.126 338.027 140.527C338.032 140.491 338.03 140.455 338.021 140.419C338.012 140.384 337.996 140.351 337.974 140.322C337.952 140.293 337.925 140.268 337.893 140.25C337.862 140.231 337.827 140.219 337.791 140.214C337.756 140.209 337.719 140.211 337.684 140.22C337.648 140.229 337.615 140.245 337.586 140.267C337.557 140.289 337.533 140.316 337.514 140.347C337.496 140.379 337.484 140.413 337.479 140.449C337.389 141.077 336.941 146.21 337.159 147.98C337.167 148.048 337.2 148.109 337.251 148.154C337.301 148.199 337.367 148.223 337.434 148.224Z" fill="#ED6412"/>
<path d="M355.864 151.034C355.901 151.034 355.937 151.026 355.97 151.012C356.038 150.984 356.092 150.93 356.12 150.862C356.148 150.794 356.148 150.717 356.119 150.649C355.352 148.812 354.747 146.91 354.313 144.966C354.196 144.475 354.103 144.085 354.005 143.775C353.983 143.705 353.934 143.647 353.869 143.613C353.804 143.579 353.728 143.572 353.658 143.594C353.588 143.616 353.53 143.665 353.496 143.731C353.462 143.796 353.455 143.872 353.477 143.942C353.569 144.233 353.66 144.613 353.774 145.095C354.215 147.068 354.828 148.998 355.608 150.863C355.629 150.913 355.665 150.957 355.71 150.987C355.756 151.017 355.809 151.033 355.864 151.034Z" fill="#ED6412"/>
<path d="M348.902 200.558C348.933 200.558 348.964 200.554 348.993 200.546C349.041 200.535 349.085 200.514 349.124 200.485C349.163 200.456 349.196 200.42 349.221 200.378C349.246 200.336 349.263 200.29 349.27 200.242C349.277 200.194 349.274 200.145 349.262 200.098C348.606 197.546 347.696 194.02 347.274 192.409C347.249 192.314 347.188 192.233 347.103 192.184C347.018 192.135 346.917 192.121 346.823 192.146C346.728 192.171 346.647 192.232 346.598 192.317C346.548 192.402 346.535 192.503 346.559 192.597C346.981 194.209 347.891 197.724 348.546 200.28C348.566 200.359 348.612 200.43 348.677 200.48C348.741 200.53 348.82 200.558 348.902 200.558Z" fill="#007AA9"/>
<path d="M354.961 178.423C354.972 178.431 354.98 178.444 354.984 178.457C354.988 178.471 354.987 178.486 354.982 178.499C354.779 179.049 352.751 184.333 350.112 185.002C349.526 185.149 344.924 183.709 344.752 182.609C344.69 182.255 344.678 181.893 344.716 181.535C344.719 181.517 344.729 181.502 344.744 181.492C344.759 181.482 344.776 181.478 344.794 181.481L344.99 181.511C345.055 181.52 345.122 181.507 345.178 181.472C345.775 181.085 346.3 180.597 346.728 180.029C346.792 179.945 346.834 179.846 346.848 179.741C346.862 179.636 346.848 179.529 346.809 179.431C346.769 179.333 346.704 179.247 346.621 179.182C346.538 179.116 346.439 179.074 346.335 179.058C345.918 178.996 345.539 178.941 345.404 178.924C345.173 178.894 347.573 176.76 348.118 176.496C349.273 175.938 349.783 176.765 352.639 176.62C352.656 176.619 352.672 176.624 352.685 176.633L354.961 178.423Z" fill="#FD9783"/>
<path d="M345.967 183.946C345.99 183.948 346.013 183.948 346.036 183.946C346.637 183.845 347.941 182.441 348.278 181.848C348.327 181.752 348.338 181.64 348.307 181.537C348.276 181.433 348.206 181.346 348.112 181.293C348.018 181.239 347.907 181.224 347.803 181.25C347.698 181.277 347.608 181.343 347.55 181.434C347.224 182.01 346.163 183.019 345.883 183.124C345.783 183.145 345.693 183.203 345.633 183.287C345.572 183.37 345.544 183.473 345.554 183.575C345.565 183.678 345.613 183.773 345.689 183.843C345.765 183.912 345.864 183.951 345.967 183.953V183.946Z" fill="#F6886A"/>
<path d="M347.529 184.581C347.602 184.581 347.673 184.562 347.737 184.525C348.592 184.029 349.189 183.427 349.824 182.748C349.865 182.708 349.897 182.661 349.919 182.609C349.941 182.556 349.952 182.5 349.951 182.443C349.951 182.387 349.939 182.331 349.916 182.279C349.893 182.227 349.86 182.18 349.819 182.141C349.777 182.102 349.728 182.073 349.675 182.053C349.622 182.034 349.565 182.026 349.508 182.029C349.452 182.032 349.396 182.047 349.346 182.072C349.295 182.097 349.25 182.132 349.213 182.176C348.498 182.938 348.004 183.401 347.318 183.799C347.238 183.846 347.175 183.917 347.14 184.002C347.105 184.088 347.099 184.182 347.123 184.271C347.147 184.36 347.2 184.439 347.273 184.495C347.347 184.551 347.436 184.581 347.529 184.581Z" fill="#F6886A"/>
<path d="M349.008 185.085C349.085 185.085 349.162 185.063 349.228 185.022L349.362 184.94C350.062 184.535 350.693 184.019 351.229 183.414C351.296 183.331 351.329 183.225 351.321 183.118C351.313 183.011 351.264 182.912 351.184 182.84C351.105 182.768 351.001 182.729 350.894 182.732C350.787 182.734 350.685 182.777 350.609 182.852C350.127 183.398 349.56 183.86 348.93 184.223L348.786 184.31C348.709 184.358 348.649 184.43 348.616 184.515C348.583 184.6 348.579 184.693 348.604 184.78C348.629 184.868 348.682 184.945 348.754 185C348.827 185.055 348.915 185.085 349.006 185.085H349.008Z" fill="#F6886A"/>
<path d="M346.729 119.133C346.789 119.115 346.843 119.078 346.884 119.025C346.924 118.973 346.95 118.907 346.958 118.836L347.076 117.772C347.086 117.674 347.061 117.572 347.006 117.49C346.951 117.407 346.87 117.35 346.782 117.332C346.694 117.313 346.605 117.335 346.535 117.391C346.466 117.447 346.421 117.534 346.41 117.633L346.292 118.697C346.287 118.746 346.29 118.796 346.302 118.844C346.313 118.893 346.334 118.939 346.361 118.98C346.388 119.021 346.422 119.056 346.461 119.083C346.5 119.11 346.542 119.128 346.586 119.137C346.634 119.149 346.683 119.147 346.729 119.133Z" fill="#080C53"/>
<path d="M344.238 118.901C344.294 118.886 344.344 118.853 344.382 118.806C344.42 118.758 344.445 118.699 344.453 118.635L344.556 117.652C344.561 117.608 344.559 117.563 344.549 117.518C344.539 117.474 344.521 117.431 344.497 117.394C344.472 117.356 344.442 117.323 344.407 117.298C344.372 117.273 344.334 117.256 344.294 117.247C344.213 117.231 344.132 117.25 344.068 117.302C344.005 117.353 343.963 117.432 343.953 117.522L343.841 118.498C343.832 118.588 343.855 118.68 343.906 118.756C343.956 118.831 344.029 118.884 344.11 118.902C344.153 118.914 344.197 118.914 344.238 118.901Z" fill="#080C53"/>
<path d="M346.815 123.935C346.978 123.646 346.742 123.331 346.41 123.334L344.521 123.353C344.272 123.356 344.063 123.541 344.051 123.79C344.023 124.398 344.06 125.442 344.636 125.528C345.303 125.628 346.306 124.834 346.815 123.935Z" fill="white"/>
</svg>
