<svg width="296" height="45" viewBox="0 0 296 45" fill="none" xmlns="http://www.w3.org/2000/svg">
<path d="M114.746 22.712L122.387 36H112.569L107.622 26.6615H105.186V36H96.4752V10.1621H105.186V19.796H107.844L113.344 10.1621H122.424L114.746 22.712ZM137.124 36.5906C134.343 36.5906 131.846 36.0123 129.631 34.8558C127.416 33.6992 125.682 32.0997 124.427 30.0573C123.172 27.9903 122.544 25.6649 122.544 23.0811C122.544 20.4973 123.172 18.1842 124.427 16.1418C125.682 14.0747 127.416 12.4629 129.631 11.3064C131.846 10.1498 134.343 9.57157 137.124 9.57157C139.905 9.57157 142.402 10.1498 144.617 11.3064C146.832 12.4629 148.566 14.0747 149.821 16.1418C151.076 18.1842 151.704 20.4973 151.704 23.0811C151.704 25.6649 151.076 27.9903 149.821 30.0573C148.566 32.0997 146.832 33.6992 144.617 34.8558C142.402 36.0123 139.905 36.5906 137.124 36.5906ZM137.124 29.5405C138.207 29.5405 139.179 29.2822 140.04 28.7654C140.926 28.224 141.627 27.4735 142.144 26.5138C142.661 25.5295 142.919 24.3853 142.919 23.0811C142.919 21.7769 142.661 20.6449 142.144 19.6852C141.627 18.7009 140.926 17.9504 140.04 17.4337C139.179 16.8923 138.207 16.6216 137.124 16.6216C136.041 16.6216 135.057 16.8923 134.171 17.4337C133.31 17.9504 132.621 18.7009 132.104 19.6852C131.587 20.6449 131.329 21.7769 131.329 23.0811C131.329 24.3853 131.587 25.5295 132.104 26.5138C132.621 27.4735 133.31 28.224 134.171 28.7654C135.057 29.2822 136.041 29.5405 137.124 29.5405ZM179.329 10.1621V36H170.765V16.9169H164.859L164.786 19.9067C164.687 23.5978 164.392 26.6245 163.9 28.9869C163.407 31.3492 162.546 33.1947 161.316 34.5236C160.085 35.8277 158.326 36.4798 156.038 36.4798C154.881 36.4798 153.651 36.3199 152.346 36L152.789 29.0238C153.109 29.0976 153.429 29.1345 153.749 29.1345C154.66 29.1345 155.349 28.7654 155.816 28.0272C156.308 27.289 156.64 26.3047 156.813 25.0743C156.985 23.8439 157.108 22.2321 157.182 20.2389L157.514 10.1621H179.329ZM197.033 36.5906C194.252 36.5906 191.754 36.0123 189.54 34.8558C187.325 33.6992 185.59 32.0997 184.335 30.0573C183.08 27.9903 182.453 25.6649 182.453 23.0811C182.453 20.4973 183.08 18.1842 184.335 16.1418C185.59 14.0747 187.325 12.4629 189.54 11.3064C191.754 10.1498 194.252 9.57157 197.033 9.57157C199.813 9.57157 202.311 10.1498 204.526 11.3064C206.74 12.4629 208.475 14.0747 209.73 16.1418C210.985 18.1842 211.613 20.4973 211.613 23.0811C211.613 25.6649 210.985 27.9903 209.73 30.0573C208.475 32.0997 206.74 33.6992 204.526 34.8558C202.311 36.0123 199.813 36.5906 197.033 36.5906ZM197.033 29.5405C198.115 29.5405 199.087 29.2822 199.949 28.7654C200.834 28.224 201.536 27.4735 202.053 26.5138C202.569 25.5295 202.828 24.3853 202.828 23.0811C202.828 21.7769 202.569 20.6449 202.053 19.6852C201.536 18.7009 200.834 17.9504 199.949 17.4337C199.087 16.8923 198.115 16.6216 197.033 16.6216C195.95 16.6216 194.966 16.8923 194.08 17.4337C193.218 17.9504 192.529 18.7009 192.013 19.6852C191.496 20.6449 191.238 21.7769 191.238 23.0811C191.238 24.3853 191.496 25.5295 192.013 26.5138C192.529 27.4735 193.218 28.224 194.08 28.7654C194.966 29.2822 195.95 29.5405 197.033 29.5405ZM236.386 16.9169H228.82V36H220.256V16.9169H212.689V10.1621H236.386V16.9169ZM252.039 36.5906C249.258 36.5906 246.761 36.0123 244.546 34.8558C242.331 33.6992 240.597 32.0997 239.342 30.0573C238.087 27.9903 237.459 25.6649 237.459 23.0811C237.459 20.4973 238.087 18.1842 239.342 16.1418C240.597 14.0747 242.331 12.4629 244.546 11.3064C246.761 10.1498 249.258 9.57157 252.039 9.57157C254.82 9.57157 257.317 10.1498 259.532 11.3064C261.747 12.4629 263.481 14.0747 264.736 16.1418C265.991 18.1842 266.619 20.4973 266.619 23.0811C266.619 25.6649 265.991 27.9903 264.736 30.0573C263.481 32.0997 261.747 33.6992 259.532 34.8558C257.317 36.0123 254.82 36.5906 252.039 36.5906ZM252.039 29.5405C253.122 29.5405 254.094 29.2822 254.955 28.7654C255.841 28.224 256.542 27.4735 257.059 26.5138C257.576 25.5295 257.834 24.3853 257.834 23.0811C257.834 21.7769 257.576 20.6449 257.059 19.6852C256.542 18.7009 255.841 17.9504 254.955 17.4337C254.094 16.8923 253.122 16.6216 252.039 16.6216C250.956 16.6216 249.972 16.8923 249.086 17.4337C248.225 17.9504 247.536 18.7009 247.019 19.6852C246.502 20.6449 246.244 21.7769 246.244 23.0811C246.244 24.3853 246.502 25.5295 247.019 26.5138C247.536 27.4735 248.225 28.224 249.086 28.7654C249.972 29.2822 250.956 29.5405 252.039 29.5405ZM287.804 22.712L295.444 36H285.626L280.68 26.6615H278.244V36H269.533V10.1621H278.244V19.796H280.901L286.401 10.1621H295.481L287.804 22.712Z" fill="#FEFEFE"/>
<ellipse cx="8.14991" cy="23.0697" rx="8.14991" ry="8.20742" fill="#EFBA1C"/>
<ellipse cx="32.5997" cy="23.0697" rx="8.14991" ry="8.20742" fill="#EFBA1C"/>
<ellipse cx="57.0494" cy="23.0697" rx="8.14991" ry="8.20742" fill="#EFBA1C"/>
<path d="M45.6395 23.0694C45.6395 29.4154 50.7479 34.5598 57.0494 34.5598V36.2013C49.8477 36.2013 44.0095 30.3219 44.0095 23.0694C44.0095 15.8168 49.8477 9.9375 57.0494 9.9375C63.9774 9.9375 69.6435 15.3784 70.0642 22.2486H88.0191V23.8901H68.4593V23.0694C68.4593 16.7234 63.3509 11.579 57.0494 11.579C50.7479 11.579 45.6395 16.7234 45.6395 23.0694Z" fill="#FEFEFE"/>
</svg>
