<svg width="119" height="60" viewBox="0 0 119 60" fill="none" xmlns="http://www.w3.org/2000/svg">
<path d="M10.7236 25L6.93111 17.8509L11.0287 15.4534L16.5213 25H10.7236ZM1.22057 25V9.74285H6.36441V25H1.22057ZM4.88229 19.4856V15.4316H10.6582V19.4856H4.88229ZM11.53 17.9163L6.80033 17.4368L11.1813 9.74285H16.5431L11.53 17.9163ZM25.2235 25.3487C23.9884 25.3487 22.8405 25.1526 21.7798 24.7602C20.7336 24.3679 19.8254 23.8158 19.0553 23.1038C18.2851 22.3772 17.6821 21.5272 17.2462 20.5536C16.8248 19.5801 16.6141 18.5193 16.6141 17.3714C16.6141 16.209 16.8248 15.1482 17.2462 14.1892C17.6821 13.2157 18.2851 12.3729 19.0553 11.6609C19.8254 10.9344 20.7336 10.3749 21.7798 9.9826C22.8405 9.59028 23.9884 9.39411 25.2235 9.39411C26.4731 9.39411 27.6211 9.59028 28.6673 9.9826C29.7135 10.3749 30.6216 10.9344 31.3918 11.6609C32.1619 12.3729 32.7576 13.2157 33.179 14.1892C33.6149 15.1482 33.8329 16.209 33.8329 17.3714C33.8329 18.5193 33.6149 19.5801 33.179 20.5536C32.7576 21.5272 32.1619 22.3772 31.3918 23.1038C30.6216 23.8158 29.7135 24.3679 28.6673 24.7602C27.6211 25.1526 26.4731 25.3487 25.2235 25.3487ZM25.2235 21.1857C25.703 21.1857 26.1462 21.0985 26.5531 20.9242C26.9745 20.7498 27.3377 20.5028 27.6429 20.1831C27.9625 19.8489 28.2096 19.4493 28.3839 18.9843C28.5583 18.5048 28.6455 17.9672 28.6455 17.3714C28.6455 16.7757 28.5583 16.2453 28.3839 15.7803C28.2096 15.3008 27.9625 14.9012 27.6429 14.5815C27.3377 14.2473 26.9745 13.9931 26.5531 13.8187C26.1462 13.6443 25.703 13.5571 25.2235 13.5571C24.744 13.5571 24.2936 13.6443 23.8722 13.8187C23.4653 13.9931 23.102 14.2473 22.7824 14.5815C22.4772 14.9012 22.2375 15.3008 22.0631 15.7803C21.8887 16.2453 21.8016 16.7757 21.8016 17.3714C21.8016 17.9672 21.8887 18.5048 22.0631 18.9843C22.2375 19.4493 22.4772 19.8489 22.7824 20.1831C23.102 20.5028 23.4653 20.7498 23.8722 20.9242C24.2936 21.0985 24.744 21.1857 25.2235 21.1857ZM36.3919 25.2833C36.0722 25.2833 35.7307 25.2616 35.3675 25.218C35.0042 25.1744 34.6192 25.1017 34.2123 25L34.4738 20.8806C34.6773 20.9242 34.8662 20.946 35.0405 20.946C35.6072 20.946 36.0286 20.7135 36.3047 20.2485C36.5808 19.7835 36.7697 19.1587 36.8714 18.374C36.9731 17.5749 37.0385 16.6812 37.0676 15.6931L37.2637 9.74285H50.1451V25H45.0885V12.6417L46.2001 13.7315H40.6421L41.6447 12.5763L41.5575 15.497C41.5139 16.9646 41.4122 18.3014 41.2524 19.5074C41.1071 20.6989 40.8528 21.7306 40.4895 22.6024C40.1263 23.4598 39.6104 24.1209 38.942 24.5859C38.2881 25.0509 37.4381 25.2833 36.3919 25.2833ZM60.5993 25.3487C59.3642 25.3487 58.2163 25.1526 57.1556 24.7602C56.1094 24.3679 55.2012 23.8158 54.4311 23.1038C53.661 22.3772 53.0579 21.5272 52.622 20.5536C52.2006 19.5801 51.9899 18.5193 51.9899 17.3714C51.9899 16.209 52.2006 15.1482 52.622 14.1892C53.0579 13.2157 53.661 12.3729 54.4311 11.6609C55.2012 10.9344 56.1094 10.3749 57.1556 9.9826C58.2163 9.59028 59.3642 9.39411 60.5993 9.39411C61.849 9.39411 62.9969 9.59028 64.0431 9.9826C65.0893 10.3749 65.9975 10.9344 66.7676 11.6609C67.5377 12.3729 68.1335 13.2157 68.5549 14.1892C68.9908 15.1482 69.2087 16.209 69.2087 17.3714C69.2087 18.5193 68.9908 19.5801 68.5549 20.5536C68.1335 21.5272 67.5377 22.3772 66.7676 23.1038C65.9975 23.8158 65.0893 24.3679 64.0431 24.7602C62.9969 25.1526 61.849 25.3487 60.5993 25.3487ZM60.5993 21.1857C61.0788 21.1857 61.522 21.0985 61.9289 20.9242C62.3503 20.7498 62.7135 20.5028 63.0187 20.1831C63.3384 19.8489 63.5854 19.4493 63.7597 18.9843C63.9341 18.5048 64.0213 17.9672 64.0213 17.3714C64.0213 16.7757 63.9341 16.2453 63.7597 15.7803C63.5854 15.3008 63.3384 14.9012 63.0187 14.5815C62.7135 14.2473 62.3503 13.9931 61.9289 13.8187C61.522 13.6443 61.0788 13.5571 60.5993 13.5571C60.1198 13.5571 59.6694 13.6443 59.248 13.8187C58.8411 13.9931 58.4779 14.2473 58.1582 14.5815C57.853 14.9012 57.6133 15.3008 57.4389 15.7803C57.2646 16.2453 57.1774 16.7757 57.1774 17.3714C57.1774 17.9672 57.2646 18.5048 57.4389 18.9843C57.6133 19.4493 57.853 19.8489 58.1582 20.1831C58.4779 20.5028 58.8411 20.7498 59.248 20.9242C59.6694 21.0985 60.1198 21.1857 60.5993 21.1857ZM74.3127 25V12.6199L75.4243 13.7315H69.8446V9.74285H83.8375V13.7315H78.2578L79.3694 12.6199V25H74.3127ZM93.0804 25.3487C91.8453 25.3487 90.6974 25.1526 89.6366 24.7602C88.5904 24.3679 87.6823 23.8158 86.9121 23.1038C86.142 22.3772 85.539 21.5272 85.1031 20.5536C84.6817 19.5801 84.471 18.5193 84.471 17.3714C84.471 16.209 84.6817 15.1482 85.1031 14.1892C85.539 13.2157 86.142 12.3729 86.9121 11.6609C87.6823 10.9344 88.5904 10.3749 89.6366 9.9826C90.6974 9.59028 91.8453 9.39411 93.0804 9.39411C94.33 9.39411 95.4779 9.59028 96.5241 9.9826C97.5703 10.3749 98.4785 10.9344 99.2486 11.6609C100.019 12.3729 100.615 13.2157 101.036 14.1892C101.472 15.1482 101.69 16.209 101.69 17.3714C101.69 18.5193 101.472 19.5801 101.036 20.5536C100.615 21.5272 100.019 22.3772 99.2486 23.1038C98.4785 23.8158 97.5703 24.3679 96.5241 24.7602C95.4779 25.1526 94.33 25.3487 93.0804 25.3487ZM93.0804 21.1857C93.5599 21.1857 94.0031 21.0985 94.4099 20.9242C94.8313 20.7498 95.1946 20.5028 95.4997 20.1831C95.8194 19.8489 96.0664 19.4493 96.2408 18.9843C96.4152 18.5048 96.5023 17.9672 96.5023 17.3714C96.5023 16.7757 96.4152 16.2453 96.2408 15.7803C96.0664 15.3008 95.8194 14.9012 95.4997 14.5815C95.1946 14.2473 94.8313 13.9931 94.4099 13.8187C94.0031 13.6443 93.5599 13.5571 93.0804 13.5571C92.6009 13.5571 92.1504 13.6443 91.729 13.8187C91.3222 13.9931 90.9589 14.2473 90.6392 14.5815C90.3341 14.9012 90.0943 15.3008 89.92 15.7803C89.7456 16.2453 89.6584 16.7757 89.6584 17.3714C89.6584 17.9672 89.7456 18.5048 89.92 18.9843C90.0943 19.4493 90.3341 19.8489 90.6392 20.1831C90.9589 20.5028 91.3222 20.7498 91.729 20.9242C92.1504 21.0985 92.6009 21.1857 93.0804 21.1857ZM112.913 25L109.121 17.8509L113.218 15.4534L118.711 25H112.913ZM103.41 25V9.74285H108.554V25H103.41ZM107.072 19.4856V15.4316H112.848V19.4856H107.072ZM113.72 17.9163L108.99 17.4368L113.371 9.74285H118.733L113.72 17.9163Z" fill="#FEFEFE"/>
<path d="M1.51053 39V34.8923H2.29686L4.04556 37.7912H3.62893L5.34829 34.8923H6.13462L6.14049 39H5.24853L5.24266 36.2596H5.41284L4.03383 38.5658H3.61132L2.20297 36.2596H2.40248V39H1.51053ZM6.69732 39L8.52818 34.8923H9.46708L11.3038 39H10.3062L8.80398 35.3735H9.17954L7.67143 39H6.69732ZM7.61275 38.1198L7.86508 37.398H9.97761L10.2358 38.1198H7.61275ZM11.8485 39V34.8923H14.7474L14.7415 35.6669H12.5703L12.7874 35.4498L12.7933 39H11.8485ZM14.0611 39L15.892 34.8923H16.8309L18.6676 39H17.67L16.1678 35.3735H16.5434L15.0353 39H14.0611ZM14.9766 38.1198L15.2289 37.398H17.3414L17.5996 38.1198H14.9766ZM18.8427 38.6362L19.1361 37.9555C19.3121 38.0611 19.4999 38.1433 19.6994 38.2019C19.9028 38.2567 20.1004 38.288 20.2921 38.2958C20.4877 38.2997 20.6637 38.2802 20.8202 38.2371C20.9806 38.1941 21.1078 38.1296 21.2017 38.0435C21.2995 37.9574 21.3484 37.8479 21.3484 37.7149C21.3484 37.5584 21.2838 37.443 21.1547 37.3687C21.0256 37.2904 20.8535 37.2513 20.6383 37.2513H19.6349V36.5354H20.5679C20.7596 36.5354 20.9082 36.4963 21.0139 36.418C21.1234 36.3398 21.1782 36.2322 21.1782 36.0953C21.1782 35.9779 21.1391 35.884 21.0608 35.8136C20.9826 35.7393 20.875 35.6845 20.7381 35.6493C20.6051 35.6141 20.4544 35.5984 20.2862 35.6023C20.118 35.6063 19.9439 35.6336 19.764 35.6845C19.584 35.7354 19.4119 35.8058 19.2476 35.8958L18.96 35.1622C19.2261 35.0253 19.5058 34.9314 19.7992 34.8806C20.0965 34.8258 20.3821 34.8121 20.6559 34.8395C20.9337 34.863 21.1841 34.9256 21.407 35.0273C21.63 35.1251 21.808 35.2542 21.941 35.4146C22.0741 35.575 22.1406 35.7647 22.1406 35.9838C22.1406 36.1794 22.0897 36.3535 21.988 36.506C21.8863 36.6586 21.7435 36.776 21.5596 36.8581C21.3797 36.9403 21.1723 36.9814 20.9376 36.9814L20.9611 36.7701C21.2349 36.7701 21.4716 36.8171 21.6711 36.9109C21.8745 37.0009 22.031 37.1281 22.1406 37.2924C22.254 37.4528 22.3107 37.6386 22.3107 37.8498C22.3107 38.0454 22.2579 38.2215 22.1523 38.378C22.0506 38.5305 21.9097 38.6596 21.7298 38.7653C21.5498 38.8709 21.3444 38.9491 21.1136 39C20.8828 39.0509 20.6364 39.0724 20.3742 39.0645C20.1161 39.0567 19.8559 39.0196 19.5938 38.9531C19.3317 38.8826 19.0813 38.777 18.8427 38.6362ZM23.0633 39V34.8923H24.0081V37.5682L25.9681 34.8923H26.86V39H25.9211V36.33L23.9611 39H23.0633ZM30.6995 34.8923H31.6501V39H30.6995V34.8923ZM28.8334 39H27.8828V34.8923H28.8334V39ZM30.7699 37.3158H28.763V36.5119H30.7699V37.3158ZM37.064 38.5775V35.6669H35.6556L35.638 36.2654C35.6263 36.5197 35.6087 36.7603 35.5852 36.9872C35.5656 37.2141 35.5343 37.4215 35.4913 37.6093C35.4483 37.7931 35.3915 37.9496 35.3211 38.0787C35.2546 38.2078 35.1705 38.2997 35.0688 38.3545L34.0536 38.2254C34.1944 38.2293 34.3099 38.1804 34.3998 38.0787C34.4937 37.977 34.568 37.8342 34.6228 37.6503C34.6776 37.4625 34.7167 37.2435 34.7402 36.9931C34.7676 36.7427 34.7871 36.4708 34.7989 36.1774L34.8458 34.8923H38.0029V38.5775H37.064ZM33.9186 39.8509L33.9245 38.2254H38.5779V39.8509H37.6977V39H34.7989V39.8509H33.9186ZM39.259 39.0645C39.1886 39.0645 39.1142 39.0587 39.036 39.0469C38.9616 39.0352 38.8795 39.0196 38.7895 39L38.8482 38.1961C38.903 38.2117 38.9597 38.2195 39.0184 38.2195C39.1788 38.2195 39.304 38.155 39.3939 38.0259C39.4839 37.8929 39.5485 37.7031 39.5876 37.4567C39.6267 37.2102 39.6521 36.9109 39.6639 36.5589L39.7226 34.8923H42.8796V39H41.9407V35.4498L42.1578 35.6669H40.3446L40.5382 35.438L40.503 36.5236C40.4913 36.9266 40.4639 37.2845 40.4209 37.5975C40.3778 37.9105 40.3113 38.1765 40.2213 38.3956C40.1314 38.6147 40.0081 38.7809 39.8516 38.8944C39.6952 39.0078 39.4976 39.0645 39.259 39.0645ZM46.2469 39V37.7031L46.4816 37.9085H45.355C44.999 37.9085 44.6919 37.8498 44.4337 37.7325C44.1755 37.6151 43.9779 37.4449 43.841 37.222C43.7041 36.999 43.6356 36.7329 43.6356 36.4239C43.6356 36.1031 43.708 35.8292 43.8527 35.6023C44.0014 35.3715 44.2087 35.1955 44.4747 35.0742C44.7408 34.9529 45.0537 34.8923 45.4136 34.8923H47.1858V39H46.2469ZM43.6473 39L44.6684 37.5271H45.6308L44.6508 39H43.6473ZM46.2469 37.398V35.4204L46.4816 35.6669H45.4371C45.1672 35.6669 44.9598 35.7295 44.8151 35.8547C44.6743 35.9799 44.6038 36.1657 44.6038 36.4122C44.6038 36.6508 44.6723 36.8347 44.8092 36.9638C44.9461 37.0929 45.1476 37.1574 45.4136 37.1574H46.4816L46.2469 37.398ZM50.7629 39V35.4498L50.98 35.6669H49.4543V34.8923H53.0163V35.6669H51.4905L51.7018 35.4498V39H50.7629ZM54.4875 36.5471H56.4651V37.2865H54.4875V36.5471ZM54.5579 38.2371H56.7937V39H53.6132V34.8923H56.7174V35.6552H54.5579V38.2371ZM57.1635 34.8923H58.2608L59.1117 36.1363L59.9626 34.8923H61.0775L59.7102 36.8581L61.189 39H60.0682L59.1117 37.6386L58.1669 39H57.0696L58.5366 36.8992L57.1635 34.8923ZM61.5099 39.9037L61.8972 38.4953L62.0263 39.0235C61.8581 39.0235 61.7192 38.9746 61.6096 38.8768C61.504 38.779 61.4512 38.644 61.4512 38.4719C61.4512 38.2997 61.506 38.1628 61.6155 38.0611C61.7251 37.9594 61.86 37.9085 62.0204 37.9085C62.1847 37.9085 62.3197 37.9613 62.4253 38.067C62.5309 38.1687 62.5838 38.3036 62.5838 38.4719C62.5838 38.5227 62.5798 38.5736 62.572 38.6244C62.5642 38.6714 62.5485 38.7301 62.5251 38.8005C62.5055 38.867 62.4723 38.9531 62.4253 39.0587L62.0908 39.9037H61.5099ZM67.6123 39L66.333 37.0224L67.1018 36.5589L68.692 39H67.6123ZM64.9423 39V34.8923H65.8871V39H64.9423ZM65.6113 37.3452V36.553H67.0431V37.3452H65.6113ZM67.1898 37.0518L66.3154 36.9462L67.6475 34.8923H68.651L67.1898 37.0518ZM69.9776 39V35.4498L70.1947 35.6669H68.669V34.8923H72.231V35.6669H70.7053L70.9165 35.4498V39H69.9776ZM74.7364 39.0704C74.4117 39.0704 74.1105 39.0176 73.8327 38.912C73.5589 38.8064 73.3202 38.6577 73.1168 38.466C72.9173 38.2743 72.7608 38.0494 72.6473 37.7912C72.5378 37.533 72.483 37.2513 72.483 36.9462C72.483 36.641 72.5378 36.3593 72.6473 36.1011C72.7608 35.8429 72.9192 35.618 73.1227 35.4263C73.3261 35.2346 73.5647 35.086 73.8386 34.9803C74.1124 34.8747 74.4097 34.8219 74.7305 34.8219C75.0552 34.8219 75.3525 34.8747 75.6225 34.9803C75.8963 35.086 76.133 35.2346 76.3325 35.4263C76.536 35.618 76.6944 35.8429 76.8078 36.1011C76.9213 36.3554 76.978 36.6371 76.978 36.9462C76.978 37.2513 76.9213 37.5349 76.8078 37.797C76.6944 38.0552 76.536 38.2802 76.3325 38.4719C76.133 38.6596 75.8963 38.8064 75.6225 38.912C75.3525 39.0176 75.0572 39.0704 74.7364 39.0704ZM74.7305 38.2606C74.9144 38.2606 75.0826 38.2293 75.2352 38.1667C75.3917 38.1041 75.5286 38.0142 75.646 37.8968C75.7633 37.7794 75.8533 37.6405 75.9159 37.4802C75.9824 37.3198 76.0156 37.1418 76.0156 36.9462C76.0156 36.7505 75.9824 36.5725 75.9159 36.4122C75.8533 36.2518 75.7633 36.1129 75.646 35.9955C75.5325 35.8782 75.3975 35.7882 75.2411 35.7256C75.0846 35.663 74.9144 35.6317 74.7305 35.6317C74.5467 35.6317 74.3765 35.663 74.22 35.7256C74.0674 35.7882 73.9325 35.8782 73.8151 35.9955C73.6977 36.1129 73.6058 36.2518 73.5393 36.4122C73.4767 36.5725 73.4454 36.7505 73.4454 36.9462C73.4454 37.1378 73.4767 37.3158 73.5393 37.4802C73.6058 37.6405 73.6958 37.7794 73.8092 37.8968C73.9266 38.0142 74.0635 38.1041 74.22 38.1667C74.3765 38.2293 74.5467 38.2606 74.7305 38.2606ZM81.3146 39.0704C80.9977 39.0704 80.7023 39.0196 80.4285 38.9178C80.1586 38.8122 79.9238 38.6636 79.7243 38.4719C79.5248 38.2802 79.3683 38.0552 79.2549 37.797C79.1453 37.5388 79.0906 37.2552 79.0906 36.9462C79.0906 36.6371 79.1453 36.3535 79.2549 36.0953C79.3683 35.8371 79.5248 35.6121 79.7243 35.4204C79.9277 35.2287 80.1644 35.082 80.4344 34.9803C80.7043 34.8747 80.9997 34.8219 81.3204 34.8219C81.6764 34.8219 81.9972 34.8845 82.2828 35.0097C82.5723 35.1309 82.8149 35.3109 83.0105 35.5495L82.4002 36.1129C82.2593 35.9525 82.1029 35.8332 81.9307 35.7549C81.7586 35.6728 81.5708 35.6317 81.3674 35.6317C81.1757 35.6317 80.9997 35.663 80.8393 35.7256C80.6789 35.7882 80.54 35.8782 80.4226 35.9955C80.3053 36.1129 80.2133 36.2518 80.1468 36.4122C80.0842 36.5725 80.0529 36.7505 80.0529 36.9462C80.0529 37.1418 80.0842 37.3198 80.1468 37.4802C80.2133 37.6405 80.3053 37.7794 80.4226 37.8968C80.54 38.0142 80.6789 38.1041 80.8393 38.1667C80.9997 38.2293 81.1757 38.2606 81.3674 38.2606C81.5708 38.2606 81.7586 38.2215 81.9307 38.1433C82.1029 38.0611 82.2593 37.9379 82.4002 37.7736L83.0105 38.3369C82.8149 38.5755 82.5723 38.7575 82.2828 38.8826C81.9972 39.0078 81.6745 39.0704 81.3146 39.0704ZM84.476 39V35.4498L84.6932 35.6669H83.1674V34.8923H86.7294V35.6669H85.2037L85.4149 35.4498V39H84.476ZM87.3263 39V34.8923H89.1043C89.4721 34.8923 89.789 34.9529 90.055 35.0742C90.321 35.1916 90.5264 35.3618 90.6711 35.5847C90.8159 35.8077 90.8883 36.0738 90.8883 36.3828C90.8883 36.688 90.8159 36.952 90.6711 37.175C90.5264 37.398 90.321 37.5701 90.055 37.6914C89.789 37.8088 89.4721 37.8674 89.1043 37.8674H87.8544L88.2769 37.4391V39H87.3263ZM88.2769 37.5447L87.8544 37.0929H89.0515C89.3449 37.0929 89.564 37.0303 89.7088 36.9051C89.8535 36.7799 89.9259 36.6058 89.9259 36.3828C89.9259 36.1559 89.8535 35.9799 89.7088 35.8547C89.564 35.7295 89.3449 35.6669 89.0515 35.6669H87.8544L88.2769 35.2151V37.5447ZM93.5385 39.0704C93.2138 39.0704 92.9126 39.0176 92.6348 38.912C92.361 38.8064 92.1223 38.6577 91.9189 38.466C91.7194 38.2743 91.5629 38.0494 91.4494 37.7912C91.3399 37.533 91.2851 37.2513 91.2851 36.9462C91.2851 36.641 91.3399 36.3593 91.4494 36.1011C91.5629 35.8429 91.7213 35.618 91.9248 35.4263C92.1282 35.2346 92.3668 35.086 92.6407 34.9803C92.9145 34.8747 93.2118 34.8219 93.5326 34.8219C93.8573 34.8219 94.1547 34.8747 94.4246 34.9803C94.6984 35.086 94.9351 35.2346 95.1346 35.4263C95.3381 35.618 95.4965 35.8429 95.61 36.1011C95.7234 36.3554 95.7801 36.6371 95.7801 36.9462C95.7801 37.2513 95.7234 37.5349 95.61 37.797C95.4965 38.0552 95.3381 38.2802 95.1346 38.4719C94.9351 38.6596 94.6984 38.8064 94.4246 38.912C94.1547 39.0176 93.8593 39.0704 93.5385 39.0704ZM93.5326 38.2606C93.7165 38.2606 93.8847 38.2293 94.0373 38.1667C94.1938 38.1041 94.3307 38.0142 94.4481 37.8968C94.5654 37.7794 94.6554 37.6405 94.718 37.4802C94.7845 37.3198 94.8178 37.1418 94.8178 36.9462C94.8178 36.7505 94.7845 36.5725 94.718 36.4122C94.6554 36.2518 94.5654 36.1129 94.4481 35.9955C94.3346 35.8782 94.1996 35.7882 94.0432 35.7256C93.8867 35.663 93.7165 35.6317 93.5326 35.6317C93.3488 35.6317 93.1786 35.663 93.0221 35.7256C92.8695 35.7882 92.7346 35.8782 92.6172 35.9955C92.4998 36.1129 92.4079 36.2518 92.3414 36.4122C92.2788 36.5725 92.2475 36.7505 92.2475 36.9462C92.2475 37.1378 92.2788 37.3158 92.3414 37.4802C92.4079 37.6405 92.4979 37.7794 92.6113 37.8968C92.7287 38.0142 92.8656 38.1041 93.0221 38.1667C93.1786 38.2293 93.3488 38.2606 93.5326 38.2606ZM96.5125 39V34.8923H97.4572V37.5682L99.4172 34.8923H100.309V39H99.3702V36.33L97.4103 39H96.5125ZM102.218 39V35.4498L102.435 35.6669H100.909V34.8923H104.471V35.6669H102.946L103.157 35.4498V39H102.218Z" fill="#FEFEFE"/>
<ellipse cx="4.01995" cy="53.477" rx="4.01995" ry="4.04832" fill="#EFBA1C"/>
<ellipse cx="16.0798" cy="53.477" rx="4.01995" ry="4.04832" fill="#EFBA1C"/>
<ellipse cx="28.1397" cy="53.477" rx="4.01995" ry="4.04832" fill="#EFBA1C"/>
<path d="M22.5118 53.4773C22.5118 56.6075 25.0315 59.145 28.1397 59.145V59.9546C24.5874 59.9546 21.7078 57.0546 21.7078 53.4773C21.7078 49.9 24.5874 47 28.1397 47C31.5569 47 34.3518 49.6837 34.5593 53.0725H43.4155V53.8821H33.7676V53.4773C33.7676 50.3472 31.2479 47.8097 28.1397 47.8097C25.0315 47.8097 22.5118 50.3472 22.5118 53.4773Z" fill="#FEFEFE"/>
</svg>
