<svg width="20" height="20" viewBox="0 0 20 20" fill="none" xmlns="http://www.w3.org/2000/svg">
<path fill-rule="evenodd" clip-rule="evenodd" d="M14.6177 16.032C13.0781 17.2636 11.1251 18 9.00012 18C4.02956 18 0.00012207 13.9706 0.00012207 9C0.00012207 4.02944 4.02956 0 9.00012 0C13.9707 0 18.0001 4.02944 18.0001 9C18.0001 11.1251 17.2636 13.0781 16.0319 14.6178L19.7071 18.2929C20.0976 18.6834 20.0976 19.3166 19.7071 19.7071C19.3166 20.0977 18.6834 20.0977 18.2929 19.7071L14.6177 16.032ZM2.00012 9C2.00012 5.13401 5.13413 2 9.00012 2C12.8661 2 16.0001 5.13401 16.0001 9C16.0001 10.8858 15.2544 12.5974 14.0418 13.8561C14.0074 13.8825 13.9744 13.9114 13.9429 13.9429C13.9114 13.9744 13.8825 14.0074 13.8561 14.0418C12.5974 15.2544 10.8858 16 9.00012 16C5.13413 16 2.00012 12.866 2.00012 9Z" fill="#000888"/>
</svg>
