<svg width="16" height="22" viewBox="0 0 16 22" fill="none" xmlns="http://www.w3.org/2000/svg">
<path fill-rule="evenodd" clip-rule="evenodd" d="M12 3.96424L11.8587 3.66389C11.1279 2.10312 9.63375 1.11719 7.99933 1.11719C6.36491 1.11719 4.8708 2.10312 4.14 3.66389L4 3.96424H12Z" stroke="#AEB3BF" stroke-linecap="round" stroke-linejoin="round"/>
<path d="M6.14229 11.2134C5.95351 11.0119 5.6371 11.0015 5.43556 11.1903C5.23402 11.3791 5.22368 11.6955 5.41246 11.897L6.14229 11.2134ZM7.63512 14.2699C7.8239 14.4715 8.14031 14.4818 8.34185 14.293C8.54339 14.1043 8.55374 13.7878 8.36496 13.5863L7.63512 14.2699ZM5.41246 15.9592C5.22368 16.1608 5.23402 16.4772 5.43556 16.666C5.6371 16.8547 5.95351 16.8444 6.14229 16.6428L5.41246 15.9592ZM8.36496 14.2699C8.55374 14.0684 8.54339 13.752 8.34185 13.5632C8.14031 13.3744 7.8239 13.3848 7.63512 13.5863L8.36496 14.2699ZM10.5876 11.897C10.7764 11.6955 10.7661 11.3791 10.5645 11.1903C10.363 11.0015 10.0466 11.0119 9.85779 11.2134L10.5876 11.897ZM7.63512 13.5863C7.44635 13.7878 7.45669 14.1043 7.65823 14.293C7.85977 14.4818 8.17618 14.4715 8.36496 14.2699L7.63512 13.5863ZM9.85779 16.6428C10.0466 16.8444 10.363 16.8547 10.5645 16.666C10.7661 16.4772 10.7764 16.1608 10.5876 15.9592L9.85779 16.6428ZM8.36496 13.5863C8.17618 13.3848 7.85977 13.3744 7.65823 13.5632C7.45669 13.752 7.44635 14.0684 7.63512 14.2699L8.36496 13.5863ZM14.6667 4.46387C14.9428 4.46387 15.1667 4.24001 15.1667 3.96387C15.1667 3.68772 14.9428 3.46387 14.6667 3.46387V4.46387ZM12 3.46387C11.7239 3.46387 11.5 3.68772 11.5 3.96387C11.5 4.24001 11.7239 4.46387 12 4.46387V3.46387ZM1.33337 3.46387C1.05723 3.46387 0.833374 3.68772 0.833374 3.96387C0.833374 4.24001 1.05723 4.46387 1.33337 4.46387V3.46387ZM4.00004 4.46387C4.27618 4.46387 4.50004 4.24001 4.50004 3.96387C4.50004 3.68772 4.27618 3.46387 4.00004 3.46387V4.46387ZM2.30968 20.0031L1.94477 20.3449H1.94477L2.30968 20.0031ZM1.33337 17.4868H1.83337H1.33337ZM5.41246 11.897L7.63512 14.2699L8.36496 13.5863L6.14229 11.2134L5.41246 11.897ZM6.14229 16.6428L8.36496 14.2699L7.63512 13.5863L5.41246 15.9592L6.14229 16.6428ZM9.85779 11.2134L7.63512 13.5863L8.36496 14.2699L10.5876 11.897L9.85779 11.2134ZM10.5876 15.9592L8.36496 13.5863L7.63512 14.2699L9.85779 16.6428L10.5876 15.9592ZM14.6667 3.46387H12V4.46387H14.6667V3.46387ZM1.33337 4.46387H4.00004V3.46387H1.33337V4.46387ZM2.44404 7.3108H13.556V6.3108H2.44404V7.3108ZM13.556 7.3108C13.863 7.3108 14.1667 7.5865 14.1667 7.99654H15.1667C15.1667 7.09684 14.4759 6.3108 13.556 6.3108V7.3108ZM14.1667 7.99654V17.4868H15.1667V7.99654H14.1667ZM14.1667 17.4868C14.1667 19.2073 12.8679 20.5454 11.3334 20.5454V21.5454C13.4808 21.5454 15.1667 19.697 15.1667 17.4868H14.1667ZM11.3334 20.5454H4.66671V21.5454H11.3334V20.5454ZM4.66671 20.5454C3.92621 20.5454 3.20886 20.2317 2.6746 19.6613L1.94477 20.3449C2.66075 21.1093 3.6391 21.5454 4.66671 21.5454V20.5454ZM2.6746 19.6613C2.13931 19.0898 1.83337 18.3082 1.83337 17.4868H0.833374C0.833374 18.553 1.22982 19.5817 1.94477 20.3449L2.6746 19.6613ZM1.83337 17.4868V7.99654H0.833374V17.4868H1.83337ZM1.83337 7.99654C1.83337 7.5865 2.13708 7.3108 2.44404 7.3108V6.3108C1.52419 6.3108 0.833374 7.09684 0.833374 7.99654H1.83337Z" fill="#AEB3BF"/>
</svg>
