<svg width="427" height="253" viewBox="0 0 427 253" fill="none" xmlns="http://www.w3.org/2000/svg">
<path d="M391.602 0.687012H202.52V153.297H391.602V0.687012Z" fill="#DFEFFF"/>
<path d="M391.601 154.256H201.559V0.687012H391.601V154.256ZM202.036 153.675H391.12V1.2686H202.039L202.036 153.675Z" fill="#08294A"/>
<path d="M264.778 5.94263H206.541V150.994H264.778V5.94263Z" fill="#DFEFFF"/>
<path d="M265.014 151.284H206.305V5.65234H265.014V151.284ZM206.776 150.703H264.543V6.23281H206.776V150.703Z" fill="#08294A"/>
<g style="mix-blend-mode:multiply" opacity="0.5">
<path d="M249.305 13.5774L212.738 58.6223V29.5665L225.718 13.5774H249.305Z" fill="#DFEFFF"/>
</g>
<g style="mix-blend-mode:multiply" opacity="0.5">
<path d="M212.738 70.816L258.581 14.3445V35.1303L212.738 91.6008V70.816Z" fill="#DFEFFF"/>
</g>
<g style="mix-blend-mode:multiply" opacity="0.5">
<path d="M250.293 143.36L258.581 133.15V143.36H250.293Z" fill="#DFEFFF"/>
</g>
<g style="mix-blend-mode:multiply" opacity="0.5">
<path d="M212.738 115.245L258.581 58.7732V107.957L229.841 143.36H212.738V115.245Z" fill="#DFEFFF"/>
</g>
<path d="M258.816 143.651H212.506V13.2874H258.819L258.816 143.651ZM212.974 143.07H258.342V13.8678H212.974V143.07Z" fill="#08294A"/>
<path d="M248.535 67.8591V65.7684C248.535 65.6808 248.563 65.5966 248.613 65.5341C248.663 65.4717 248.73 65.436 248.802 65.4349L262.761 65.1404C262.797 65.1397 262.833 65.1479 262.866 65.1644C262.899 65.1809 262.93 65.2054 262.956 65.2365C262.981 65.2677 263.002 65.3048 263.016 65.3457C263.029 65.3867 263.037 65.4306 263.037 65.475V68.1557C263.037 68.2 263.029 68.244 263.016 68.2849C263.002 68.3259 262.981 68.363 262.956 68.3941C262.93 68.4252 262.899 68.4498 262.866 68.4663C262.833 68.4828 262.797 68.4909 262.761 68.4902L248.802 68.1958C248.73 68.1941 248.662 68.1578 248.612 68.0948C248.562 68.0318 248.535 67.9471 248.535 67.8591Z" fill="#DFEFFF"/>
<path d="M262.764 68.7783H262.756L248.797 68.4838C248.664 68.4803 248.538 68.4129 248.445 68.2962C248.352 68.1795 248.299 68.0226 248.299 67.8591V65.7683C248.299 65.6049 248.352 65.4481 248.445 65.3316C248.538 65.215 248.664 65.1479 248.797 65.1446L262.756 64.8502C262.823 64.849 262.89 64.8644 262.952 64.8953C263.014 64.9262 263.071 64.972 263.119 65.0301C263.167 65.0883 263.205 65.1575 263.231 65.2339C263.256 65.3102 263.27 65.3922 263.27 65.4749V68.1556C263.27 68.3213 263.216 68.4802 263.121 68.5974C263.026 68.7146 262.897 68.7804 262.763 68.7804L262.764 68.7783ZM262.764 65.4306L248.805 65.7282C248.796 65.7288 248.787 65.7336 248.781 65.7419C248.774 65.7501 248.77 65.7611 248.77 65.7726V67.8633C248.77 67.869 248.771 67.8748 248.772 67.8802C248.774 67.8855 248.777 67.8904 248.78 67.8946C248.783 67.8987 248.787 67.902 248.792 67.9042C248.796 67.9065 248.8 67.9076 248.805 67.9076L262.763 68.2021C262.768 68.2024 262.773 68.2014 262.777 68.1993C262.782 68.1971 262.786 68.1937 262.789 68.1894C262.793 68.1853 262.795 68.1804 262.797 68.175C262.799 68.1695 262.8 68.1637 262.8 68.1577V65.4749C262.8 65.469 262.799 65.4631 262.797 65.4576C262.796 65.4522 262.793 65.4473 262.789 65.4433C262.786 65.4391 262.782 65.4358 262.778 65.4336C262.774 65.4315 262.769 65.4304 262.764 65.4306Z" fill="#08294A"/>
<path d="M325.522 5.94263H267.285V150.994H325.522V5.94263Z" fill="#DFEFFF"/>
<path d="M325.757 151.284H267.049V5.65234H325.757V151.284ZM267.52 150.703H325.286V6.23281H267.52V150.703Z" fill="#08294A"/>
<path d="M273.482 114.792L319.324 58.3235V71.6224L273.482 128.091V114.792Z" fill="#EFBA1C"/>
<g style="mix-blend-mode:multiply" opacity="0.5">
<path d="M319.324 13.5774V33.1316L273.482 89.5989V40.4158L295.271 13.5774H319.324Z" fill="#DFEFFF"/>
</g>
<g style="mix-blend-mode:multiply" opacity="0.5">
<path d="M275.477 143.36L319.324 89.3477V143.36H275.477Z" fill="#DFEFFF"/>
</g>
<g style="mix-blend-mode:multiply" opacity="0.5">
<path d="M276.077 13.5774L273.482 16.7731V13.5774H276.077Z" fill="#DFEFFF"/>
</g>
<path d="M319.56 143.651H273.25V13.2874H319.563L319.56 143.651ZM273.719 143.07H319.086V13.8678H273.719V143.07Z" fill="#08294A"/>
<path d="M271.259 83.0038H269.565C269.494 83.0036 269.426 82.9691 269.375 82.9077C269.325 82.8464 269.295 82.7631 269.294 82.6756L269.051 65.4802C269.05 65.4358 269.057 65.3918 269.07 65.3506C269.084 65.3094 269.104 65.2719 269.129 65.2402C269.154 65.2086 269.184 65.1835 269.217 65.1663C269.251 65.1492 269.286 65.1404 269.322 65.1404H271.497C271.533 65.1404 271.569 65.1492 271.602 65.1663C271.635 65.1835 271.665 65.2086 271.69 65.2402C271.716 65.2719 271.736 65.3094 271.749 65.3506C271.762 65.3918 271.769 65.4358 271.768 65.4802L271.529 82.6756C271.528 82.7631 271.499 82.8466 271.449 82.908C271.398 82.9694 271.33 83.0038 271.259 83.0038Z" fill="#DFEFFF"/>
<path d="M271.26 83.2941H269.566C269.433 83.2933 269.306 83.2286 269.211 83.1139C269.117 82.9991 269.062 82.8434 269.059 82.6799L268.82 65.4855C268.819 65.4028 268.832 65.3206 268.857 65.2438C268.882 65.1671 268.919 65.0972 268.966 65.0383C269.014 64.9793 269.07 64.9326 269.132 64.9006C269.194 64.8687 269.26 64.8523 269.328 64.8523H271.502C271.569 64.8523 271.636 64.8687 271.698 64.9006C271.76 64.9326 271.816 64.9793 271.863 65.0383C271.91 65.0972 271.947 65.1671 271.973 65.2438C271.998 65.3206 272.01 65.4028 272.009 65.4855L271.77 82.6799C271.767 82.8443 271.712 83.0008 271.617 83.1157C271.521 83.2306 271.393 83.2947 271.26 83.2941ZM269.323 65.4306C269.314 65.4307 269.305 65.4352 269.298 65.4433C269.291 65.452 269.287 65.4632 269.287 65.475L269.526 82.6704C269.527 82.6818 269.53 82.6926 269.537 82.7007C269.543 82.7087 269.552 82.7134 269.561 82.7136H271.26C271.269 82.7134 271.278 82.7088 271.284 82.7007C271.291 82.6927 271.295 82.6818 271.296 82.6704L271.536 65.475C271.536 65.4691 271.535 65.4633 271.534 65.4579C271.532 65.4524 271.529 65.4475 271.526 65.4433C271.519 65.4352 271.51 65.4307 271.5 65.4306H269.323Z" fill="#08294A"/>
<path d="M386.266 5.94263H328.029V150.994H386.266V5.94263Z" fill="#DFEFFF"/>
<path d="M386.503 151.284H327.795V5.65234H386.503V151.284ZM328.266 150.703H386.032V6.23281H328.266V150.703Z" fill="#08294A"/>
<g style="mix-blend-mode:multiply" opacity="0.5">
<path d="M380.07 87.9136V116.968L358.645 143.36H335.057L380.07 87.9136Z" fill="#DFEFFF"/>
</g>
<g style="mix-blend-mode:multiply" opacity="0.5">
<path d="M380.07 14.5188V68.6389L334.227 125.11V70.9903L380.07 14.5188Z" fill="#DFEFFF"/>
</g>
<path d="M366.445 13.5774L334.227 53.2651V39.9662L355.649 13.5774H366.445Z" fill="#EFBA1C"/>
<path d="M380.305 143.651H333.994V13.2874H380.308L380.305 143.651ZM334.463 143.07H379.831V13.8678H334.463V143.07Z" fill="#08294A"/>
<path d="M331.995 83.0038H330.297C330.226 83.0038 330.158 82.9694 330.107 82.908C330.056 82.8466 330.027 82.7631 330.026 82.6756L329.787 65.4802C329.787 65.4358 329.793 65.3918 329.807 65.3506C329.82 65.3094 329.84 65.2719 329.865 65.2402C329.89 65.2086 329.921 65.1835 329.954 65.1663C329.987 65.1492 330.023 65.1404 330.059 65.1404H332.233C332.269 65.1404 332.305 65.1492 332.338 65.1663C332.371 65.1835 332.401 65.2086 332.427 65.2402C332.452 65.2719 332.472 65.3094 332.485 65.3506C332.499 65.3918 332.505 65.4358 332.505 65.4802L332.266 82.6756C332.264 82.7631 332.235 82.8464 332.185 82.9077C332.134 82.9691 332.066 83.0036 331.995 83.0038Z" fill="#DFEFFF"/>
<path d="M331.993 83.2941H330.296C330.163 83.2933 330.036 83.2286 329.942 83.1139C329.847 82.9991 329.793 82.8434 329.79 82.6799L329.551 65.4855C329.55 65.4028 329.562 65.3206 329.587 65.2438C329.613 65.1671 329.65 65.0972 329.697 65.0383C329.744 64.9793 329.8 64.9326 329.862 64.9006C329.924 64.8687 329.991 64.8523 330.058 64.8523H332.232C332.3 64.8523 332.366 64.8687 332.428 64.9006C332.49 64.9326 332.546 64.9793 332.594 65.0383C332.641 65.0972 332.678 65.1671 332.703 65.2438C332.728 65.3206 332.741 65.4028 332.74 65.4855L332.501 82.6799C332.498 82.8435 332.443 82.9995 332.349 83.1142C332.254 83.229 332.126 83.2936 331.993 83.2941ZM330.058 65.4306C330.048 65.4307 330.039 65.4352 330.032 65.4433C330.029 65.4475 330.026 65.4524 330.025 65.4579C330.023 65.4633 330.022 65.4691 330.022 65.475L330.261 82.6704C330.261 82.6818 330.265 82.6926 330.272 82.7007C330.278 82.7087 330.287 82.7134 330.296 82.7136H331.993C332.003 82.7136 332.012 82.7091 332.019 82.701C332.025 82.6929 332.029 82.6819 332.029 82.6704L332.268 65.475C332.269 65.4691 332.268 65.4633 332.266 65.4578C332.264 65.4524 332.262 65.4475 332.258 65.4433C332.255 65.4392 332.251 65.4359 332.246 65.4337C332.242 65.4315 332.237 65.4305 332.232 65.4306H330.058Z" fill="#08294A"/>
<path d="M402.884 154.958H187.398V159.726H402.884V154.958Z" fill="#DFEFFF"/>
<path d="M403.119 160.015H187.162V154.668H403.119V160.015ZM187.633 159.435H402.648V155.248H187.633V159.435Z" fill="#08294A"/>
<path d="M397.707 195.798C397.741 195.731 397.647 195.674 397.606 195.738C396.522 197.347 395.716 199.086 395.034 200.897C394.7 201.778 394.396 202.667 394.115 203.559C393.174 201.958 391.896 200.586 390.036 200.065C388.368 199.596 386.68 199.836 385.117 200.443C385.121 200.372 385.072 200.301 384.986 200.335C384.063 200.683 383.201 201.272 382.391 201.827C381.608 202.359 380.85 202.933 380.119 203.537C378.499 204.886 377.176 206.506 375.62 207.919C374.795 208.669 373.892 209.337 373.093 210.117C372.343 210.844 371.687 211.654 371.046 212.471C369.674 214.211 368.346 215.988 367.004 217.75C365.411 219.838 363.84 221.945 362.295 224.068C362.246 224.135 362.359 224.217 362.408 224.154C365.216 220.671 367.927 217.109 370.656 213.566C371.98 211.845 373.4 210.334 375.073 208.947C376.666 207.627 377.975 206.03 379.501 204.639C380.348 203.867 381.236 203.147 382.166 202.476C382.845 201.988 383.572 201.564 384.273 201.103C385.942 200.406 387.794 200.091 389.564 200.578C391.693 201.167 392.874 202.832 393.77 204.736C393.601 205.344 393.44 205.951 393.302 206.57C392.398 210.604 391.881 214.751 391.682 218.879C391.573 221.147 391.566 223.423 391.959 225.665C391.813 226.216 393.077 226.497 392.889 225.631C392.447 223.603 392.379 221.529 392.424 219.46C392.465 217.42 392.6 215.388 392.803 213.36C393.065 210.735 393.504 208.111 394.111 205.531C394.816 207.35 395.045 209.243 395.052 211.211C395.06 213.562 394.962 215.917 394.91 218.267C394.88 219.595 394.846 220.918 394.816 222.245C394.801 222.909 394.782 223.573 394.767 224.236C394.752 224.896 394.64 225.612 394.861 226.25C395.019 226.699 395.589 226.673 395.757 226.25C395.99 225.65 395.911 224.967 395.922 224.334C395.93 223.67 395.941 223.006 395.949 222.347C395.967 221.087 395.986 219.823 396.005 218.564C396.046 216.022 396.147 213.472 396.102 210.926C396.057 208.557 395.559 206.296 394.46 204.185C394.456 204.178 394.453 204.17 394.449 204.159C394.651 203.383 394.861 202.611 395.101 201.842C395.757 199.754 396.702 197.744 397.707 195.798Z" fill="#C9E4FF"/>
<path d="M382.971 220.993C382.971 220.993 393.255 223.022 408.008 221.803C408.008 221.803 408.818 239.35 404.488 250.099H385.138C385.138 250.099 380.264 239.653 382.971 220.993Z" fill="#C9E4FF"/>
<path d="M395.203 206.817C392.657 201.388 383.513 201.643 383.513 201.643C383.764 198.696 380.978 193.237 374.833 191.655C371.549 190.811 368.253 193.203 365.749 196.653C371.264 196.499 377.51 197.163 378.376 199.877C379.314 202.805 376.288 200.151 372.179 199.112C369.056 198.329 366.454 198.28 364.193 199.105C363.844 199.735 363.526 200.376 363.233 201.024C368.07 201.707 372.775 203.116 373.229 205.557C373.787 208.579 371.122 205.565 367.174 204.024C365.498 203.368 363.957 202.963 362.509 202.828C362.045 204.136 361.707 205.434 361.542 206.637C361.448 207.293 361.37 208.017 361.302 208.785C364.77 209.059 367.665 209.876 368.28 211.639C369.296 214.537 366.199 211.965 362.063 211.039C361.752 210.971 361.448 210.911 361.145 210.855C361.051 212.385 360.991 214.012 360.95 215.624C362.206 215.86 363.162 216.329 363.612 217.124C364.673 218.991 363.282 218.59 360.905 218.117C360.849 222.928 360.957 227.014 360.957 227.014C361.61 226.568 363.889 225.953 366.9 225.256C367.211 221.608 366.416 218.683 368.505 220.502C369.416 221.293 369.599 222.826 369.341 224.705C370.949 224.352 372.674 223.985 374.417 223.617C374.417 222.939 374.383 222.234 374.308 221.492C373.896 217.277 371.718 213.892 374.473 215.249C376.254 216.126 376.663 219.433 376.419 223.19C377.582 222.943 378.733 222.695 379.85 222.451C380.48 220.524 380.555 218.29 380.153 215.643C379.516 211.455 377.165 208.189 379.989 209.4C382.561 210.506 382.665 216.569 382.024 221.968C383.333 221.672 384.555 221.383 385.635 221.109C386.31 220.937 386.958 220.727 387.581 220.483C388.016 218.215 387.618 215.733 386.482 212.861C384.926 208.92 381.901 206.262 384.926 206.813C387.817 207.338 389.283 213.802 389.808 219.411C394.851 216.468 397.25 211.174 395.203 206.817ZM393.546 213.194C392.908 214.214 392.121 209.861 393.542 209.678C394.232 209.591 394.179 212.171 393.546 213.194Z" fill="#C9E4FF"/>
<path d="M401.92 222.999C403.063 218.508 405.084 213.442 407.502 213.386C410.029 213.326 407.232 215.096 405.459 218.099C404.169 220.289 403.528 222.257 403.592 224.158C404.068 224.432 404.567 224.686 405.095 224.915C405.935 225.275 406.895 225.665 407.919 226.074C408.091 221.605 408.95 216.689 411.18 216.119C413.632 215.493 411.3 217.848 410.251 221.17C409.583 223.273 409.358 225.099 409.624 226.745C410.502 227.086 411.405 227.435 412.32 227.783C412.605 224.698 413.359 222.062 414.918 221.578C417.333 220.825 415.128 223.299 414.251 226.674C414.097 227.266 413.977 227.836 413.891 228.387C415.263 228.908 416.621 229.429 417.88 229.92C417.91 228.361 418.259 227.139 419.099 226.61C421.026 225.403 420.01 227.675 419.796 230.682C422.154 231.634 423.924 232.425 424.4 232.871C424.4 232.871 425.011 229.561 425.581 225.646C423.59 225.725 422.406 225.871 423.504 224.492C423.973 223.903 424.809 223.644 425.862 223.61C426.035 222.294 426.192 220.967 426.312 219.711C426.061 219.719 425.806 219.726 425.544 219.745C422.064 219.966 419.219 221.661 420.415 219.434C421.138 218.08 423.598 217.784 426.451 218.009C426.496 217.375 426.522 216.779 426.534 216.232C426.549 215.231 426.444 214.136 426.23 213.011C425.038 212.936 423.733 213.068 422.286 213.386C418.881 214.136 416.328 216.243 417.168 213.859C417.85 211.932 421.855 211.388 425.874 211.455C425.72 210.889 425.544 210.327 425.341 209.772C423.605 208.812 421.487 208.516 418.848 208.756C415.376 209.071 412.575 210.844 413.711 208.583C414.765 206.488 419.924 206.75 424.389 207.575C422.796 204.456 420.422 202.086 417.644 202.356C412.448 202.855 409.486 206.938 409.31 209.363C409.31 209.363 401.912 207.987 399.145 212.074C396.926 215.355 398.197 219.962 401.92 222.999ZM400.131 214.612C401.26 214.942 400.064 218.38 399.678 217.469C399.292 216.558 399.58 214.451 400.131 214.612Z" fill="#C9E4FF"/>
<path d="M412.157 198.947C407.579 199.697 402.127 199.877 401.108 197.688C400.039 195.397 402.783 197.249 406.248 197.669C408.771 197.973 410.829 197.774 412.547 196.957C412.61 196.409 412.644 195.851 412.64 195.277C412.637 194.358 412.61 193.327 412.573 192.225C408.407 193.86 403.556 195.037 402.139 193.222C400.586 191.228 403.676 192.42 407.144 192.053C409.337 191.82 411.103 191.295 412.505 190.392C412.468 189.454 412.423 188.487 412.378 187.512C409.435 188.487 406.716 188.851 405.648 187.617C403.991 185.705 407.14 186.732 410.586 186.185C411.189 186.088 411.763 185.971 412.299 185.829C412.232 184.363 412.164 182.916 412.112 181.562C410.668 182.158 409.408 182.331 408.587 181.772C406.705 180.49 409.198 180.512 412.04 179.504C411.969 176.966 411.984 175.023 412.205 174.412C412.205 174.412 408.925 175.177 405.108 176.223C405.978 178.015 406.585 179.039 404.879 178.585C404.152 178.394 403.578 177.73 403.128 176.778C401.854 177.146 400.571 177.535 399.372 177.929C399.48 178.158 399.589 178.387 399.709 178.619C401.31 181.716 404.002 183.643 401.479 183.441C399.949 183.317 398.693 181.187 397.752 178.484C397.156 178.698 396.597 178.911 396.095 179.121C395.169 179.508 394.205 180.044 393.26 180.689C393.673 181.81 394.314 182.949 395.184 184.149C397.235 186.965 400.193 188.461 397.669 188.645C395.63 188.794 393.527 185.345 391.978 181.637C391.521 182.005 391.075 182.395 390.647 182.799C390.463 184.772 391.041 186.83 392.316 189.151C393.999 192.206 396.743 194.062 394.216 193.927C391.873 193.8 390.047 188.971 389.016 184.55C386.793 187.261 385.571 190.38 386.928 192.817C389.47 197.377 394.4 198.456 396.695 197.643C396.695 197.643 398.393 204.969 403.248 205.865C407.148 206.585 410.863 203.574 412.157 198.947ZM405.183 203.949C405.033 202.779 408.666 202.498 407.984 203.218C407.301 203.938 405.258 204.515 405.183 203.949Z" fill="#C9E4FF"/>
<path d="M410.063 176.385C408.886 177.217 408.11 178.398 407.36 179.605C406.442 181.09 405.527 182.578 404.642 184.086C403.757 185.593 402.887 187.107 402.029 188.63C401.17 190.156 400.416 191.73 399.584 193.267C399.58 193.279 399.584 193.29 399.584 193.297C399.565 193.305 399.547 193.316 399.539 193.335C398.602 195.06 397.481 196.638 396.453 198.303C395.377 200.05 394.601 201.943 393.769 203.814C393.627 204.137 394.091 204.335 394.223 204.002C394.984 202.071 395.82 200.14 396.903 198.363C397.878 196.766 399.164 195.255 399.712 193.44C399.742 193.436 399.768 193.421 399.787 193.384C400.585 191.906 401.481 190.478 402.302 189.012C403.138 187.516 403.989 186.028 404.852 184.543C405.699 183.092 406.543 181.637 407.405 180.19C408.189 178.878 408.939 177.468 410.161 176.505C410.228 176.452 410.138 176.332 410.063 176.385Z" fill="#C9E4FF"/>
<path d="M417.736 220.356C415.786 218.661 414.29 216.633 413.12 214.338C412.547 213.214 411.969 212.115 411.171 211.133C410.803 210.675 410.391 210.259 409.948 209.873C409.562 209.532 409.187 209.142 408.651 209.131C408.692 209.022 408.647 208.876 408.49 208.868C408.287 208.861 408.081 208.853 407.875 208.842C407.774 208.835 407.676 208.827 407.575 208.831C407.466 208.835 407.346 208.842 407.268 208.913C407.193 208.951 407.084 208.951 407.084 209.06C407.084 209.168 407.193 209.168 407.268 209.202C407.346 209.277 407.466 209.284 407.575 209.288C407.676 209.292 407.774 209.284 407.875 209.277C408.081 209.266 408.287 209.258 408.49 209.251C408.516 209.247 408.527 209.232 408.55 209.225C408.55 209.225 408.546 209.225 408.55 209.225C408.741 209.738 409.21 209.982 409.603 210.334C410.061 210.743 410.488 211.185 410.886 211.654C411.737 212.655 412.322 213.817 412.967 214.957C414.151 217.057 415.756 218.943 417.597 220.495C417.694 220.573 417.829 220.439 417.736 220.356Z" fill="#C9E4FF"/>
<path d="M334.266 87.6908C337.47 87.6908 339.673 98.1032 341.764 97.3583C342.773 97.0024 339.693 86.5107 342.066 86.5107C343.355 86.5107 343.863 88.6867 345.276 92.2385C346.022 91.7623 346.663 89.7573 347.015 89.6932C347.704 89.5677 348.861 92.9638 349.498 93.1124C350.245 93.2904 350.199 90.4167 350.966 90.4167C353.311 90.4167 353.169 102.452 357.574 119.471C358.162 121.743 358.403 122.919 359.249 125.352C361.029 130.475 375.357 133.19 385.032 130.609C390.447 129.163 389.009 132.611 385.032 133.812C381.67 134.828 370.085 136.225 361.501 132.197C365.546 143.856 369.572 152.941 367.019 152.941C363.582 152.941 356.302 134.288 354.536 133.887C352.769 133.487 357.504 152.941 354.536 152.941C350.753 152.941 341.323 113.596 339.973 109.156C338.252 103.483 331.059 87.6908 334.266 87.6908Z" fill="#BC7551"/>
<path d="M354.538 153.342C354.686 153.342 354.833 153.31 354.967 153.247C355.101 153.184 355.22 153.093 355.316 152.979C356.384 151.767 355.916 147.358 355.138 141.262C354.791 138.547 354.367 135.215 354.577 134.363C355.27 134.969 356.986 138.306 358.382 141.021C362.093 148.235 364.885 153.342 367.015 153.342C367.193 153.35 367.371 153.312 367.531 153.232C367.691 153.153 367.829 153.034 367.931 152.888C368.866 151.553 367.463 147.526 364.46 139.276C363.755 137.341 362.966 135.178 362.182 132.938C370.814 136.566 381.95 135.163 385.142 134.196C387.522 133.477 389.256 131.897 388.929 130.746C388.771 130.193 388.039 129.389 384.924 130.221C380.393 131.431 374.536 131.525 369.256 130.477C364.005 129.433 360.404 127.468 359.623 125.22C358.948 123.282 358.665 122.159 358.272 120.606C358.176 120.225 358.074 119.819 357.958 119.37C355.923 111.507 354.853 104.665 354.072 99.6695C353.068 93.2422 352.564 90.0162 350.962 90.0162C350.27 90.0162 350.05 90.8794 349.837 91.7142C349.762 92.0061 349.645 92.4644 349.537 92.662C349.326 92.4288 348.973 91.7649 348.729 91.3057C348.071 90.0713 347.596 89.1778 346.939 89.2989C346.59 89.3629 346.392 89.7438 346.032 90.438C345.849 90.8088 345.644 91.1679 345.417 91.5131C345.233 91.0405 345.061 90.5946 344.912 90.187C343.955 87.6444 343.378 86.1102 342.064 86.1102C341.91 86.1085 341.757 86.141 341.616 86.2055C341.476 86.27 341.351 86.3648 341.252 86.4831C340.44 87.4175 340.728 89.9539 341.223 93.4309C341.412 94.7507 341.668 96.5324 341.545 96.996H341.539C340.891 96.996 339.825 94.7765 339.037 93.1354C337.656 90.2618 336.229 87.2902 334.265 87.2902C334.086 87.2848 333.909 87.3247 333.749 87.4062C333.59 87.4878 333.454 87.6083 333.354 87.7566C332.255 89.3514 334.307 95.0898 337.327 103.024C338.253 105.458 339.128 107.756 339.588 109.269C339.833 110.07 340.344 112.028 341.052 114.743C342.577 120.579 345.127 130.344 347.624 138.423C351.711 151.646 353.464 153.342 354.538 153.342ZM354.484 133.48C354.336 133.48 354.193 133.536 354.085 133.637C353.492 134.175 353.686 136.183 354.346 141.364C354.886 145.605 355.626 151.416 354.715 152.45C354.694 152.478 354.668 152.5 354.637 152.516C354.606 152.531 354.571 152.539 354.537 152.539C354.401 152.539 353.636 152.343 351.998 148.49C350.977 146.088 349.764 142.622 348.393 138.184C345.901 130.123 343.353 120.367 341.831 114.539C341.119 111.819 340.607 109.854 340.358 109.034C339.89 107.495 339.011 105.184 338.079 102.736C336.95 99.7691 335.67 96.4051 334.823 93.6383C333.605 89.6637 333.796 88.5308 334.022 88.2096C334.048 88.1684 334.086 88.1354 334.13 88.1142C334.175 88.093 334.224 88.0844 334.273 88.0894C335.733 88.0894 337.169 91.0788 338.323 93.4807C339.589 96.1185 340.59 98.1975 341.905 97.7338C342.59 97.49 342.446 96.2779 342.024 93.3161C341.708 91.0912 341.229 87.737 341.864 87.0055C341.888 86.974 341.92 86.9488 341.956 86.9321C341.993 86.9154 342.032 86.9076 342.072 86.9093C342.834 86.9093 343.366 88.3244 344.173 90.4691C344.389 91.0423 344.633 91.6919 344.91 92.387C344.932 92.4419 344.966 92.4913 345.009 92.5316C345.052 92.572 345.103 92.6023 345.159 92.6205C345.215 92.6386 345.275 92.6441 345.333 92.6365C345.392 92.6289 345.448 92.6084 345.498 92.5765C346.003 92.2535 346.402 91.4846 346.753 90.8064C346.865 90.5928 347.006 90.3196 347.109 90.1603C347.362 90.4202 347.774 91.1945 348.033 91.6821C348.614 92.7741 348.965 93.3971 349.414 93.5021C350.172 93.6801 350.413 92.7412 350.624 91.9126C350.713 91.5754 350.868 90.9586 351.006 90.8189C351.22 90.8491 351.617 91.1918 352.073 92.9806C352.476 94.5602 352.836 96.8688 353.294 99.7932C354.077 104.805 355.149 111.67 357.194 119.571C357.31 120.016 357.412 120.422 357.508 120.801C357.906 122.376 358.194 123.513 358.879 125.483C359.769 128.04 363.498 130.147 369.113 131.262C374.509 132.334 380.505 132.235 385.145 130.995C387.459 130.372 388.117 130.763 388.171 130.965C388.304 131.433 387.143 132.757 384.922 133.428C381.699 134.407 370.202 135.831 361.678 131.834C361.607 131.801 361.527 131.789 361.449 131.801C361.371 131.812 361.298 131.846 361.24 131.899C361.181 131.952 361.14 132.021 361.12 132.097C361.101 132.173 361.104 132.254 361.13 132.328C362.02 134.881 362.919 137.362 363.716 139.549C364.978 143.014 366.067 146.006 366.735 148.286C367.576 151.155 367.498 152.121 367.285 152.428C367.256 152.468 367.216 152.5 367.17 152.52C367.125 152.54 367.074 152.547 367.025 152.541C366.506 152.541 365.475 151.878 363.505 148.719C362.051 146.387 360.484 143.341 359.101 140.653C356.505 135.606 355.446 133.681 354.63 133.496C354.581 133.485 354.531 133.48 354.481 133.48H354.484Z" fill="#BC7551"/>
<path d="M344.996 101.774C345.085 101.773 345.172 101.742 345.242 101.686C345.312 101.63 345.361 101.552 345.382 101.465C345.402 101.378 345.393 101.286 345.355 101.205C345.317 101.124 345.254 101.057 345.174 101.017C343.14 99.9851 342.04 97.9507 341.689 96.3888C341.459 95.3672 341.518 94.4309 341.837 93.986C341.916 93.9281 342.167 93.7831 342.39 93.6549C343.945 92.7587 345.623 91.7095 345.837 90.5997C345.857 90.4954 345.834 90.3874 345.775 90.2995C345.715 90.2117 345.623 90.1511 345.518 90.1311C345.414 90.1112 345.306 90.1335 345.218 90.1932C345.13 90.2529 345.07 90.345 345.05 90.4493C344.888 91.2921 342.857 92.4615 341.99 92.9607C341.468 93.2624 341.313 93.3541 341.221 93.4725C340.732 94.1052 340.614 95.2613 340.908 96.5642C341.414 98.8148 342.874 100.747 344.811 101.726C344.868 101.756 344.931 101.773 344.996 101.774Z" fill="#8F563C"/>
<path d="M363.678 134.346C363.773 134.346 363.864 134.313 363.936 134.252C364.008 134.191 364.056 134.107 364.072 134.014C364.088 133.921 364.071 133.825 364.023 133.744C363.976 133.662 363.901 133.6 363.812 133.569C361.657 132.808 358.352 130.516 357.493 129.19C357.465 129.145 357.428 129.105 357.385 129.074C357.342 129.044 357.293 129.022 357.241 129.01C357.189 128.998 357.135 128.997 357.082 129.006C357.03 129.015 356.98 129.035 356.935 129.064C356.89 129.093 356.852 129.13 356.822 129.174C356.792 129.218 356.771 129.268 356.76 129.32C356.749 129.372 356.749 129.426 356.76 129.478C356.77 129.53 356.791 129.58 356.82 129.624C357.765 131.088 361.22 133.504 363.542 134.323C363.586 134.339 363.632 134.347 363.678 134.346Z" fill="#8F563C"/>
<path d="M347.504 195.14C347.464 203.884 347.464 212.631 347.423 221.375C347.383 229.63 347.341 237.883 347.3 246.135C347.3 247.367 347.218 248.6 347.26 249.829C347.26 250.447 346.972 250.733 346.44 250.856C346.153 250.939 345.865 250.979 345.579 250.979C343.94 251.104 343.448 250.653 343.448 249.051C343.408 246.67 343.408 244.328 343.408 241.946C343.408 241.125 343.285 240.387 343.039 239.647C342.258 237.185 341.48 234.72 340.742 232.258C340.579 231.683 340.293 231.56 339.758 231.56C309.269 231.56 278.777 231.56 248.285 231.56C247.67 231.56 247.424 231.764 247.261 232.338C246.523 234.803 245.745 237.225 244.967 239.647C244.678 240.468 244.555 241.331 244.598 242.195C244.598 244.574 244.598 246.956 244.555 249.378C244.555 250.693 244.392 250.776 243.082 250.979C242.67 251.062 242.261 251.022 241.852 250.939C240.908 250.776 240.745 250.57 240.745 249.626C240.582 240.674 240.705 231.683 240.582 222.731C240.459 213.575 240.499 204.419 240.459 195.263C240.459 194.605 240.662 194.442 241.277 194.525C242.261 194.648 243.245 194.688 244.186 194.319C244.475 194.236 244.598 194.359 244.638 194.648C244.638 194.934 244.638 195.18 244.638 195.469C244.638 206.143 244.638 216.86 244.638 227.535C244.638 227.74 244.638 227.946 244.638 228.109C244.638 228.315 244.515 228.644 244.924 228.684C245.253 228.727 245.336 228.481 245.376 228.232C245.745 226.92 246.154 225.604 246.523 224.252C249.311 214.767 252.014 205.24 254.926 195.798C255.418 194.196 255.418 194.196 257.097 194.196C257.548 194.196 257.998 194.196 258.409 194.196C258.941 194.196 259.105 194.359 258.941 194.894C258.286 197.07 257.671 199.246 256.974 201.382C254.228 210.166 251.482 218.953 248.736 227.74C248.45 228.684 248.45 228.684 249.434 228.684C264.31 228.684 279.186 228.684 294.064 228.684C308.857 228.684 323.613 228.684 338.406 228.684C339.718 228.684 339.678 228.85 339.266 227.535C335.948 216.9 332.545 206.309 329.35 195.675C328.858 194.031 328.775 194.196 330.457 194.196C330.906 194.196 331.358 194.236 331.767 194.196C332.465 194.073 332.711 194.4 332.914 195.017C334.924 201.339 336.726 207.744 338.611 214.109C339.964 218.748 341.317 223.388 342.67 227.986C342.71 228.152 342.75 228.315 342.833 228.481C342.916 228.684 343.079 228.727 343.242 228.684C343.408 228.644 343.448 228.481 343.448 228.358C343.448 228.152 343.448 227.946 343.448 227.781C343.448 217.023 343.448 206.266 343.448 195.509C343.448 195.223 343.448 194.974 343.448 194.688C343.448 194.442 343.611 194.277 343.9 194.359C344.881 194.688 345.865 194.688 346.891 194.565C347.26 194.442 347.504 194.525 347.504 195.14Z" fill="#C9E4FF"/>
<path d="M351.724 194.442C351.724 195.18 351.521 195.426 350.823 195.346C350.251 195.303 349.636 195.346 349.061 195.346C348.609 195.346 348.117 195.223 347.954 195.921C347.831 196.372 347.259 196.372 346.847 196.33C345.906 196.207 345.003 196.372 344.062 196.372C343.529 196.372 342.995 196.289 342.915 195.632C342.872 195.386 342.749 195.386 342.546 195.386C342.34 195.386 342.134 195.386 341.971 195.386C309.963 195.386 277.955 195.386 245.949 195.386C245.498 195.386 244.965 195.223 244.883 196.001C244.843 196.289 244.514 196.412 244.228 196.412C242.998 196.412 241.768 196.372 240.581 196.33C240.292 196.33 239.966 196.249 239.923 195.961C239.843 195.346 239.431 195.426 239.022 195.426C238.367 195.426 237.669 195.386 237.014 195.426C236.236 195.386 236.113 195.057 236.113 194.442C236.153 190.213 236.113 185.984 236.113 181.712C236.113 179.662 236.153 177.609 236.113 175.596C236.113 174.898 236.317 174.732 236.974 174.732C255.949 174.732 274.923 174.732 293.94 174.732C312.914 174.732 331.849 174.732 350.823 174.732C351.561 174.732 351.767 174.855 351.767 175.636C351.724 181.918 351.724 188.16 351.724 194.442ZM243.613 250.158C242.792 250.527 242.014 250.487 241.193 250.158C240.99 250.078 240.827 249.749 240.538 249.952C240.252 250.201 240.335 250.527 240.458 250.856C240.661 251.473 241.236 251.759 242.589 251.759C242.915 251.759 243.49 251.679 244.062 251.513C244.554 251.35 244.843 250.61 244.597 250.158C244.268 249.543 243.941 250.035 243.613 250.158ZM346.807 250.078C345.946 250.61 345.045 250.57 344.144 250.118C343.898 249.995 343.693 249.749 343.407 249.952C343.118 250.158 343.201 250.487 343.241 250.776C343.284 251.227 343.57 251.513 343.979 251.596C344.471 251.679 345.003 251.759 345.495 251.802C345.906 251.759 346.275 251.759 346.644 251.596C347.136 251.391 347.422 251.022 347.422 250.447C347.422 249.952 347.339 249.749 346.807 250.078Z" fill="#4FA5FF"/>
<path d="M293.202 192.882C293.202 193.579 292.956 193.702 292.341 193.702C283.406 193.702 274.431 193.702 265.496 193.702C256.563 193.702 247.668 193.702 238.736 193.702C238.078 193.702 237.875 193.539 237.875 192.841C237.915 187.503 237.915 182.207 237.875 176.869C237.875 176.171 238.078 176.048 238.693 176.048C256.603 176.048 274.471 176.048 292.381 176.048C293.036 176.048 293.202 176.211 293.202 176.869C293.202 182.247 293.202 187.543 293.202 192.882ZM349.716 176.992C349.716 176.254 349.513 176.088 348.815 176.088C331.111 176.088 313.366 176.088 295.662 176.088C294.924 176.088 294.678 176.254 294.678 177.034C294.718 182.288 294.718 187.586 294.678 192.841C294.678 193.499 294.841 193.702 295.539 193.702C304.431 193.662 313.323 193.702 322.218 193.702C331.07 193.702 339.923 193.702 348.775 193.702C349.47 193.702 349.716 193.579 349.716 192.799C349.676 187.543 349.676 182.247 349.716 176.992Z" fill="#C9E4FF"/>
<path d="M266.687 184.465C266.687 186.024 265.374 187.256 263.858 187.256C262.302 187.256 261.072 186.024 261.112 184.505C261.112 182.944 262.425 181.632 263.901 181.632C265.417 181.672 266.687 182.944 266.687 184.465ZM322.014 181.672C320.538 181.632 319.228 182.944 319.185 184.505C319.145 186.024 320.332 187.256 321.931 187.296C323.489 187.339 324.759 186.107 324.8 184.546C324.842 182.987 323.57 181.672 322.014 181.672Z" fill="#4FA5FF"/>
<path d="M40.6908 217.099C38.7467 216.834 36.7699 216.938 34.805 216.938C33.6946 216.938 32.5811 216.938 31.4677 216.938L30.6281 181.954C32.0006 181.945 33.3611 181.939 34.6651 181.933L40.6908 217.099ZM28.6067 216.941C26.5406 216.941 24.4744 216.941 22.4083 216.941C20.7977 216.944 19.1246 216.846 17.4991 216.959L23.495 181.972C25.0818 181.972 26.7966 181.966 28.5382 181.96C28.6424 185.634 29.089 201.54 29.5981 216.941C29.2676 216.941 28.9371 216.941 28.6067 216.941ZM44.0996 181.868C44.0996 181.868 44.564 179.081 44.0996 178.381C43.9894 178.215 42.2627 178.14 39.7083 178.125C40.6818 176.667 42.215 165.297 42.6557 160.144C44.1531 160.108 45.0969 160.028 45.2011 159.891C45.8203 159.066 47.0558 152.68 45.8203 152.269C45.4988 152.162 43.0963 152.085 39.7113 152.025C42.4056 149.798 44.5908 147.461 43.3463 146.503C40.667 144.442 36.3382 150.004 36.3382 150.004C36.3382 150.004 54.2723 122.817 46.645 119.521C39.2915 116.344 34.6234 134.6 34.293 135.919C34.5371 134.916 37.0021 124.475 33.8613 124.671C30.5626 124.877 30.1518 138.47 30.1518 138.47C30.1518 138.47 29.1217 101.396 20.2559 104.692C11.393 107.988 23.7599 144.856 23.7599 144.856C23.7599 144.856 16.5464 128.583 12.6285 133.734C9.51446 137.827 17.0882 147.914 20.3214 151.873C15.6503 151.858 12.2177 151.858 12.2177 151.858C12.2177 151.858 12.6285 158.655 13.2478 159.066C13.3311 159.123 13.9712 159.194 15.0072 159.271C15.0132 159.319 15.0221 159.364 15.0281 159.411C15.0787 159.766 15.1352 160.153 15.1948 160.563C16.0582 166.574 17.7908 178.122 18.4011 178.426C18.4547 178.453 18.5887 178.483 18.7911 178.509C16.6208 178.572 15.1799 178.617 15.0251 178.617C15.0251 178.617 15.2603 181.635 15.4925 181.868C15.558 181.936 17.9873 181.966 21.405 181.969C20.1279 189.56 10.1873 248.811 10.8393 249.028C11.5389 249.26 12.0033 249.028 12.0033 249.028L17.2698 218.29C18.9668 218.43 20.7233 218.319 22.4083 218.319C24.4744 218.322 26.5406 218.322 28.6067 218.322C28.952 218.322 29.2974 218.322 29.6427 218.322C30.1697 234.089 30.7502 248.918 31.0747 249.028C31.7743 249.26 32.2387 249.028 32.2387 249.028L31.5004 218.322C32.6049 218.325 33.7035 218.325 34.805 218.325C36.8295 218.325 38.8688 218.438 40.8694 218.141L46.1627 249.028C46.1627 249.028 46.6301 249.26 47.3267 249.028C47.9817 248.808 37.9935 189.301 36.752 181.918C40.9557 181.894 44.0996 181.868 44.0996 181.868Z" fill="#C9E4FF"/>
<path d="M79.3571 56.279C79.4851 56.0319 84.8975 56.1093 89.6787 56.2254C92.3194 56.2879 94.7666 56.3653 96.017 56.404L96.1599 61.9801C95.1744 61.9831 93.2244 61.9891 90.9916 61.9891C86.0734 61.9891 79.7977 61.9593 79.5297 61.8223C79.0891 61.5961 79.1308 56.7196 79.3571 56.279ZM103.841 48.077C106.011 54.8351 108.137 61.611 110.188 68.4047C110.367 68.9972 109.453 69.2443 109.268 68.6578C107.122 61.8938 105.047 55.103 103.016 48.3033C102.858 47.7734 103.674 47.556 103.841 48.077ZM112.897 68.6786L107.378 50.8696C107.235 50.3099 109.45 50.0747 109.607 50.6314L115.231 68.4107C115.443 69.0329 113.123 69.2741 112.897 68.6786ZM118.369 68.6578C116.901 62.9417 115.839 57.1006 114.612 51.328C114.49 50.7415 116.437 50.2473 116.568 50.8398C117.83 56.6035 119.355 62.6053 120.376 68.4196C120.474 68.9793 118.515 69.2294 118.369 68.6578ZM121.001 54.189C120.888 53.5936 122.71 53.3346 122.826 53.936C123.758 58.7202 124.725 63.4985 125.604 68.2916C125.717 68.9019 123.883 69.1669 123.758 68.5506C122.793 63.7753 121.915 58.9762 121.001 54.189ZM126.392 59.6312C125.69 56.8148 124.895 53.9479 124.49 51.072C124.353 50.1044 125.63 49.9586 125.883 50.8398C126.69 53.6383 129.87 64.99 130.534 67.8302C130.671 68.4077 128.944 68.6221 128.747 68.0713C127.765 65.3324 127.098 62.4505 126.392 59.6312ZM131.159 50.3009C131.046 49.6579 132.936 49.378 133.055 50.027C134.181 56.151 135.52 62.2183 136.8 68.3095C136.922 68.893 135.142 69.1431 134.99 68.5566C133.433 62.5458 132.245 56.4129 131.159 50.3009ZM139.938 68.0981C138.608 62.1677 137.247 56.2432 135.991 50.298C135.854 49.6489 137.976 49.3691 138.128 50.0241C139.492 55.9455 140.757 61.8908 142.049 67.8272C142.186 68.4613 140.081 68.7322 139.938 68.0981ZM56.7578 73.9541H150.882V69.8963H146.83C146.006 65.8444 142.403 48.3926 141.418 48.1455C140.301 47.8657 126.065 47.5858 125.785 47.8657C125.505 48.1455 125.505 49.8186 125.505 49.8186L108.759 49.5388L107.64 47.5858C107.64 47.5858 89.2173 47.0291 88.3807 47.8657C88.2348 48.0115 88.2854 48.2497 88.467 49.4584C80.4705 49.2887 63.3402 49.1488 63.2211 49.387C63.0604 49.7144 63.0604 50.5957 63.0604 50.5957C63.0604 50.5957 66.0851 50.5897 66.49 50.5808C69.0682 50.5183 78.5622 50.3158 78.7051 50.5957C78.8658 50.9202 78.8658 54.4987 78.5413 54.6594C78.2555 54.8023 68.6633 54.6951 66.3501 54.6654C66.0315 54.6624 63.0604 54.6594 63.0604 54.6594L62.98 55.9545L66.2488 55.9426C64.8109 56.5618 65.6147 61.7509 65.7368 62.4982C63.4652 62.522 62.0362 62.5726 61.9946 62.6589C61.7713 63.1025 61.7713 64.1028 61.7713 64.1028C61.7713 64.1028 62.0928 64.0939 62.6465 64.082C66.1595 63.9986 79.1159 63.7188 79.3064 64.1028C79.5297 64.5464 79.5297 68.8662 79.0832 69.0895C78.6932 69.283 65.6088 69.1341 62.453 69.0954C62.0213 69.0925 61.7713 69.0895 61.7713 69.0895L61.8129 69.8963H56.7578V73.9541Z" fill="#C9E4FF"/>
<path d="M60.4455 81.3752C60.4455 80.619 64.1252 80.619 64.1252 81.3752V102.709C64.1252 103.465 60.4455 103.468 60.4455 102.709V81.3752ZM67.7603 82.0123C67.7692 81.2561 68.9452 81.2532 68.9392 82.0123C68.9035 85.8081 69.7847 89.5146 70.5766 93.2033C70.9101 94.7603 71.2346 96.3173 71.434 97.8982C71.6424 99.5564 71.7972 101.247 72.3718 102.825C72.6308 103.54 71.4936 103.846 71.2346 103.138C70.7076 101.682 70.532 100.131 70.3414 98.6038C70.1122 96.752 69.746 94.936 69.353 93.114C68.5671 89.4581 67.7275 85.7724 67.7603 82.0123ZM76.0515 102.322C74.7088 96.3084 72.3659 90.5715 71.1452 84.528C70.9964 83.7896 73.0387 83.4711 73.1905 84.2154C74.4111 90.2589 76.7511 95.9988 78.0968 102.01C78.2605 102.748 76.2153 103.06 76.0515 102.322ZM77.2573 94.415C76.3344 91.0925 75.5216 87.7313 74.5064 84.4387C74.2831 83.7122 75.4204 83.4026 75.6437 84.1231C76.5636 87.1151 77.3049 90.1726 78.1385 93.1884C78.6684 95.0937 79.1983 97.0021 79.758 98.8985C79.9545 99.5713 80.157 100.247 80.3773 100.917C80.4457 101.128 80.5708 101.372 80.6095 101.593C80.6125 101.62 80.6184 101.643 80.6273 101.661C80.666 101.685 80.6899 101.709 80.6958 101.727C81.0382 102.048 80.7167 102.819 80.0974 102.733C79.3918 102.635 79.0912 100.774 78.9423 100.286C78.3469 98.3388 77.8021 96.3769 77.2573 94.415ZM84.1374 102.775C82.238 96.8234 81.3151 90.631 80.0498 84.528C79.895 83.7896 81.0322 83.4711 81.1841 84.2154C82.4523 90.3185 83.3752 96.5079 85.2746 102.462C85.5039 103.186 84.3666 103.495 84.1374 102.775ZM88.5435 86.213C89.5468 91.4349 90.291 96.7073 91.3628 101.917C91.5146 102.656 87.1949 102.974 87.043 102.23C85.9742 97.0199 85.227 91.7504 84.2267 86.5256C84.0867 85.7843 88.4006 85.4687 88.5435 86.213ZM103.84 83.0424C106.01 89.8004 108.136 96.5763 110.187 103.37C110.366 103.963 109.452 104.21 109.267 103.626C107.121 96.8592 105.046 90.0684 103.015 83.2687C102.857 82.7387 103.673 82.5214 103.84 83.0424ZM112.896 103.644L107.377 85.8349C107.234 85.2752 109.449 85.04 109.607 85.5968L115.23 103.376C115.442 103.998 113.123 104.239 112.896 103.644ZM118.368 103.623C116.9 97.9071 115.838 92.066 114.611 86.2934C114.489 85.7039 116.436 85.2127 116.567 85.8052C117.829 91.5688 119.354 97.5707 120.375 103.382C120.473 103.945 118.514 104.195 118.368 103.623ZM121 89.1544C120.887 88.556 122.709 88.3 122.825 88.9013C123.757 93.6856 124.724 98.4638 125.603 103.257C125.716 103.867 123.882 104.132 123.757 103.516C122.792 98.7377 121.914 93.9416 121 89.1544ZM126.391 94.5966C125.689 91.7772 124.894 88.9133 124.489 86.0374C124.352 85.0728 125.629 84.9239 125.882 85.8052C126.689 88.6036 129.869 99.9554 130.533 102.796C130.67 103.37 128.943 103.584 128.746 103.037C127.764 100.298 127.097 97.4159 126.391 94.5966ZM131.158 85.2663C131.045 84.6232 132.935 84.3434 133.054 84.9954C134.18 91.1163 135.519 97.1837 136.799 103.275C136.922 103.858 135.141 104.108 134.989 103.522C133.432 97.5082 132.244 91.3783 131.158 85.2663ZM139.937 103.063C138.607 97.1331 137.246 91.2086 135.99 85.2633C135.853 84.6143 137.975 84.3345 138.127 84.9894C139.491 90.9109 140.756 96.8562 142.048 102.793C142.185 103.427 140.08 103.698 139.937 103.063ZM56.6437 99.3004C56.6973 101.155 56.7658 103.01 56.8492 104.862H56.7569V108.919H150.881V104.862H146.829C146.005 100.81 142.402 83.355 141.417 83.1109C140.301 82.831 126.064 82.5512 125.784 82.831C125.504 83.1109 125.504 84.784 125.504 84.784L108.758 84.5042L107.639 82.5512C107.639 82.5512 89.2163 81.9945 88.3797 82.831C88.2339 82.9769 88.2845 83.2151 88.4661 84.4238C86.8614 84.391 84.8876 84.3583 82.756 84.3285C82.7292 83.9623 82.6309 83.611 82.4464 83.2359C82.3838 83.1049 82.2171 83.0186 82.0772 83.0245C78.2665 83.1138 74.4588 83.1525 70.6481 83.0513C70.5855 82.2981 70.4516 81.5747 70.2223 80.8393C70.1598 80.6309 69.9931 80.5327 69.7877 80.5059C65.4441 79.9819 61.0856 79.5949 56.7182 79.3508C56.483 79.3359 56.2537 79.5681 56.2656 79.8033L56.3728 82.0957C56.0215 87.7879 56.1942 93.5754 56.6437 99.3004Z" fill="#C9E4FF"/>
<path d="M65.2192 119.295C65.2192 118.536 66.6244 118.536 66.6244 119.295V140.629C66.6244 141.385 65.2192 141.385 65.2192 140.629V119.295ZM61.3579 119.295C61.3579 118.536 62.7631 118.536 62.7631 119.295V140.629C62.7631 141.385 61.3579 141.385 61.3579 140.629V119.295ZM68.6726 119.929C68.6786 119.173 69.8575 119.17 69.8516 119.929C69.8159 123.725 70.6971 127.431 71.486 131.12C71.8195 132.68 72.1469 134.234 72.3434 135.818C72.5518 137.473 72.7066 139.164 73.2812 140.742C73.5402 141.457 72.403 141.763 72.1469 141.058C71.617 139.602 71.4414 138.048 71.2508 136.521C71.0216 134.669 70.6554 132.853 70.2624 131.031C69.4765 127.375 68.6369 123.689 68.6726 119.929ZM76.9609 140.239C75.6182 134.228 73.2753 128.488 72.0546 122.445C71.9058 121.706 73.9481 121.391 74.0999 122.132C75.3205 128.176 77.6635 133.916 79.0062 139.926C79.1729 140.665 77.1276 140.98 76.9609 140.239ZM78.1667 132.332C77.2437 129.012 76.431 125.648 75.4158 122.355C75.1925 121.629 79.5123 121.772 79.7356 122.495C80.6555 125.487 81.3968 128.545 82.2304 131.561C82.7574 133.466 83.2903 135.371 83.85 137.271C84.0464 137.944 84.2489 138.619 84.4662 139.286C84.5377 139.501 84.7788 140.081 84.7877 140.099C85.1301 140.421 81.6261 140.736 81.0068 140.65C80.3042 140.552 80.0035 138.694 79.8547 138.203C79.2563 136.256 78.7115 134.294 78.1667 132.332ZM89.4559 124.13C90.4562 129.355 91.2034 134.624 92.2722 139.834C92.424 140.575 88.1072 140.891 87.9554 140.15C86.8866 134.937 86.1394 129.667 85.139 124.442C84.9961 123.704 89.313 123.385 89.4559 124.13ZM99.7507 120.959C101.921 127.717 104.047 134.493 106.098 141.29C106.277 141.879 105.363 142.126 105.178 141.543C103.031 134.779 100.956 127.988 98.929 121.185C98.7683 120.658 99.584 120.438 99.7507 120.959ZM110.171 141.564L104.651 123.755C104.508 123.195 106.723 122.96 106.881 123.516L112.505 141.296C112.713 141.918 110.397 142.159 110.171 141.564ZM119.278 141.543C117.81 135.824 116.747 129.983 115.523 124.21C115.398 123.624 117.348 123.132 117.476 123.722C118.742 129.489 120.263 135.487 121.284 141.302C121.382 141.861 119.423 142.112 119.278 141.543ZM127.304 132.513C126.601 129.697 125.803 126.833 125.399 123.954C125.265 122.99 126.539 122.841 126.795 123.722C127.602 126.52 130.781 137.872 131.445 140.712C131.579 141.29 129.852 141.504 129.656 140.956C128.676 138.217 128.006 135.333 127.304 132.513ZM132.978 123.183C132.862 122.54 133.848 122.263 133.967 122.912C135.089 129.033 136.432 135.1 137.709 141.192C137.831 141.775 136.962 142.025 136.81 141.442C135.253 135.428 134.065 129.298 132.978 123.183ZM140.847 140.98C139.516 135.053 138.158 129.125 136.899 123.183C136.762 122.531 141.159 122.707 141.308 123.362C142.675 129.283 143.94 135.228 145.232 141.165C145.369 141.799 140.99 141.617 140.847 140.98ZM57.5531 137.217C57.6067 139.075 57.6752 140.93 57.7615 142.781H57.6663V146.836H151.791V142.781H147.742C146.917 138.73 143.315 121.275 142.326 121.028C141.21 120.748 126.973 120.471 126.694 120.748C126.414 121.028 126.414 122.701 126.414 122.701L109.667 122.421L108.551 120.471C108.551 120.471 90.1287 119.911 89.2891 120.748C89.1433 120.897 89.1939 121.132 89.3755 122.344C87.7708 122.308 85.797 122.275 83.6684 122.245C83.6386 121.879 83.5403 121.528 83.3587 121.153C83.2932 121.022 83.1295 120.938 82.9896 120.941C79.1759 121.031 75.3682 121.069 71.5575 120.971C71.4949 120.215 71.361 119.491 71.1317 118.756C71.0692 118.548 70.9055 118.449 70.6971 118.423C66.3535 117.899 61.995 117.515 57.6276 117.268C57.3924 117.256 57.1661 117.485 57.175 117.72L57.2822 120.012C56.9309 125.708 57.1066 131.492 57.5531 137.217Z" fill="#C9E4FF"/>
<path d="M148.66 45.4497V44.9497H148.16H58.1652H57.6652V45.4497V223.421V223.921H58.1652H148.16H148.66V223.421V45.4497ZM42.5293 42.3176H151.295V251.531H42.5293V42.3176Z" fill="white" stroke="#C9E4FF"/>
<path d="M196.76 251.197C193.827 234.512 188.582 225.659 188.354 225.282L185.242 227.498C185.291 227.58 190.16 235.849 192.971 251.197H196.76Z" fill="#493333"/>
<path d="M215.956 251.197C212.506 233.746 205.558 222.865 205.26 222.403L201.559 224.623C201.626 224.726 208.173 235.003 211.518 251.197H215.956Z" fill="#493333"/>
<path d="M72.9453 251.197C75.8771 233.894 81.1246 224.713 81.3522 224.323L84.463 226.62C84.4114 226.706 79.5433 235.281 76.736 251.197H72.9453Z" fill="#493333"/>
<path d="M52.7891 252.157C56.2384 235.287 63.1868 224.77 63.4852 224.323L67.1862 226.468C67.116 226.568 60.5713 236.503 57.2273 252.157H52.7891Z" fill="#493333"/>
<path d="M224.766 221.89C222.196 231.727 213.423 231.941 209.996 231.941C206.608 231.941 136.027 231.521 134.467 231.512C133.279 231.518 91.0278 231.765 69.5688 231.881C62.906 231.917 58.2439 231.941 57.443 231.941C54.8649 231.941 49.253 231.819 45.5406 227.562C44.3229 226.165 43.3107 224.32 42.6736 221.89C42.5664 221.474 24.9092 139.13 37.1094 133.357C51.5662 126.516 133.428 128.865 134.071 131.431C134.122 131.636 134.833 131.636 134.869 131.431C135.223 129.412 177.686 127.846 206.51 129.674C210.996 129.957 215.152 130.323 218.77 130.785C223.926 131.443 227.984 132.285 230.33 133.357C244.888 139.987 224.873 221.474 224.766 221.89Z" fill="#F7CDA3"/>
<path d="M201.728 215.139C192.356 215.04 182.978 215.124 173.606 215.124C164.231 215.124 154.857 215.124 145.485 215.124C126.833 215.127 108.178 215.127 89.5268 215.127C82.2954 215.127 75.064 215.115 67.8326 215.124C67.7106 215.124 67.6123 215.225 67.6153 215.347V215.35C67.6183 215.466 67.7165 215.561 67.8326 215.561C83.2898 215.6 98.7499 215.55 114.204 215.55C132.859 215.55 151.51 215.55 170.162 215.55C180.683 215.55 191.21 215.645 201.728 215.535C201.984 215.532 201.984 215.142 201.728 215.139Z" fill="#BC7551"/>
<path d="M63.7596 192.797C63.7745 192.086 62.67 192.086 62.6492 192.797C62.4378 200.237 62.4795 225.039 62.6313 229.785C62.6581 230.571 63.8728 230.574 63.8549 229.785C63.7477 225.039 63.5959 200.24 63.7596 192.797Z" fill="#BC7551"/>
<path d="M49.1227 144.372C46.5951 144.375 46.738 147.284 46.5445 149.082C46.348 150.928 45.699 152.681 45.4013 154.506C45.1006 156.361 45.2346 158.237 45.6544 160.062C45.9431 161.312 46.3689 162.512 46.875 163.676C46.5624 163.64 46.2498 163.607 45.9372 163.587C44.6481 160.44 43.9723 157.114 44.7076 153.643C45.047 152.023 45.568 150.446 45.7199 148.79C45.8449 147.409 45.8032 145.947 46.6398 144.762C47.2531 143.887 48.1551 143.506 49.209 143.533C50.8018 143.571 52.3945 143.804 53.9873 143.884C57.798 144.075 77.4618 143.732 81.1951 142.887C81.6625 142.78 81.7786 143.506 81.3172 143.619C77.7208 144.5 58.1791 144.899 54.4904 144.747C52.7071 144.676 50.903 144.369 49.1227 144.372Z" fill="#BC7551"/>
<path d="M49.7055 145.466C53.025 146.272 55.7431 148.419 58.2409 150.652C59.4764 151.756 60.8221 152.861 61.7212 154.272C62.1201 154.897 62.4148 155.588 62.525 156.326C62.6738 157.317 62.4237 158.309 62.4386 159.303C62.4803 162.161 64.6625 164.376 66.3267 166.481C67.1722 167.547 67.982 168.666 68.503 169.931C69.1461 171.494 69.1133 173.132 68.9734 174.784C68.8811 175.904 68.7829 177.023 68.896 178.145C69.0091 179.241 69.2741 180.31 69.5629 181.367C70.1106 183.373 70.7954 185.403 70.6703 187.508C70.6555 187.714 70.3429 187.749 70.3369 187.529C70.2506 183.861 68.3512 180.5 68.4197 176.823C68.4524 174.954 68.896 173.048 68.4643 171.194C68.1577 169.86 67.4372 168.672 66.6334 167.577C65.0972 165.484 63.0192 163.563 62.2749 160.997C62.0963 160.393 62.007 159.765 62.0159 159.13C62.0308 158.16 62.26 157.183 62.0754 156.216C61.7479 154.486 60.3785 153.173 59.137 152.03C56.3564 149.47 53.3942 146.781 49.6281 145.847C49.387 145.787 49.4614 145.406 49.7055 145.466Z" fill="#BC7551"/>
<path d="M218.522 145.914C221.047 146.009 220.8 148.912 220.925 150.716C221.05 152.568 221.633 154.342 221.863 156.179C222.095 158.042 221.895 159.912 221.407 161.719C221.071 162.961 220.603 164.143 220.053 165.289C220.365 165.262 220.678 165.244 220.993 165.232C222.399 162.136 223.196 158.837 222.592 155.342C222.312 153.711 221.848 152.115 221.758 150.457C221.684 149.069 221.779 147.611 220.99 146.393C220.407 145.497 219.523 145.083 218.466 145.068C216.873 145.05 215.271 145.223 213.679 145.244C209.865 145.294 206.045 145.026 202.348 144.044C201.883 143.919 201.743 144.639 202.199 144.77C205.759 145.783 209.451 146.107 213.146 146.092C214.926 146.083 216.745 145.845 218.522 145.914Z" fill="#BC7551"/>
<path d="M186.735 147.679C184.217 147.628 181.603 148.593 179.739 150.299C177.646 152.216 178.84 154.91 179.718 157.176C180.814 160.007 182.249 162.779 182.609 165.83C182.99 169.049 182.297 172.282 182.621 175.506C182.675 176.027 183.493 176.039 183.449 175.506C183.202 172.678 183.669 169.864 183.55 167.033C183.443 164.452 182.63 162.07 181.651 159.703C181.177 158.56 180.68 157.426 180.251 156.265C179.796 155.029 179.004 153.279 179.474 151.984C179.912 150.778 181.43 149.918 182.523 149.394C183.86 148.754 185.265 148.474 186.735 148.39C187.191 148.364 187.2 147.688 186.735 147.679Z" fill="#BC7551"/>
<path d="M134.407 141.441C134.351 138.702 134.351 135.963 134.437 133.224C134.446 132.977 134.071 132.98 134.059 133.224C133.645 142.852 134.589 152.469 134.75 162.091C134.797 164.83 134.777 167.571 134.66 170.307C134.649 170.578 135.068 170.575 135.08 170.307C135.527 160.679 134.613 151.06 134.407 141.441Z" fill="#BC7551"/>
<path d="M229.923 165.283C224.894 163.892 219.354 164.119 214.659 166.512C210.449 168.653 207.204 172.422 205.939 176.989C205.213 179.609 205.073 182.359 205.064 185.066C205.052 188.093 205.123 191.127 205.159 194.155C205.236 200.3 205.29 206.447 205.409 212.592C205.507 217.713 205.686 222.83 206.097 227.933C206.124 228.246 206.389 228.487 206.704 228.478H206.716C207.05 228.469 207.312 228.18 207.288 227.847C206.6 218.123 206.603 208.359 206.49 198.617C206.424 193.047 206.055 187.379 206.448 181.818C206.808 176.721 208.744 172.115 212.962 169.049C217.776 165.548 223.945 165.015 229.586 166.503C230.378 166.712 230.712 165.5 229.923 165.283Z" fill="#BC7551"/>
<path d="M103.918 200.746C102.093 200.791 100.271 200.973 98.4488 201.109C97.9992 201.145 97.9933 201.913 98.4488 201.881C100.271 201.761 102.102 201.684 103.918 201.476C104.335 201.425 104.355 200.734 103.918 200.746Z" fill="#BC7551"/>
<path d="M90.0231 207.174C84.8311 204.495 79.24 202.605 73.5299 201.396C73.0566 201.298 72.8512 202.021 73.3275 202.125C78.9959 203.358 84.4143 205.323 89.6331 207.841C90.0797 208.059 90.4727 207.404 90.0231 207.174Z" fill="#BC7551"/>
<path d="M105.601 137.418C105.601 137.418 95.1154 151.532 93.1862 151.961C91.26 152.389 85.9102 139.129 85.9102 139.129C85.9102 139.129 88.7622 138.29 89.5631 137.653C89.6673 137.572 89.6176 137.579 89.7428 137.46C90.203 137.022 90.7235 136.881 90.7026 136.5C90.652 135.586 90.2227 133.621 90.2227 133.621L97.6817 125.872C97.6817 125.872 99.6078 134.426 100.465 135.066C101.323 135.709 105.601 137.418 105.601 137.418Z" fill="#E88B72"/>
<path d="M75.6992 122.643C75.4473 122.365 75.2744 122.065 75.2067 121.742C75.1165 121.297 75.2443 120.834 75.0789 120.399C74.7969 119.647 73.6802 119.014 73.9471 118.259C74.1013 117.819 74.6991 117.525 75.2932 117.343C76.0602 117.111 77.1543 116.921 77.7296 116.476C78.0679 116.216 78.0303 115.82 78.1732 115.482C78.3913 114.966 79.0643 114.578 79.8125 114.438C80.5645 114.3 81.3729 114.383 82.0948 114.586C82.5911 114.724 83.2077 114.909 83.6062 114.659C83.7528 114.568 83.828 114.433 83.9145 114.308C84.2266 113.826 84.7304 113.389 85.4147 113.152C86.099 112.918 86.975 112.918 87.5917 113.227C88.3361 113.605 89.2648 113.842 90.1371 114.045C90.2687 114.076 90.4116 114.105 90.5507 114.084C90.7011 114.058 90.8139 113.975 90.9417 113.915C91.5358 113.631 92.378 113.878 92.8705 114.245C93.363 114.61 93.6789 115.083 94.2278 115.409C94.7128 115.698 95.3482 115.846 95.8295 116.14C96.589 116.601 96.8409 117.333 97.0289 118.02C97.3485 119.207 97.5854 120.407 97.7395 121.607C97.826 122.281 98.1343 123.455 97.5703 124.057C97.0327 124.629 95.9122 124.853 95.0475 125.062C94.4572 125.202 93.8556 125.319 93.239 125.387C92.0208 125.517 90.78 125.452 89.5543 125.387C87.3059 125.267 85.0575 125.147 82.8317 124.903C81.6924 124.778 80.5532 124.624 79.4403 124.413C78.1018 124.158 76.5038 123.531 75.6992 122.643Z" fill="#08294A"/>
<path d="M83.5142 122.114C83.4638 122.422 83.6121 122.841 83.6708 123.134C83.7575 123.544 83.847 123.953 83.9393 124.36C84.1911 125.434 84.4763 126.506 84.812 127.563C85.1896 128.75 85.6259 129.933 86.2189 131.052C86.658 131.881 87.2147 132.814 88.1013 133.338C91.1165 135.122 95.7261 133.541 97.1497 131.023C98.3553 128.884 98.3553 125.139 98.3553 125.139C98.3553 125.139 100.165 124.427 99.7622 122.645C99.572 121.804 99.1916 120.71 98.2518 120.308C97.9301 120.169 97.5022 120.137 97.1889 120.325C96.7582 120.588 96.6295 121.467 96.484 121.903C96.4197 122.095 96.3806 122.946 96.0197 122.844C95.8967 122.807 95.8156 122.705 95.754 122.603C95.2981 121.884 95.2617 120.988 94.7331 120.31C94.6492 120.201 94.5485 120.097 94.4198 120.03C94.1793 119.906 93.8912 119.911 93.6059 119.916C93.4073 119.918 93.2087 119.923 93.0269 119.881C92.2214 119.702 91.4186 119.526 90.8144 120.06C90.3222 120.496 89.7572 121.194 89.0271 121.318C88.6719 121.375 88.3307 121.238 87.9894 121.102C87.6454 120.963 87.2986 120.824 86.9349 120.889C86.728 120.926 86.549 121.037 86.356 121.112C85.9923 121.253 85.5141 121.276 85.1504 121.114C84.8903 121 84.7029 120.732 84.3729 120.799C84.2274 120.829 84.1603 120.973 84.1071 121.097C83.9813 121.387 83.8134 121.665 83.6093 121.918C83.5757 121.958 83.5421 122 83.5282 122.047C83.5226 122.07 83.517 122.092 83.5142 122.114Z" fill="#E88B72"/>
<path d="M86.6605 138.594C86.6605 138.594 91.3673 150.356 93.7222 149.716C96.0771 149.073 99.9295 141.374 101.216 139.665C102.499 137.954 103.996 136.456 104.211 136.456C104.425 136.456 106.054 136.466 109.049 137.749C112.047 139.032 112.268 138.825 113.337 140.322C114.408 141.817 126.259 156.346 129.897 160.621C133.535 164.899 128.397 178.585 128.397 178.585L82.698 180.19C82.698 180.19 83.5554 169.496 83.341 167.144C83.1267 164.792 79.5958 159.338 79.5958 159.338C79.5958 159.338 77.2409 162.119 75.3148 161.904C73.3886 161.69 71.8911 162.119 71.0337 162.973C70.1763 163.831 68.0387 165.968 65.4694 166.397C62.9002 166.823 48.7738 164.256 48.7738 164.256C48.7738 164.256 47.702 162.333 48.1337 160.407C48.5595 158.484 50.2713 158.484 51.5574 156.346C52.8405 154.206 56.6929 154.42 61.4027 151.425C66.1125 148.433 78.8109 141.068 81.8059 139.785C84.8039 138.501 86.2318 138.382 86.6605 138.594Z" fill="#4FA5FF"/>
<path d="M51.0201 165.003C51.0201 165.003 49.5226 162.865 51.8775 160.513C54.2294 158.161 59.1178 157.069 59.6716 157.402C60.2223 157.733 60.011 165.217 60.011 165.217L54.4438 165.86L51.0201 165.003Z" fill="#1A1A1A"/>
<path d="M62.8814 171.636C62.2622 169.734 60.5265 166.465 55.7304 164.577C48.6657 161.797 40.1035 165.646 40.1035 165.646L42.3334 171.636H62.8814Z" fill="#F7CDA3"/>
<path d="M53.6544 163.8C48.1944 162.806 42.5914 163.559 37.5839 165.822C36.926 166.12 37.4589 167.06 38.1168 166.774C42.9368 164.696 48.2301 164.143 53.446 164.941C54.1218 165.045 54.3332 163.925 53.6544 163.8Z" fill="#BC7551"/>
<path d="M59.4585 166.128C58.9614 165.601 58.1754 166.393 58.6636 166.923C61.1644 169.629 62.5666 173.08 62.8137 176.747C62.8614 177.492 64.0135 177.507 63.9867 176.747C63.8438 172.764 62.1885 169.016 59.4585 166.128Z" fill="#BC7551"/>
<path d="M94.377 169.013C94.377 169.013 96.848 167.164 97.9167 167.105C98.9855 167.045 101.543 167.87 102.984 168.165C104.422 168.459 103.802 172.776 103.802 172.776L96.1334 173.628L94.377 169.013Z" fill="#E88B72"/>
<path d="M58.0859 175.268L58.726 173.559H75.8504C75.8504 173.559 77.1335 170.136 81.2002 169.281C84.5792 168.573 88.2649 168.641 92.3316 165.646L94.0435 168.856L73.9242 178.263L58.0859 175.268Z" fill="white"/>
<path d="M100.145 178.157L96.3581 179.419L94.3604 180.083L81.5231 184.358L67.4384 181.518L60.332 180.083C60.332 180.083 59.564 179.16 58.7274 178.097L58.7095 178.073C57.5752 176.635 56.3278 174.95 56.694 174.95C57.3371 174.95 73.8184 174.736 74.4614 174.736C75.1015 174.736 77.0277 174.307 77.0277 174.307C77.0277 174.307 93.9377 167.037 94.3664 167.037C94.7058 167.037 98.1354 174.015 99.5436 176.918C99.9127 177.677 100.145 178.157 100.145 178.157Z" fill="#005BBA"/>
<path d="M82.9241 187.65C81.1587 183.565 79.2682 179.514 77.3123 175.521C77.1128 175.119 76.5472 175.471 76.7198 175.867C78.4912 179.945 80.3489 184.015 82.3138 188.004C82.5163 188.418 83.0998 188.058 82.9241 187.65Z" fill="#4FA5FF"/>
<path d="M80.0836 188.156C79.2262 186.111 78.1931 184.128 77.2315 182.128C76.2431 180.077 75.2517 178.022 74.2604 175.974C74.1562 175.763 73.8465 175.947 73.9448 176.156C74.9064 178.183 75.871 180.208 76.8385 182.235C77.8031 184.253 78.7082 186.32 79.774 188.287C79.8633 188.451 80.161 188.335 80.0836 188.156Z" fill="#4FA5FF"/>
<path d="M76.28 173.988C76.28 173.988 65.1486 164.363 64.7199 164.577C64.2941 164.791 68.7866 174.199 68.7866 174.199L76.28 173.988Z" fill="white"/>
<path d="M95.6036 169.525C94.5646 169.944 93.5792 170.486 92.6742 171.138C92.3526 171.37 92.0073 171.686 92.04 172.082C92.0609 172.347 92.2574 172.6 92.1859 172.856C92.1502 172.987 92.049 173.088 91.9537 173.187C91.7602 173.386 91.5697 173.597 91.4684 173.853C91.3642 174.112 91.3642 174.425 91.528 174.648C91.9597 175.229 93.0433 174.788 93.5078 175.342C93.7787 175.663 93.7072 176.205 94.0317 176.473C94.3116 176.702 94.7314 176.61 95.0648 176.747C95.5828 176.959 95.7406 177.64 96.2169 177.935C96.4581 178.087 96.7558 178.12 97.0416 178.12C98.027 178.131 105.062 177.5 107.473 177.069C107.473 177.069 107.676 169.135 105.264 168.197C105.264 168.197 99.0452 168.114 98.1997 168.373C97.3572 168.635 95.6036 169.525 95.6036 169.525Z" fill="#E88B72"/>
<path d="M99.6761 170.391C97.2617 170.674 94.9217 171.326 92.7156 172.341C92.3048 172.531 92.5072 173.201 92.9449 173.023C95.133 172.129 97.3778 171.516 99.7178 171.183C100.221 171.114 100.188 170.328 99.6761 170.391Z" fill="#DB7963"/>
<path d="M100.28 173.402C98.1454 173.613 95.9572 174.048 93.9 174.652C93.5368 174.757 93.641 175.382 94.025 175.313C96.1566 174.941 98.2972 174.551 100.417 174.119C100.825 174.036 100.688 173.363 100.28 173.402Z" fill="#DB7963"/>
<path d="M100.064 168.328C99.2603 168.283 98.4207 168.06 97.6229 168.218C96.831 168.37 96.0271 168.721 95.2888 169.033C94.8601 169.215 95.0626 169.84 95.518 169.721C96.3993 169.486 97.3132 169.004 98.2332 169.01C98.9209 169.013 99.5282 169.26 100.201 169.042C100.621 168.905 100.457 168.349 100.064 168.328Z" fill="#DB7963"/>
<path d="M58.4045 157.415C58.4045 157.415 54.9809 158.698 53.9091 160.192C52.8403 161.69 52.6319 164.387 53.1648 164.962C53.6977 165.539 54.5522 168.105 55.1952 168.534C55.8383 168.96 58.1932 168.748 58.1932 168.534C58.1932 168.534 59.4763 168.96 60.1164 168.748C60.7594 168.534 61.1881 168.105 61.1881 168.105C61.1881 168.105 62.2599 168.32 63.1143 168.534C63.9717 168.748 65.6836 168.96 65.8979 168.32C65.8979 168.32 67.1811 167.68 67.1811 167.037C67.1811 166.397 65.2549 165.539 65.2549 164.899C65.2549 164.256 65.6836 161.478 65.4692 161.05C65.2549 160.621 62.2599 159.552 61.4025 158.269C60.5451 156.986 59.2619 157.2 58.4045 157.415Z" fill="#E88B72"/>
<path d="M65.0471 164.654C64.7286 164.059 64.2582 163.564 63.8741 163.011C63.4871 162.451 63.1418 161.87 62.8232 161.272C62.5821 160.819 61.8973 161.221 62.1355 161.674C62.7577 162.859 63.5169 164.279 64.6214 165.08C64.8893 165.276 65.1841 164.907 65.0471 164.654Z" fill="#DB7963"/>
<path d="M64.8489 167.007C64.3845 166.587 63.8665 166.245 63.3246 165.929C62.6786 165.551 61.58 165.271 61.2228 164.557C60.937 163.985 60.9013 163.22 60.678 162.613C60.4487 162.002 60.148 161.434 59.7789 160.895C59.5109 160.499 58.8679 160.862 59.1299 161.273C59.6479 162.086 59.9932 162.958 60.2225 163.89C60.3505 164.399 60.4071 164.959 60.7524 165.378C61.1335 165.84 61.7706 166.036 62.2856 166.31C63.015 166.7 63.6819 167.179 64.3875 167.605C64.7536 167.822 65.1764 167.301 64.8489 167.007Z" fill="#DB7963"/>
<path d="M60.7041 167.269C59.5638 166.519 58.7421 165.063 58.1824 163.842C58.0157 163.479 57.3816 163.738 57.5275 164.116C58.0514 165.474 58.9773 167.227 60.3081 167.948C60.7547 168.189 61.1268 167.546 60.7041 167.269Z" fill="#DB7963"/>
<path d="M58.0923 167.957C57.7649 167.576 57.36 167.269 57.0325 166.882C56.6901 166.48 56.4192 166.03 56.1959 165.554C55.9875 165.116 55.3504 165.498 55.5469 165.932C55.9756 166.876 56.711 168.037 57.6994 168.469C58.0328 168.615 58.3454 168.248 58.0923 167.957Z" fill="#DB7963"/>
<path d="M144.557 198.153C144.557 198.153 140.175 197.852 132.776 196.414C127.724 195.435 121.27 193.928 113.842 191.63C110.957 190.734 107.781 190.335 104.786 190.222C100.609 190.058 96.7861 190.448 94.5861 190.808C94.4283 190.835 94.2794 190.859 94.1395 190.883C93.2106 191.044 92.6777 191.163 92.6777 191.163C92.6777 191.163 62.1534 186.819 58.9411 187.459C55.7318 188.102 53.0554 189.704 51.6651 188.742C51.6651 188.742 49.7389 187.245 48.2384 185.107C46.7409 182.97 45.0291 182.112 42.2455 180.618C39.4649 179.12 37.3213 176.768 38.8218 176.34C40.3193 175.911 43.9573 178.477 50.8076 179.76C57.658 181.044 69.4295 179.975 76.7055 179.335C79.894 179.052 86.1043 177.557 91.6655 176.631C97.1226 175.72 102.571 174.741 105.744 174.169C106.718 173.997 107.477 173.86 107.956 173.773C109.68 173.47 116.64 174.652 123.488 175.977C124.848 176.238 126.203 176.509 127.513 176.774C131.249 177.528 134.607 178.245 136.617 178.68C137.84 178.945 138.567 179.105 138.567 179.105L143.926 196.135L144.557 198.153Z" fill="#FD9783"/>
<path d="M91.8891 185.465C91.4693 182.598 90.6982 179.734 90.4035 176.837C89.1114 177.048 87.8283 177.257 86.5839 177.45C85.3752 177.641 84.2052 177.819 83.1007 177.977C80.8262 178.308 78.8315 178.561 77.3489 178.692C70.0728 179.332 57.0152 179.761 50.1649 178.477C43.3175 177.194 39.0365 174.414 37.536 174.842C36.0385 175.268 38.3934 179.12 41.177 180.615C43.9576 182.112 45.6724 183.824 47.1699 185.962C48.6674 188.099 51.2367 190.24 51.2367 190.24C52.627 191.202 56.0536 189.278 59.2629 188.635C61.4362 188.201 76.0062 189.516 85.1757 190.407C86.6524 190.553 88.0129 190.538 89.1114 190.797C91.2609 191.309 92.678 191.163 92.678 191.163C92.678 191.163 92.6959 191.16 92.7227 191.154C92.425 189.26 92.1689 187.361 91.8891 185.465Z" fill="white"/>
<path d="M89.1104 190.798C87.988 190.685 86.6513 190.554 85.1747 190.408C84.1922 186.323 83.5283 182.143 83.0996 177.978C84.2041 177.821 85.3741 177.642 86.5828 177.451C86.949 180.423 87.4343 183.376 88.0476 186.308C88.3631 187.815 88.7234 189.309 89.1104 190.798Z" fill="#ECB255"/>
<path d="M103.196 175.879C101.779 176.483 99.6295 177.626 98.0248 177.278C97.2716 177.114 97.3996 176.674 96.8042 176.486C96.2088 176.296 94.7142 177.198 94.4195 176.352C94.2826 175.953 93.6723 176.111 93.7854 176.525C93.9491 177.141 94.4582 177.478 95.1013 177.484C95.6014 177.487 96.179 177.094 96.6315 177.439C96.8756 177.626 96.9054 177.847 97.2448 177.981C98.0784 178.317 99.3109 178.061 100.153 177.862C101.35 177.579 102.487 177.085 103.604 176.576C104.083 176.358 103.666 175.676 103.196 175.879Z" fill="#DB7963"/>
<path d="M162.538 164.578L155.688 150.463L163.178 147.257L169.6 161.157L162.538 164.578Z" fill="#E88B72"/>
<path d="M181.853 178.483C180.249 179.772 178.302 180.502 176.399 181.201C174.262 181.993 172.121 182.782 169.98 183.571C169.781 183.646 169.573 183.72 169.37 183.72C169.186 183.72 169.01 183.657 168.849 183.58C167.774 183.08 167.093 181.957 166.994 180.743C166.926 179.897 167.114 178.995 166.858 178.203C166.637 177.519 166.075 176.983 165.381 176.786C164.997 176.676 164.583 176.67 164.196 176.569C163.163 176.31 162.434 175.435 162.029 174.464C161.627 173.494 161.502 172.413 161.308 171.365C161.281 171.222 161.255 171.079 161.222 170.939C161.189 170.775 161.153 170.618 161.115 170.457C160.793 169.046 160.335 167.682 159.748 166.381C159.296 165.372 164.571 160.079 165.613 159.659C167.128 159.046 170.46 157.92 170.659 158.334C171.121 159.311 171.612 160.275 172.127 161.225C172.19 161.344 172.255 161.46 172.318 161.576C172.681 162.228 173.056 162.874 173.44 163.511C175.842 167.468 179.025 171.311 183.634 172.407C183.851 172.458 184.077 172.505 184.232 172.66C184.387 172.815 184.437 173.05 184.464 173.276C184.676 175.199 183.455 177.191 181.853 178.483Z" fill="#E4F1FF"/>
<path d="M209.524 137.991C209.379 137.816 209.15 137.727 208.949 137.604C208.259 137.179 210.047 137.433 209.718 136.781C209.347 136.04 209.467 135.507 209.482 134.685C209.501 133.727 208.889 132.843 208.011 132.387C207.562 132.155 207.051 132.048 206.539 132.089C206.188 132.119 205.846 132.241 205.492 132.241C204.817 132.247 204.431 130.793 204.208 130.251C203.741 129.117 203.932 128.546 202.53 127.975C201.909 127.722 201.4 127.9 200.767 127.915C200.026 127.933 199.847 126.879 199.27 126.525C198.266 125.906 197.133 126.32 196.531 127.225C196.202 127.722 196.013 125.63 195.618 126.089C194.846 126.994 193.983 124.775 193.136 124.245C192.136 123.614 190.73 123.188 189.663 123.953C189.089 124.367 188.829 125.045 188.807 125.709C188.778 126.465 189.287 127.266 189.111 128.007C188.926 128.778 187.928 128.918 187.301 129.24C186.727 129.532 186.338 129.996 186.234 130.615C186.002 131.997 187.116 132.991 188.305 133.568C188.317 133.622 188.352 133.675 188.421 133.711C189.977 134.494 191.492 135.316 192.594 136.655C193.557 137.822 194.165 139.216 194.363 140.686C194.558 142.118 194.473 143.609 195.163 144.937C195.562 145.699 196.136 146.36 196.842 146.881C197.532 147.393 198.141 148.018 198.878 148.498C199.377 148.146 199.932 147.849 200.503 147.569C202.257 146.149 204.199 144.985 206.288 144.032C206.517 143.928 206.743 143.874 206.96 143.854C207.098 143.746 207.236 143.639 207.368 143.526C208.824 142.332 207.281 143.576 208.159 141.944C208.26 141.763 208.333 141.556 208.411 141.372C208.712 140.687 209.822 140.906 210.048 140.185C210.352 139.209 210.204 138.84 209.524 137.991Z" fill="#08294A"/>
<path d="M95.5403 191.094C95.5688 191.105 95.5147 191.082 95.5403 191.094V191.094Z" fill="#B0C0D1"/>
<path d="M95.2288 191.062C94.5917 191.234 94.0588 191.752 93.642 192.285C91.6861 194.786 89.0781 196.751 86.6934 198.838C85.4252 199.951 84.154 201.059 82.8827 202.172C82.2367 202.738 81.5907 203.303 80.9446 203.869C79.2834 203.217 77.5865 202.654 75.8508 202.202C75.7913 202.187 75.7377 202.184 75.6871 202.184C74.13 201.472 72.6177 201.297 70.7987 201.181C68.9022 201.059 67.0177 200.803 65.157 200.419C64.3711 200.255 63.6119 199.99 62.82 200.04C62.3645 200.073 61.4803 199.933 61.0814 200.076C61.0218 200.097 60.9504 200.163 60.87 200.27C58.6014 203.19 48.0863 236.995 46.8478 237.82L46.824 237.835C45.8773 238.433 43.0609 238.145 38.0981 235.59C36.1719 234.599 33.9182 233.268 31.3281 231.512C34.0343 221.538 37.0799 211.627 40.5363 201.892C41.8403 198.216 43.2515 194.583 44.5882 190.916C45.3979 188.695 46.2196 186.453 47.5117 184.47C48.8008 182.487 50.6228 180.761 52.8735 180.031C54.9575 179.359 57.4672 179.376 59.6017 179.769C61.2838 180.076 62.9361 180.487 64.5944 180.895C66.1782 181.282 67.6876 181.835 69.2327 182.404C72.9571 183.768 76.6814 185.131 80.4445 186.384C80.5904 186.435 80.7422 186.486 80.8881 186.536L86.7679 190.025C88.6494 191.014 92.7132 191.401 95.2288 191.062Z" fill="#005BBA"/>
<path d="M46.8236 237.836C45.8768 238.434 43.0605 238.145 38.0977 235.591L38.7705 233.51C38.7705 233.51 45.8858 236.645 46.7402 237.714C46.773 237.758 46.8027 237.797 46.8236 237.836Z" fill="#1A1A1A"/>
<path d="M41.0302 234.546C39.5565 233.79 33.257 230.229 31.3874 231.232C30.3841 234.668 28.7615 239.789 27.5826 241.242C26.3799 242.73 20.5209 245.945 19.0234 246.374C17.5229 246.803 17.3086 249.583 17.3086 249.583C17.3086 249.583 40.2115 250.867 41.0689 249.369C41.9233 247.872 39.7828 244.665 39.3571 242.525C38.9611 240.551 40.7533 235.484 41.0302 234.546Z" fill="#E88B72"/>
<path d="M35.8244 250.544C35.8244 250.544 30.4388 238.811 27.158 240.6C22.4482 243.166 13.6717 247.23 14.9548 249.796C15.5681 251.02 35.8244 250.544 35.8244 250.544Z" fill="#08294A"/>
<path d="M42.2337 249.186C33.1773 249.695 24.0317 250.198 14.9961 249.156C14.3441 249.082 14.1834 251.011 14.8383 251.094C23.9513 252.27 33.088 251.827 42.2337 251.321C43.103 251.27 43.109 249.135 42.2337 249.186Z" fill="#493333"/>
<path d="M153.439 186.498C153.439 186.498 152.957 188.207 152.204 190.338C151.626 191.967 150.894 193.839 150.102 195.384C149.096 197.337 147.994 198.763 146.988 198.496C146.89 198.466 146.794 198.427 146.696 198.368C145.904 197.873 144.963 197.105 143.924 196.135C141.367 193.756 138.217 190.172 135.237 186.56C132.233 182.925 129.402 179.26 127.512 176.775C126.077 174.878 125.186 173.666 125.186 173.666L125.166 173.702C124.954 174.077 124.716 174.446 124.451 174.804C124.159 175.206 123.835 175.596 123.486 175.977C123.341 176.134 123.192 176.292 123.04 176.447C120.512 179.013 116.928 181.163 114.055 183.077C111.679 184.661 107.83 187.629 104.784 190.222C102.894 191.83 101.31 193.295 100.572 194.197C99.4999 195.501 95.3677 198.552 91.8993 201.008C90.3185 201.357 88.7436 201.77 87.2461 202.345C88.3893 199.814 91.0806 195.495 94.1381 190.883C98.312 184.595 103.171 177.766 105.743 174.17C106.323 173.36 106.785 172.717 107.1 172.276C108.398 170.46 110.753 167.444 113.466 164.494C117.443 160.153 122.197 155.938 125.508 155.81C131.072 155.595 140.26 163.979 140.26 163.979L153.439 186.498Z" fill="#FD9783"/>
<path d="M112.822 165.203C111.858 166.278 110.947 167.347 110.125 168.35C109.238 169.437 108.455 170.443 107.818 171.3C107.55 171.652 107.312 171.982 107.1 172.277C103.888 176.766 91.9023 192.593 87.6213 196.442C83.5843 200.071 79.1692 201.989 76.8828 202.554C79.1365 203.31 81.3663 204.126 83.5128 205.135C87.9011 202.712 93.0545 201.855 98.1066 201.494C98.0977 200.473 98.0977 199.455 98.4282 198.49C98.7616 197.014 99.4463 195.567 100.572 194.197C102.498 191.843 110.203 185.641 114.055 183.075C114.656 182.676 115.285 182.268 115.931 181.845C116.979 181.161 118.071 180.443 119.128 179.69C120.295 178.856 121.423 177.975 122.424 177.04C119.366 172.98 116.279 168.94 112.822 165.203Z" fill="white"/>
<path d="M119.128 179.689C118.072 180.442 116.979 181.159 115.931 181.844C115.312 180.927 114.681 180.019 114.032 179.12C112.082 176.417 110.004 173.812 107.818 171.299C108.455 170.442 109.238 169.436 110.126 168.349C112.585 171.088 114.91 173.937 117.11 176.89C117.795 177.813 118.47 178.745 119.128 179.689Z" fill="#ECB255"/>
<path d="M204.531 158.159C204.796 158.799 205.189 159.415 205.296 160.118C205.439 161.038 205.221 161.988 205.064 162.893C204.816 164.31 204.557 165.724 204.298 167.138C203.688 170.475 203.057 173.807 202.39 177.132C201.702 180.547 200.985 183.956 200.184 187.347C199.553 190.026 198.895 192.717 198.002 195.325C197.662 196.323 197.311 197.576 196.57 198.365C193.361 201.786 147.126 202.643 143.702 199.437C140.279 196.227 139.472 190.458 139.85 186.602C139.978 185.292 139.942 184.584 136.852 172.062C135.783 167.728 136.852 161.157 136.852 161.157C139.424 163.116 142.252 164.944 144.965 166.706C145.908 167.317 146.873 167.921 147.942 168.272C149.52 168.784 151.267 168.719 152.774 169.416C154.179 170.065 155.209 171.303 156.272 172.431C159.014 175.34 162.291 177.746 165.891 179.49C167.004 180.032 168.174 180.517 169.41 180.639C171.366 180.833 173.709 180.014 175.516 179.24C178.055 178.153 179.815 175.465 179.794 172.705C179.788 171.919 179.654 171.101 179.946 170.368C180.163 169.812 180.607 169.374 181.077 169.008C181.788 168.451 182.586 168.028 183.369 167.579C185.784 166.197 188.934 164.566 190.455 162.122C190.523 162.014 190.589 161.904 190.651 161.791C190.687 161.726 190.767 161.63 190.75 161.55C190.741 161.514 190.717 161.479 190.696 161.446L190.669 161.401C190.5 161.118 190.363 160.758 190.398 160.428C190.443 160.067 190.666 159.746 190.887 159.472C191.208 159.061 191.613 159.1 191.345 158.656C191.595 158.21 191.116 157.733 190.821 157.314C190.449 156.793 190.339 156.093 190.532 155.483C190.729 154.872 191.223 154.363 191.827 154.152C192.238 154.006 192.685 153.994 193.119 153.946C194.307 153.815 195.316 153.72 196.451 153.25C197.475 152.827 198.478 152.363 199.464 151.857C200.285 151.434 201.244 150.648 202.155 150.493C202.765 150.389 203.495 150.684 203.652 151.285C203.834 151.976 203.227 152.779 203.617 153.378C203.757 153.592 203.995 153.717 204.212 153.854C204.566 154.077 204.891 154.366 205.081 154.735C205.73 156.001 204.108 156.364 204.316 157.465C204.361 157.704 204.438 157.933 204.531 158.159Z" fill="#E4F1FF"/>
<path d="M192.463 167.965C192.463 167.438 191.624 167.399 191.615 167.929C191.588 169.614 191.499 171.326 190.888 172.922C190.323 174.404 189.275 175.616 188.254 176.825C186.328 179.102 184.812 181.57 184.089 184.455C183.955 184.991 184.788 185.262 184.94 184.72C185.851 181.478 187.679 179.022 189.787 176.426C191.874 173.857 192.463 171.192 192.463 167.965Z" fill="#998C57"/>
<path d="M202.086 154.321C200.651 155.414 199.067 156.262 197.349 156.819C197.117 156.893 197.215 157.259 197.45 157.185C199.219 156.625 200.862 155.777 202.33 154.637C202.509 154.5 202.267 154.184 202.086 154.321Z" fill="#998C57"/>
<path d="M200.893 158.033C198.824 159.564 195.975 159.495 193.843 160.975C192.959 161.591 192.033 162.511 190.842 162.252C190.705 162.222 190.574 162.177 190.455 162.121C190.524 162.014 190.589 161.904 190.652 161.79C190.687 161.725 190.768 161.63 190.75 161.549C190.741 161.514 190.717 161.478 190.696 161.445L190.669 161.4C191.402 161.871 192.878 160.626 193.417 160.248C194.084 159.781 194.825 159.447 195.585 159.165C197.258 158.542 198.964 158.066 200.625 157.399C201.024 157.238 201.179 157.822 200.893 158.033Z" fill="#998C57"/>
<path d="M193.895 199.54C193.895 199.54 192.609 195.691 193.252 193.339C193.895 190.987 199.031 181.576 198.602 179.224C198.176 176.873 198.403 170.07 200.636 164.363C203.526 156.985 205.988 154.098 205.988 154.098L211.231 157.414L203.312 182.863L202.669 199.115L193.895 199.54Z" fill="#F7CDA3"/>
<path d="M128.354 177.876C128.152 177.611 127.955 177.355 127.768 177.108C127.839 177.138 127.905 177.191 127.958 177.272C128.089 177.471 128.22 177.674 128.354 177.876Z" fill="#DB7963"/>
<path d="M208.986 149.069C205.831 151.981 204.095 156.075 202.398 159.933C202.199 160.388 202.913 160.677 203.113 160.225C204.821 156.387 206.646 152.69 209.424 149.495C209.65 149.236 209.245 148.831 208.986 149.069Z" fill="#BC7551"/>
<path d="M199.221 180C199.171 179.619 198.507 179.705 198.545 180.092C198.807 182.822 198.775 185.543 198.438 188.264C198.385 188.702 199.15 188.809 199.209 188.368C199.59 185.579 199.599 182.789 199.221 180Z" fill="#BC7551"/>
<path d="M119.943 200.291C119.943 200.291 142.843 197.936 145.942 198.254C145.942 198.254 155.472 197.51 163.391 199.222C165.431 199.659 167.473 200.041 169.131 200.329C171.441 200.734 173.811 200.642 176.083 200.064C181.188 198.766 190.924 196.513 195.392 196.974C201.6 197.617 203.954 198.9 203.954 198.9L203.526 205.316L124.436 206.483L119.943 200.291Z" fill="#F7CDA3"/>
<path d="M120.051 237.181C120.051 237.181 115.321 237.24 110.864 236.806C107 236.428 105.267 235.674 105.067 234.186C105.058 234.129 105.052 234.067 105.05 233.995C104.799 229.961 107.413 201.446 106.994 200.184C106.979 200.137 106.952 200.089 106.919 200.041C106.732 199.773 106.252 199.526 105.663 199.202C104.847 198.752 104.058 198.49 103.296 198.356C101.4 198.023 99.6996 198.487 98.3242 198.794C98.5386 197.725 99.0447 196.567 99.3156 195.983C99.7264 195.29 100.143 194.665 100.143 194.665C100.143 194.665 103.37 189.809 107.5 185.918C107.836 185.602 108.348 185.165 108.961 184.676C110.751 183.241 113.403 181.369 115.02 180.83C116.303 180.401 118.009 179.642 119.122 179.752C123.421 180.175 127.372 182.956 127.542 189.919C127.756 198.687 120.051 237.181 120.051 237.181Z" fill="#005BBA"/>
<path d="M112.021 233.435C110.095 233.224 105.737 233.304 105.049 233.995C105.052 234.066 105.058 234.129 105.067 234.185C105.251 235.567 106.457 236.43 111.381 236.859C111.521 235.739 111.855 234.551 112.021 233.435Z" fill="#1A1A1A"/>
<path d="M110.95 236.001C110.92 237.909 110.872 239.96 110.203 241.77C109.577 243.453 108.467 244.771 107.461 246.227C106.907 247.031 105.52 249.609 106.806 250.336C107.032 250.371 107.208 250.33 107.208 250.33L120.905 250.115C120.905 250.115 119.301 244.236 119.301 242.098C119.301 239.957 120.495 235.135 120.495 235.135C120.495 235.135 119.979 233.658 110.944 233.357C110.959 234.238 110.965 235.12 110.95 236.001Z" fill="#E88B72"/>
<path d="M104.639 250.223C104.639 250.223 106.136 244.665 112.986 241.884C119.837 239.103 123.689 249.154 123.26 250.223C122.832 251.292 104.639 250.652 104.639 250.652V250.223Z" fill="#08294A"/>
<path d="M123.647 248.985C120.435 249.124 117.219 249.285 114.004 249.395C110.717 249.509 107.475 249.384 104.192 249.235C103.575 249.208 103.417 251.077 104.043 251.185C107.237 251.724 110.571 251.625 113.796 251.521C117.079 251.42 120.363 251.259 123.647 251.119C124.469 251.083 124.472 248.949 123.647 248.985Z" fill="#493333"/>
<path d="M155.687 133.557C155.687 133.557 156.33 131.634 155.687 131.42C155.047 131.206 152.907 134.209 152.692 134.638C152.478 135.064 152.275 141.715 152.275 141.715L156.759 138.488L155.687 133.557Z" fill="#C9E4FF"/>
<path d="M172.275 159.552C172.275 159.552 171.847 152.282 171.635 151.425C171.421 150.57 167.565 148.858 167.565 148.858L167.137 154.848L172.275 159.552Z" fill="#E88B72"/>
<path d="M168.209 159.552L169.492 158.697C169.492 158.697 170.885 136.991 170.349 136.241C169.647 135.259 157.613 134.416 157.613 134.416V132.276C157.399 132.061 155.902 131.847 155.902 131.847L153.439 134.747L158.578 154.848L168.209 159.552Z" fill="#F2F2F2"/>
<path d="M152.692 134.64C152.692 134.64 168.852 135.816 169.28 136.885C169.706 137.954 169.066 159.124 168.423 159.979C167.78 160.836 153.01 158.484 152.585 157.63C152.156 156.772 152.049 134.855 152.692 134.64Z" fill="#C9E4FF"/>
<path d="M177.388 172.237C177.388 172.237 172.597 161.371 172.169 159.23C171.74 157.092 170.886 152.814 170.457 152.389C169.519 151.451 167.9 150.888 166.765 150.227C164.952 149.167 163.306 147.953 161.66 146.652C161.535 146.551 161.392 146.446 161.234 146.464C161.097 146.479 160.984 146.583 160.906 146.699C160.659 147.089 160.734 147.616 160.954 148.018C161.18 148.426 161.526 148.745 161.841 149.081C162.014 149.269 162.187 149.477 162.216 149.727C162.282 150.251 161.728 150.677 161.719 151.201C161.707 151.829 162.463 152.293 162.41 152.919C162.38 153.258 162.112 153.576 162.207 153.901C162.282 154.16 162.556 154.3 162.722 154.511C163.071 154.952 162.907 155.595 163.011 156.149C163.092 156.574 163.33 156.947 163.55 157.319C164.476 158.908 165.045 160.674 165.61 162.421C167.477 168.224 169.346 174.023 171.216 179.826C173.238 177.313 175.575 174.905 177.388 172.237Z" fill="#E88B72"/>
<path d="M165.235 151.624C164.434 150.981 163.582 150.424 162.82 149.724C162.472 149.406 161.969 149.903 162.299 150.245C163.014 150.987 163.859 151.752 164.809 152.177C165.139 152.326 165.574 151.898 165.235 151.624Z" fill="#DB7963"/>
<path d="M164.327 153.788C164.16 153.559 163.94 153.413 163.72 153.234C163.502 153.059 163.291 152.874 163.085 152.686C162.77 152.392 162.305 152.85 162.612 153.16C162.993 153.553 163.446 154.071 163.976 154.246C164.22 154.33 164.488 154.011 164.327 153.788Z" fill="#DB7963"/>
<path d="M164.061 155.523C164.034 155.383 163.972 155.267 163.865 155.178C163.778 155.103 163.686 155.035 163.6 154.963C163.454 154.844 163.23 154.808 163.091 154.963C162.968 155.094 162.936 155.341 163.091 155.469C163.189 155.553 163.29 155.636 163.391 155.713C163.457 155.767 163.516 155.812 163.6 155.833C163.665 155.85 163.74 155.856 163.808 155.856C163.987 155.856 164.094 155.69 164.061 155.523Z" fill="#DB7963"/>
<path d="M178.716 203.418C179.392 203.483 180.101 203.43 180.771 203.355C182.247 203.191 183.658 202.739 185.04 202.2C187.112 201.393 189.112 200.679 191.327 200.369C191.807 200.304 192.274 200.28 192.739 200.283C193.114 198.624 192.929 196.642 191.95 195.368C190.893 193.998 190.285 192.59 189.616 190.988C189.616 190.988 183.408 185.001 177.201 171.101C177.201 171.101 165.748 181.899 168.21 184.572C170.065 186.588 170.779 187.139 170.779 188.636C170.779 190.134 171.208 193.983 172.062 196.335C172.774 198.291 174.623 199.366 176.12 200.652C177.079 201.477 177.764 202.596 178.716 203.418Z" fill="#E4F1FF"/>
<path d="M188.855 189.44C185.065 185.474 181.954 181.02 179.647 176.04C179.441 175.596 178.795 175.983 178.992 176.424C181.234 181.455 184.371 186.12 188.286 190.011C188.653 190.378 189.212 189.815 188.855 189.44Z" fill="#998C57"/>
<path d="M175.78 200.017C174.416 199.022 173.151 197.858 172.344 196.352C171.421 194.622 171.615 192.907 171.597 191.023C171.582 189.627 171.26 188.263 170.588 187.034C170.254 186.417 169.831 185.858 169.352 185.349C169.12 185.096 168.816 184.848 168.65 184.548C168.218 183.774 168.629 182.985 168.938 182.267C169.117 181.856 168.548 181.49 168.319 181.904C167.488 183.419 167.486 184.566 168.661 185.831C170.248 187.543 170.802 189.552 170.731 191.848C170.671 193.726 170.796 195.408 171.77 197.063C172.648 198.555 173.94 199.77 175.363 200.734C175.812 201.035 176.205 200.326 175.78 200.017Z" fill="#998C57"/>
<path d="M178.544 176.666C175.397 179.388 172.813 182.731 170.94 186.443C170.83 186.667 171.16 186.86 171.274 186.64C173.17 182.96 175.73 179.691 178.829 176.949C179.026 176.777 178.74 176.497 178.544 176.666Z" fill="#998C57"/>
<path d="M174.206 201.085C171.565 199.93 168.767 199.305 165.932 198.825C164.465 198.575 162.988 198.355 161.514 198.126C160.859 198.025 160.202 197.926 159.541 197.855C158.787 197.771 157.96 197.849 157.233 197.629C156.572 197.432 156.29 198.462 156.951 198.662C158.219 199.043 159.713 198.924 161.026 199.126C162.446 199.346 163.866 199.561 165.283 199.796C168.136 200.266 171.005 200.844 173.667 202.008C174.289 202.282 174.837 201.362 174.206 201.085Z" fill="#BC7551"/>
<path d="M196.14 187.491C193.466 191.606 191.177 196.702 192.412 201.689C192.579 202.356 193.609 202.073 193.445 201.403C192.281 196.708 194.556 191.891 197.063 188.03C197.441 187.453 196.515 186.917 196.14 187.491Z" fill="#BC7551"/>
<path d="M192.646 136.323C194.254 137.368 201.075 140.439 202.141 142.944C202.366 142.5 202.71 142.043 203.034 141.876C203.769 141.504 204.531 142.302 204.155 143.405C203.827 144.373 202.817 145.658 201.758 145.282C199.583 149.317 194.742 150.659 191.962 149.937C187.089 148.675 190.898 142.958 192.646 136.323Z" fill="#FD9783"/>
<path d="M86.5015 126.101C86.4337 126.096 86.3687 126.068 86.3139 126.021C86.2591 125.974 86.2168 125.91 86.1918 125.836L85.8152 124.72C85.7811 124.617 85.7832 124.502 85.8211 124.4C85.859 124.299 85.9296 124.219 86.0173 124.179C86.105 124.139 86.2027 124.141 86.2889 124.186C86.375 124.23 86.4426 124.313 86.4768 124.416L86.8532 125.532C86.8706 125.583 86.8792 125.638 86.8784 125.693C86.8776 125.748 86.8675 125.802 86.8487 125.852C86.8299 125.903 86.8027 125.948 86.7688 125.986C86.7349 126.024 86.6949 126.053 86.6512 126.073C86.6039 126.096 86.5526 126.106 86.5015 126.101Z" fill="#080C53"/>
<path d="M90.0009 125.187C89.9388 125.184 89.8788 125.16 89.8279 125.118C89.777 125.076 89.7373 125.018 89.7134 124.95L89.3726 123.919C89.3561 123.873 89.3475 123.824 89.3475 123.773C89.3475 123.723 89.356 123.674 89.3725 123.628C89.3889 123.581 89.413 123.54 89.4434 123.504C89.4737 123.469 89.5097 123.442 89.5493 123.423C89.6297 123.387 89.7189 123.389 89.7977 123.43C89.8765 123.47 89.9385 123.546 89.9705 123.64L90.3196 124.662C90.3502 124.757 90.3479 124.861 90.3134 124.954C90.2789 125.047 90.2148 125.12 90.135 125.158C90.0933 125.182 90.047 125.192 90.0009 125.187Z" fill="#080C53"/>
<path d="M88.324 130.526C88.1495 130.248 88.3198 129.897 88.6389 129.833L90.7667 129.401C91.1229 129.328 91.431 129.648 91.317 129.993C91.1013 130.645 90.7268 131.515 90.2219 131.701C89.5374 131.953 88.8557 131.372 88.324 130.526Z" fill="white"/>
<path d="M191.986 139.993C191.937 139.946 191.904 139.883 191.891 139.812C191.878 139.741 191.886 139.665 191.914 139.591L192.327 138.488C192.365 138.387 192.44 138.299 192.533 138.244C192.626 138.19 192.732 138.173 192.825 138.197C192.918 138.221 192.993 138.284 193.031 138.373C193.07 138.462 193.07 138.569 193.031 138.671L192.618 139.774C192.6 139.824 192.572 139.872 192.536 139.914C192.501 139.956 192.459 139.992 192.413 140.019C192.366 140.046 192.316 140.064 192.266 140.072C192.216 140.08 192.166 140.078 192.12 140.065C192.069 140.054 192.023 140.029 191.986 139.993Z" fill="#080C53"/>
<path d="M194.316 141.494C194.27 141.452 194.239 141.396 194.226 141.331C194.213 141.267 194.219 141.197 194.243 141.129L194.63 140.115C194.646 140.068 194.671 140.025 194.702 139.986C194.734 139.947 194.772 139.914 194.814 139.888C194.856 139.863 194.901 139.846 194.947 139.838C194.992 139.83 195.038 139.831 195.08 139.841C195.165 139.864 195.233 139.923 195.268 140.004C195.304 140.085 195.304 140.183 195.27 140.276L194.895 141.289C194.859 141.381 194.791 141.461 194.705 141.511C194.62 141.561 194.524 141.577 194.438 141.556C194.391 141.548 194.349 141.527 194.316 141.494Z" fill="#080C53"/>
<path d="M190.604 144.574C190.644 144.249 190.998 144.085 191.286 144.236L193.208 145.245C193.53 145.414 193.567 145.857 193.261 146.052C192.682 146.421 191.842 146.859 191.333 146.685C190.643 146.448 190.481 145.567 190.604 144.574Z" fill="white"/>
<path d="M194.84 145.618H200.599V151.377L197.719 152.817L194.84 153.777V145.618Z" fill="#FD9783"/>
</svg>
